<svg width="650" height="650" xmlns="http://www.w3.org/2000/svg" xmlns:xlink="http://www.w3.org/1999/xlink" xml:space="preserve" overflow="hidden"><defs><clipPath id="clip0"><rect x="978" y="624" width="650" height="650"/></clipPath></defs><g clip-path="url(#clip0)" transform="translate(-978 -624)"><path d="M1269 1138 1337 1138 1337 869 1269 869ZM1277 877.039 1329.01 877.039 1329.01 1129.98 1277 1129.98Z" fill="#616161" fill-rule="evenodd"/><path d="M1303 760C1278.74 760 1259 779.74 1259 804 1259 828.261 1278.74 848 1303 848 1327.26 848 1347 828.261 1347 804 1347 779.74 1327.26 760 1303 760ZM1303 839.995C1283.15 839.995 1267 823.847 1267 803.995 1267 784.143 1283.15 767.994 1303 767.994 1322.84 767.994 1339 784.143 1339 803.995 1339 823.847 1322.84 839.995 1303 839.995Z" fill="#616161" fill-rule="evenodd"/><path d="M1303 624C1123.79 624 978 769.792 978 949 978 1128.21 1123.79 1274 1303 1274 1482.21 1274 1628 1128.21 1628 949 1628 769.792 1482.21 624 1303 624ZM1303 1265.98C1128.22 1265.98 986.02 1123.78 986.02 949 986.02 774.222 1128.22 632.02 1303 632.02 1477.78 632.02 1619.98 774.222 1619.98 949 1619.98 1123.78 1477.78 1265.98 1303 1265.98Z" fill="#616161" fill-rule="evenodd"/></g></svg>