<svg width="744" height="744" xmlns="http://www.w3.org/2000/svg" xmlns:xlink="http://www.w3.org/1999/xlink" xml:space="preserve" overflow="hidden"><defs><clipPath id="clip0"><rect x="1828" y="618" width="744" height="744"/></clipPath></defs><g clip-path="url(#clip0)" transform="translate(-1828 -618)"><path d="M2565.64 1362 1834.36 1362C1830.84 1362 1828 1359.16 1828 1355.64L1828 624.359C1828 620.845 1830.84 618 1834.36 618L2565.64 618C2569.16 618 2572 620.845 2572 624.359L2572 1355.64C2572 1359.16 2569.16 1362 2565.64 1362ZM1840.71 1349.28 2559.29 1349.28 2559.29 630.704 1840.71 630.704Z" fill="#616161" fill-rule="evenodd"/><path d="M2501.66 694 2216.34 694C2212.84 694 2210 691.316 2210 688 2210 684.684 2212.84 682 2216.34 682L2501.66 682C2505.16 682 2508 684.684 2508 688 2508 691.316 2505.16 694 2501.66 694Z" fill="#616161" fill-rule="evenodd"/><path d="M1929.71 694 1898.29 694C1894.81 694 1892 691.316 1892 688 1892 684.684 1894.81 682 1898.29 682L1929.71 682C1933.19 682 1936 684.684 1936 688 1936 691.316 1933.19 694 1929.71 694Z" fill="#616161" fill-rule="evenodd"/><path d="M2072.71 694 2041.29 694C2037.81 694 2035 691.316 2035 688 2035 684.684 2037.81 682 2041.29 682L2072.71 682C2076.19 682 2079 684.684 2079 688 2079 691.316 2076.19 694 2072.71 694Z" fill="#616161" fill-rule="evenodd"/><path d="M2565.64 758 1834.36 758C1830.84 758 1828 755.092 1828 751.5 1828 747.907 1830.84 745 1834.36 745L2565.64 745C2569.16 745 2572 747.907 2572 751.5 2572 755.092 2569.16 758 2565.64 758Z" fill="#616161" fill-rule="evenodd"/><path d="M2327 1130C2285.09 1130 2251 1095.68 2251 1053.5 2251 1011.32 2285.09 977 2327 977 2368.91 977 2403 1011.32 2403 1053.5 2403 1095.68 2368.91 1130 2327 1130ZM2327 989.75C2292.08 989.75 2263.67 1018.35 2263.67 1053.5 2263.67 1088.65 2292.08 1117.25 2327 1117.25 2361.92 1117.25 2390.33 1088.65 2390.33 1053.5 2390.33 1018.35 2361.92 989.75 2327 989.75Z" fill="#616161" fill-rule="evenodd"/><path d="M2350.29 1235 2303.71 1235C2300.2 1235 2297.36 1232.15 2297.36 1228.63L2297.36 1185C2282.37 1181.63 2268.24 1175.75 2255.23 1167.49L2224.46 1198.35C2221.98 1200.84 2217.96 1200.84 2215.48 1198.35L2182.55 1165.33C2181.36 1164.14 2180.69 1162.52 2180.69 1160.83 2180.69 1159.14 2181.36 1157.52 2182.55 1156.32L2213.32 1125.47C2205.08 1112.42 2199.22 1098.25 2195.85 1083.22L2152.35 1083.22C2148.84 1083.22 2146 1080.37 2146 1076.85L2146 1030.15C2146 1026.63 2148.84 1023.78 2152.35 1023.78L2195.86 1023.78C2199.22 1008.75 2205.08 994.579 2213.32 981.531L2182.55 950.673C2181.36 949.479 2180.69 947.859 2180.69 946.171 2180.69 944.48 2181.36 942.86 2182.55 941.667L2215.49 908.641C2216.68 907.446 2218.29 906.777 2219.98 906.777 2221.66 906.777 2223.28 907.448 2224.47 908.641L2255.24 939.499C2268.26 931.231 2282.39 925.358 2297.37 921.987L2297.37 878.369C2297.37 874.849 2300.21 872 2303.72 872L2350.29 872C2353.8 872 2356.64 874.849 2356.64 878.369L2356.64 921.992C2371.63 925.364 2385.76 931.237 2398.77 939.505L2429.54 908.647C2430.73 907.452 2432.35 906.783 2434.03 906.783 2435.72 906.783 2437.33 907.453 2438.53 908.647L2471.45 941.672C2473.94 944.163 2473.94 948.188 2471.45 950.679L2440.68 981.536C2448.92 994.586 2454.78 1008.76 2458.14 1023.78L2501.65 1023.78C2505.16 1023.78 2508 1026.63 2508 1030.15L2508 1076.85C2508 1080.37 2505.16 1083.22 2501.65 1083.22L2458.14 1083.22C2454.78 1098.25 2448.92 1112.42 2440.68 1125.47L2471.45 1156.33C2473.94 1158.81 2473.94 1162.85 2471.45 1165.33L2438.52 1198.35C2436.04 1200.84 2432.02 1200.84 2429.54 1198.35L2398.76 1167.5C2385.75 1175.76 2371.63 1181.64 2356.64 1185L2356.64 1228.63C2356.64 1232.15 2353.79 1235 2350.29 1235ZM2310.06 1222.26 2343.94 1222.26 2343.94 1179.8C2343.94 1176.73 2346.13 1174.09 2349.14 1173.54 2366.03 1170.43 2381.79 1163.88 2395.99 1154.07 2398.51 1152.33 2401.92 1152.64 2404.08 1154.81L2434.03 1184.84 2457.98 1160.82 2428.04 1130.79C2425.87 1128.62 2425.56 1125.2 2427.3 1122.68 2437.08 1108.44 2443.61 1092.64 2446.72 1075.7 2447.27 1072.68 2449.9 1070.48 2452.97 1070.48L2495.3 1070.48 2495.3 1036.51 2452.95 1036.51C2449.89 1036.51 2447.26 1034.31 2446.71 1031.3 2443.6 1014.36 2437.07 998.556 2427.29 984.318 2425.55 981.788 2425.86 978.37 2428.03 976.205L2457.97 946.171 2434.02 922.153 2404.07 952.187C2401.9 954.358 2398.5 954.671 2395.98 952.926 2381.79 943.117 2366.02 936.562 2349.13 933.457 2346.12 932.899 2343.93 930.266 2343.93 927.19L2343.94 884.738 2310.06 884.738 2310.06 927.196C2310.06 930.272 2307.87 932.905 2304.86 933.463 2287.96 936.572 2272.21 943.122 2258.01 952.932 2255.49 954.677 2252.08 954.364 2249.92 952.192L2219.97 922.158 2196.02 946.176 2225.97 976.205C2228.13 978.376 2228.44 981.794 2226.7 984.318 2216.92 998.55 2210.39 1014.36 2207.29 1031.3 2206.73 1034.31 2204.11 1036.51 2201.04 1036.51L2158.7 1036.52 2158.7 1070.48 2201.04 1070.48C2204.11 1070.48 2206.74 1072.68 2207.29 1075.7 2210.39 1092.64 2216.93 1108.44 2226.71 1122.68 2228.45 1125.21 2228.13 1128.62 2225.97 1130.79L2196.03 1160.82 2219.98 1184.84 2249.92 1154.81C2252.09 1152.64 2255.49 1152.32 2258.01 1154.07 2272.21 1163.88 2287.97 1170.43 2304.86 1173.54 2307.87 1174.09 2310.07 1176.73 2310.07 1179.8L2310.07 1222.26Z" fill="#616161" fill-rule="evenodd"/><path d="M2088.66 1012 1898.34 1012C1894.84 1012 1892 1009.16 1892 1005.66L1892 815.344C1892 811.837 1894.84 809 1898.34 809L2088.66 809C2092.16 809 2095 811.837 2095 815.344L2095 1005.66C2095 1009.16 2092.16 1012 2088.66 1012ZM1904.68 999.312 2082.31 999.312 2082.31 821.687 1904.68 821.687Z" fill="#616161" fill-rule="evenodd"/><path d="M2088.66 885 1898.34 885C1894.84 885 1892 882.093 1892 878.5 1892 874.908 1894.84 872 1898.34 872L2088.66 872C2092.16 872 2095 874.908 2095 878.5 2095 882.093 2092.16 885 2088.66 885Z" fill="#616161" fill-rule="evenodd"/><path d="M1961.56 965C1959.91 965 1958.26 964.374 1957 963.118L1940.89 947.046C1938.37 944.532 1938.37 940.461 1940.89 937.953L1957 921.881C1959.52 919.373 1963.6 919.373 1966.11 921.881 1968.63 924.395 1968.63 928.465 1966.11 930.974L1954.56 942.499 1966.11 954.024C1968.63 956.538 1968.63 960.608 1966.11 963.116 1964.85 964.373 1963.21 964.999 1961.56 964.999Z" fill="#616161" fill-rule="evenodd"/><path d="M2025.22 964.999C2023.63 964.999 2022.04 964.373 2020.82 963.116 2018.39 960.602 2018.39 956.532 2020.82 954.024L2031.98 942.499 2020.82 930.974C2018.39 928.46 2018.39 924.389 2020.82 921.881 2023.25 919.373 2027.19 919.373 2029.62 921.881L2045.18 937.953C2047.61 940.467 2047.61 944.537 2045.18 947.046L2029.62 963.118C2028.4 964.374 2026.82 965 2025.22 965Z" fill="#616161" fill-rule="evenodd"/><path d="M2088.66 1298 1898.34 1298C1894.84 1298 1892 1295.16 1892 1291.66L1892 1101.34C1892 1097.84 1894.84 1095 1898.34 1095L2088.66 1095C2092.16 1095 2095 1097.84 2095 1101.34L2095 1291.66C2095 1295.16 2092.16 1298 2088.66 1298ZM1904.68 1285.31 2082.31 1285.31 2082.31 1107.69 1904.68 1107.69Z" fill="#616161" fill-rule="evenodd"/><path d="M2088.66 1171 1898.34 1171C1894.84 1171 1892 1168.09 1892 1164.5 1892 1160.91 1894.84 1158 1898.34 1158L2088.66 1158C2092.16 1158 2095 1160.91 2095 1164.5 2095 1168.09 2092.16 1171 2088.66 1171Z" fill="#616161" fill-rule="evenodd"/><path d="M1961.56 1251C1959.91 1251 1958.26 1250.37 1957 1249.12L1940.89 1233.05C1938.37 1230.53 1938.37 1226.46 1940.89 1223.96L1957 1207.89C1959.52 1205.37 1963.6 1205.37 1966.11 1207.89 1968.63 1210.4 1968.63 1214.47 1966.11 1216.98L1954.56 1228.5 1966.11 1240.02C1968.63 1242.54 1968.63 1246.61 1966.11 1249.12 1964.85 1250.37 1963.21 1251 1961.56 1251Z" fill="#616161" fill-rule="evenodd"/><path d="M2025.22 1251C2023.63 1251 2022.04 1250.37 2020.82 1249.12 2018.39 1246.6 2018.39 1242.53 2020.82 1240.02L2031.98 1228.5 2020.82 1216.98C2018.39 1214.46 2018.39 1210.39 2020.82 1207.89 2023.25 1205.37 2027.19 1205.37 2029.62 1207.89L2045.18 1223.96C2047.61 1226.47 2047.61 1230.54 2045.18 1233.05L2029.62 1249.12C2028.4 1250.37 2026.82 1251 2025.22 1251Z" fill="#616161" fill-rule="evenodd"/></g></svg>