<svg width="500" height="527" xmlns="http://www.w3.org/2000/svg" xmlns:xlink="http://www.w3.org/1999/xlink" xml:space="preserve" overflow="hidden"><defs><clipPath id="clip0"><rect x="1909" y="644" width="500" height="527"/></clipPath></defs><g clip-path="url(#clip0)" transform="translate(-1909 -644)"><path d="M2172.15 1020.62 2333.91 858.662C2339.04 853.514 2347.37 853.514 2352.52 858.662 2357.65 863.806 2357.65 872.147 2352.52 877.295L2168.3 1061.74C2163.16 1066.88 2154.83 1066.88 2149.69 1061.74L1965.48 877.295C1960.34 872.147 1960.34 863.806 1965.48 858.662 1970.62 853.514 1978.95 853.514 1984.09 858.662L2145.84 1020.62 2145.84 657.176C2145.84 649.902 2151.73 644 2159 644 2166.27 644 2172.16 649.902 2172.16 657.176ZM2382.69 1144.65 2382.69 1052.43C2382.69 1045.15 2388.58 1039.25 2395.84 1039.25 2403.11 1039.25 2409 1045.15 2409 1052.43L2409 1157.82C2409 1165.1 2403.11 1171 2395.84 1171L1922.15 1171C1914.89 1171 1909 1165.1 1909 1157.82L1909 1052.43C1909 1045.15 1914.89 1039.25 1922.15 1039.25 1929.42 1039.25 1935.31 1045.15 1935.31 1052.43L1935.31 1144.65Z" fill="#616161" fill-rule="evenodd"/></g></svg>