<svg width="692" height="691" xmlns="http://www.w3.org/2000/svg" xmlns:xlink="http://www.w3.org/1999/xlink" xml:space="preserve" overflow="hidden"><defs><clipPath id="clip0"><rect x="1854" y="645" width="692" height="691"/></clipPath></defs><g clip-path="url(#clip0)" transform="translate(-1854 -645)"><path d="M2534.24 1050.41C2531.16 1029.5 2528.5 1011.39 2527.64 999.765 2524.77 960.951 2514.28 940.304 2492.49 929.87L2492.48 929.87C2483.13 925.487 2472.85 923.393 2462.53 923.76 2459.39 910.569 2453.01 889.217 2443.28 879.599 2426.51 863.058 2403.53 862.571 2390.06 864.139 2386.25 851.601 2376.66 841.648 2364.26 837.382 2349.45 833.071 2333.57 834.36 2319.65 841.001 2315.43 776.405 2310.02 717.001 2303.86 704.831 2299.49 694.743 2290.15 687.687 2279.25 686.239 2262.65 684.183 2246.37 695.916 2241.4 701.592 2237.94 705.593 2235.45 708.455 2235.67 825.913 2235.67 880.997 2236.64 943.484 2237.45 954.56 2238.16 964.021 2236.86 997.804 2235.34 1030.24L2235.34 1030.23C2232.7 1026.15 2230.4 1021.84 2228.47 1017.37 2216.25 990.344 2190.62 968.233 2157.03 955.314 2134.91 946.881 2114.31 949.149 2101.82 961.365L2101.82 961.37C2097.33 965.685 2094.21 971.216 2092.81 977.283 2091.42 983.35 2091.83 989.692 2093.98 995.532 2098.14 1007.1 2107.6 1018.4 2118.53 1031.48L2118.53 1031.48C2128.65 1042.86 2137.71 1055.14 2145.57 1068.18 2152.65 1081.79 2158.67 1095.92 2163.58 1110.45 2169.19 1127.34 2176.43 1143.63 2185.21 1159.1 2189.26 1165.81 2193.7 1172.89 2198.24 1180.19 2212.1 1201.51 2224.73 1223.6 2236.09 1246.35 2249.56 1275.71 2298.45 1300.41 2303.96 1303.43 2306.56 1304.77 2309.58 1305.01 2312.36 1304.09 2315.13 1303.17 2317.41 1301.17 2318.68 1298.54 2319.95 1295.91 2320.11 1292.88 2319.11 1290.14 2318.11 1287.39 2316.04 1285.17 2313.38 1283.97 2300.23 1277.43 2264.27 1256.3 2255.51 1237.21 2243.7 1213.56 2230.52 1190.62 2216.03 1168.51 2211.54 1161.32 2207.16 1154.29 2203.16 1147.65 2195.23 1133.49 2188.67 1118.61 2183.59 1103.21 2178.32 1087.6 2171.83 1072.44 2164.17 1057.86 2155.7 1043.64 2145.9 1030.24 2134.91 1017.86 2125.67 1007.05 2116.96 996.236 2114.09 988.451 2112.57 984.479 2113.61 979.98 2116.74 977.099 2121.61 972.341 2132.64 969.531 2149.19 975.8 2187.59 990.448 2202.89 1013.64 2208.68 1026.56 2214.16 1039.82 2222.77 1051.55 2233.77 1060.77 2233.23 1070.61 2232.8 1079.32 2232.42 1085.69L2232.42 1085.7C2232.08 1091.65 2236.63 1096.76 2242.58 1097.1L2243.07 1097.1C2248.8 1097.11 2253.54 1092.66 2253.89 1086.94 2253.89 1082.29 2260.38 973.421 2258.86 952.991 2257.13 927.642 2256.1 739.857 2259.3 714.442 2264.12 710.334 2270.21 708.008 2276.55 707.849 2277.85 707.849 2281.31 708.443 2284.44 714.712 2289.36 724.766 2295.26 793.198 2300.02 877.312L2300.02 878.769 2300.02 879.203C2302.62 923.853 2304.89 972.883 2306.67 1019.75L2306.67 1019.75C2306.9 1025.72 2311.92 1030.38 2317.89 1030.15 2323.86 1029.93 2328.53 1024.91 2328.3 1018.94 2327.49 997.315 2325.05 936.396 2321.38 873.747L2321.38 873.742C2321.17 869.172 2323.19 864.784 2326.79 861.961 2334.79 855.639 2349.94 855.639 2357.4 858.013 2369.29 861.85 2370.92 876.932 2370.97 877.526 2370.97 878.501 2380.6 978.017 2381.79 1000.61L2381.79 1000.61C2382.1 1006.35 2386.85 1010.84 2392.6 1010.83L2393.25 1010.83C2399.21 1010.48 2403.75 1005.38 2403.42 999.422 2402.34 980.503 2395.85 911.581 2393.41 885.528 2402.82 884.611 2417.75 885.093 2427.86 895.041 2434.08 901.15 2440.57 923.691 2443.22 937.744L2443.22 938.121 2443.22 938.555C2448.75 961.412 2450.69 984.994 2448.95 1008.45 2448.66 1011.3 2449.52 1014.15 2451.34 1016.37 2453.16 1018.59 2455.78 1020 2458.63 1020.29L2459.71 1020.29C2465.29 1020.31 2469.97 1016.1 2470.53 1010.56 2472.29 988.869 2471.07 967.044 2466.91 945.692 2472.52 945.958 2478.03 947.314 2483.13 949.689 2494.92 955.095 2503.25 965.906 2505.9 1001.58 2506.81 1013.96 2509.52 1032.4 2512.66 1053.75 2518.44 1093.31 2525.69 1142.56 2524.12 1172.67 2521.74 1218.29 2502.98 1288.02 2502.81 1288.73L2502.82 1288.73C2502.02 1291.67 2502.52 1294.82 2504.17 1297.38L2525.8 1331.33 2525.8 1331.32C2529.1 1336.12 2535.61 1337.43 2540.52 1334.3 2545.43 1331.17 2546.98 1324.72 2544.02 1319.7L2524.88 1289.75C2529.2 1273 2543.54 1215.26 2545.7 1173.8 2547.59 1141.48 2540.18 1090.94 2534.24 1050.4Z" fill="#616161" fill-rule="evenodd"/><path d="M1864.8 730.888 2179.18 730.888C2181.79 745.662 2188.92 759.272 2199.6 769.847 2203.82 774.051 2210.66 774.051 2214.88 769.847 2219.1 765.643 2219.1 758.821 2214.88 754.617 2203.55 743.288 2198.14 727.362 2200.22 711.501 2202.31 695.641 2211.65 681.647 2225.52 673.6 2239.4 665.557 2256.22 664.375 2271.09 670.405 2276.61 672.663 2282.92 670.039 2285.19 664.539 2287.45 659.042 2284.82 652.753 2279.3 650.495 2258.11 641.809 2234.06 643.49 2214.3 655.045 2194.53 666.599 2181.32 686.691 2178.59 709.364L1864.8 709.364C1858.84 709.364 1854 714.183 1854 720.126 1854 726.069 1858.84 730.888 1864.8 730.888Z" fill="#616161" fill-rule="evenodd"/><path d="M2340.8 709C2334.84 709 2330 713.926 2330 720 2330 726.075 2334.84 731 2340.8 731L2535.2 731C2541.16 731 2546 726.075 2546 720 2546 713.926 2541.16 709 2535.2 709Z" fill="#616161" fill-rule="evenodd"/><path d="M1929.66 1066C1947.81 1065.98 1965.36 1059.38 1979.08 1047.42 1992.79 1035.46 2001.77 1018.93 2004.36 1000.86L2059.2 1000.86C2065.17 1000.86 2070 995.996 2070 990.001 2070 984.005 2065.17 979.144 2059.2 979.144L2004.36 979.144C2001.59 959.809 1991.52 942.293 1976.24 930.228 1960.97 918.164 1941.66 912.479 1922.33 914.35 1903 916.221 1885.12 925.507 1872.42 940.28 1859.71 955.053 1853.14 974.179 1854.09 993.688 1855.03 1013.2 1863.41 1031.6 1877.48 1045.06 1891.55 1058.53 1910.24 1066.02 1929.66 1066ZM1929.66 935.715C1943.97 935.715 1957.7 941.434 1967.83 951.613 1977.95 961.796 1983.64 975.605 1983.64 990.001 1983.64 1004.4 1977.95 1018.2 1967.83 1028.39 1957.7 1038.57 1943.97 1044.29 1929.66 1044.29 1915.34 1044.29 1901.61 1038.57 1891.49 1028.39 1881.37 1018.21 1875.68 1004.4 1875.68 990.001 1875.68 975.605 1881.37 961.797 1891.49 951.613 1901.61 941.434 1915.34 935.715 1929.66 935.715Z" fill="#616161" fill-rule="evenodd"/><path d="M1864.81 1270.8 2016.95 1270.8C2020.62 1294.82 2035.62 1315.62 2057.26 1326.7 2078.9 1337.77 2104.56 1337.77 2126.2 1326.7 2147.84 1315.62 2162.84 1294.82 2166.51 1270.8L2205.19 1270.8C2211.16 1270.8 2216 1265.96 2216 1260 2216 1254.04 2211.16 1249.2 2205.19 1249.2L2166.51 1249.2C2162.84 1225.18 2147.85 1204.38 2126.2 1193.3 2104.56 1182.23 2078.9 1182.23 2057.26 1193.3 2035.62 1204.38 2020.62 1225.18 2016.95 1249.2L1864.81 1249.2C1858.84 1249.2 1854 1254.04 1854 1260 1854 1265.96 1858.84 1270.8 1864.81 1270.8ZM2091.73 1206C2106.06 1206 2119.8 1211.69 2129.94 1221.81 2140.07 1231.94 2145.76 1245.68 2145.76 1260 2145.76 1274.32 2140.07 1288.05 2129.94 1298.19 2119.8 1308.31 2106.06 1314 2091.73 1314 2077.4 1314 2063.66 1308.31 2053.52 1298.19 2043.39 1288.06 2037.7 1274.32 2037.7 1260 2037.7 1245.68 2043.39 1231.95 2053.52 1221.81 2063.66 1211.69 2077.4 1206 2091.73 1206Z" fill="#616161" fill-rule="evenodd"/></g></svg>