<svg width="524" height="683" xmlns="http://www.w3.org/2000/svg" xmlns:xlink="http://www.w3.org/1999/xlink" xml:space="preserve" overflow="hidden"><defs><clipPath id="clip0"><rect x="1938" y="649" width="524" height="683"/></clipPath></defs><g clip-path="url(#clip0)" transform="translate(-1938 -649)"><path d="M2450.61 1011.78 2390.67 1011.78C2386.97 999.567 2382.13 987.768 2376.22 976.538L2418.57 934.202C2420.71 932.066 2421.91 929.169 2421.91 926.148 2421.91 923.134 2420.71 920.236 2418.57 918.102L2352.04 851.602C2347.59 847.154 2340.38 847.154 2335.93 851.602L2293.58 893.933C2285.53 889.698 2277.03 886.2 2268.35 883.09L2268.35 828.563 2320.86 828.563C2325.2 828.563 2329.16 826.097 2331.09 822.208 2333 818.314 2332.53 813.672 2329.9 810.231L2209.03 653.202C2204.71 647.599 2195.28 647.599 2190.97 653.202L2070.1 810.231C2067.47 813.672 2067 818.314 2068.91 822.208 2070.84 826.102 2074.8 828.563 2079.14 828.563L2131.65 828.563 2131.65 883.09C2122.97 886.196 2114.47 889.698 2106.42 893.928L2064.07 851.597C2059.62 847.148 2052.42 847.148 2047.96 851.597L1981.43 918.097C1979.29 920.232 1978.09 923.129 1978.09 926.148 1978.09 929.169 1979.29 932.066 1981.43 934.202L2023.78 976.538C2017.87 987.768 2013.04 999.567 2009.33 1011.78L1949.39 1011.78C1943.1 1011.78 1938 1016.88 1938 1023.17L1938 1117.01C1938 1123.29 1943.1 1128.39 1949.39 1128.39L2009.33 1128.39C2013.03 1140.61 2017.87 1152.41 2023.78 1163.64L1981.43 1205.97C1979.29 1208.11 1978.09 1211.01 1978.09 1214.03 1978.09 1217.05 1979.29 1219.94 1981.43 1222.08L2047.96 1288.58C2052.41 1293.03 2059.62 1293.03 2064.07 1288.58L2106.42 1246.25C2117.65 1252.15 2129.45 1256.98 2141.68 1260.7L2141.68 1320.61C2141.68 1326.9 2146.77 1332 2153.07 1332L2246.93 1332C2253.23 1332 2258.32 1326.9 2258.32 1320.61L2258.32 1260.7C2270.55 1256.98 2282.35 1252.15 2293.58 1246.25L2335.93 1288.58C2340.38 1293.03 2347.58 1293.03 2352.04 1288.58L2418.57 1222.08C2420.71 1219.94 2421.91 1217.05 2421.91 1214.03 2421.91 1211.01 2420.71 1208.11 2418.57 1205.97L2376.22 1163.64C2382.13 1152.41 2386.96 1140.61 2390.67 1128.39L2450.61 1128.4C2456.9 1128.4 2462 1123.3 2462 1117.01L2462 1023.18C2462 1016.88 2456.9 1011.78 2450.61 1011.78ZM2102.27 805.781 2199.99 678.807 2297.72 805.781 2256.95 805.781C2250.66 805.781 2245.56 810.88 2245.56 817.169L2245.56 958.49C2245.56 959.05 2245.8 959.527 2245.88 960.066 2245.99 960.88 2246.07 961.672 2246.35 962.44 2246.61 963.131 2247.01 963.706 2247.4 964.326 2247.78 964.952 2248.11 965.582 2248.61 966.131 2249.16 966.731 2249.83 967.152 2250.49 967.625 2250.94 967.945 2251.26 968.382 2251.76 968.637 2290.1 988.22 2313.91 1027.09 2313.91 1070.08 2313.91 1107.94 2295.47 1142.56 2264.96 1163.68 2261.72 1153.26 2256.22 1143.53 2248.19 1135.41 2244.93 1132.31 2241.62 1129.59 2238.38 1127.34 2233.89 1124.25 2227.86 1124.74 2223.95 1128.54 2210.87 1141.27 2189.13 1141.27 2176.05 1128.54 2172.18 1124.78 2166.21 1124.25 2161.72 1127.27 2148.81 1136.01 2139.48 1148.92 2134.91 1163.52 2104.46 1142.48 2086.08 1107.93 2086.08 1070.08 2086.08 1027.09 2109.88 988.218 2148.22 968.625 2148.72 968.366 2149.04 967.934 2149.49 967.613 2150.16 967.141 2150.82 966.719 2151.37 966.119 2151.87 965.57 2152.2 964.945 2152.59 964.319 2152.97 963.7 2153.37 963.124 2153.63 962.433 2153.91 961.666 2153.99 960.873 2154.11 960.065 2154.19 959.526 2154.43 959.047 2154.43 958.489L2154.43 817.167C2154.43 810.879 2149.33 805.78 2143.04 805.78ZM2244.51 1174.75C2216.12 1186.72 2183.77 1186.72 2155.52 1174.69 2157.34 1165.85 2161.68 1157.69 2168.11 1151.36 2186.91 1164.14 2213.07 1164.14 2231.89 1151.35 2232 1151.45 2232.11 1151.55 2232.21 1151.66 2238.61 1158.11 2242.78 1166.13 2244.51 1174.75ZM2439.2 1105.62 2382.02 1105.62C2376.83 1105.62 2372.29 1109.14 2370.99 1114.17 2366.85 1130.29 2360.54 1145.67 2352.24 1159.9 2349.64 1164.36 2350.37 1170.03 2354.03 1173.68L2394.39 1214.02 2343.97 1264.42 2303.61 1224.08C2299.95 1220.42 2294.29 1219.68 2289.82 1222.3 2275.61 1230.59 2260.22 1236.89 2244.08 1241.03 2239.05 1242.33 2235.53 1246.86 2235.53 1252.06L2235.53 1309.23 2164.44 1309.23 2164.44 1252.06C2164.44 1246.86 2160.92 1242.33 2155.89 1241.03 2139.75 1236.89 2124.37 1230.59 2110.16 1222.3 2105.69 1219.68 2100.02 1220.42 2096.37 1224.08L2056.01 1264.42 2005.58 1214.02 2045.94 1173.68C2049.6 1170.03 2050.33 1164.36 2047.73 1159.9 2039.43 1145.67 2033.12 1130.29 2028.99 1114.17 2027.68 1109.14 2023.15 1105.62 2017.95 1105.62L1960.77 1105.62 1960.77 1034.56 2017.95 1034.56C2023.15 1034.56 2027.68 1031.04 2028.99 1026.01 2033.12 1009.89 2039.43 994.511 2047.73 980.281 2050.33 975.817 2049.6 970.148 2045.94 966.499L2005.58 926.155 2056.01 875.755 2096.37 916.099C2100.03 919.774 2105.71 920.481 2110.17 917.878 2117.01 913.872 2124.2 910.323 2131.64 907.264L2131.64 951.797C2089.32 976.214 2063.29 1020.87 2063.29 1070.08 2063.29 1121.84 2091.91 1168.48 2137.93 1191.81 2138.04 1191.86 2138.14 1191.89 2138.24 1191.94 2138.3 1191.98 2138.37 1191.99 2138.43 1192.03 2157.59 1201.77 2178.3 1206.73 2199.99 1206.73 2221.56 1206.73 2242.24 1201.82 2261.48 1192.17 2261.54 1192.14 2261.59 1192.12 2261.66 1192.09 2261.77 1192.04 2261.89 1192 2262 1191.94 2308.07 1168.46 2336.68 1121.78 2336.68 1070.08 2336.68 1020.87 2310.65 976.214 2268.33 951.797L2268.33 907.264C2275.77 910.323 2282.96 913.867 2289.8 917.873 2294.26 920.475 2299.94 919.769 2303.61 916.094L2343.97 875.75 2394.39 926.15 2354.04 966.494C2350.37 970.15 2349.64 975.812 2352.25 980.276 2360.54 994.505 2366.85 1009.89 2370.99 1026 2372.29 1031.04 2376.83 1034.55 2382.03 1034.55L2439.2 1034.55Z" fill="#616161" fill-rule="evenodd"/><path d="M2160.14 1098.66C2170.96 1109.2 2185.11 1115 2200 1115 2214.89 1115 2229.04 1109.2 2239.86 1098.66 2250.91 1087.92 2257 1073.48 2257 1058 2257 1026.57 2231.43 1001 2200 1001 2168.57 1001 2143 1026.57 2143 1058 2143 1073.48 2149.09 1087.92 2160.14 1098.66ZM2200 1023.8C2218.86 1023.8 2234.2 1039.14 2234.2 1058 2234.2 1067.26 2230.57 1075.9 2223.97 1082.32 2210.88 1095.07 2189.12 1095.07 2176.03 1082.32 2169.43 1075.9 2165.8 1067.26 2165.8 1058 2165.8 1039.14 2181.14 1023.8 2200 1023.8Z" fill="#616161" fill-rule="evenodd"/></g></svg>