<svg width="282" height="478" xmlns="http://www.w3.org/2000/svg" xmlns:xlink="http://www.w3.org/1999/xlink" xml:space="preserve" overflow="hidden"><defs><clipPath id="clip0"><rect x="2057" y="749" width="282" height="478"/></clipPath></defs><g clip-path="url(#clip0)" transform="translate(-2057 -749)"><path d="M2300.23 749 2095.77 749C2085.49 749 2075.63 753.097 2068.35 760.386 2061.09 767.678 2057 777.565 2057 787.873L2057 1188.13C2057 1198.43 2061.09 1208.32 2068.35 1215.61 2075.63 1222.9 2085.49 1227 2095.77 1227L2300.23 1227C2310.51 1227 2320.37 1222.9 2327.65 1215.61 2334.91 1208.32 2339 1198.43 2339 1188.13L2339 787.873C2339 777.565 2334.91 767.678 2327.65 760.386 2320.37 753.097 2310.51 749 2300.23 749ZM2323.95 1188.85C2323.89 1194.95 2321.45 1200.78 2317.15 1205.09 2312.85 1209.4 2307.04 1211.85 2300.96 1211.91L2096.04 1211.91C2089.96 1211.85 2084.15 1209.4 2079.85 1205.09 2075.55 1200.78 2073.11 1194.95 2073.06 1188.85L2073.06 1135.43 2323.95 1135.43ZM2323.95 1119.33 2073.05 1119.33 2073.05 842.589 2323.95 842.589ZM2323.95 826.488 2073.05 826.488 2073.05 788.154C2073.11 782.059 2075.55 776.229 2079.85 771.92 2084.14 767.61 2089.95 765.159 2096.03 765.102L2300.96 765.102C2307.04 765.159 2312.85 767.611 2317.15 771.92 2321.44 776.229 2323.88 782.059 2323.94 788.154Z" fill="#616161" fill-rule="evenodd"/><path d="M2231.94 785 2165.06 785C2160.61 785 2157 788.582 2157 793 2157 797.418 2160.61 801 2165.06 801L2231.94 801C2236.39 801 2240 797.418 2240 793 2240 788.582 2236.39 785 2231.94 785Z" fill="#616161" fill-rule="evenodd"/><path d="M2198.5 1202C2206.06 1202 2213.31 1199 2218.65 1193.65 2223.99 1188.31 2227 1181.06 2227 1173.5 2227 1165.94 2223.99 1158.69 2218.65 1153.35 2213.31 1148 2206.06 1145 2198.5 1145 2190.94 1145 2183.69 1148 2178.35 1153.35 2173.01 1158.69 2170 1165.94 2170 1173.5 2170.01 1181.06 2173.02 1188.3 2178.36 1193.64 2183.7 1198.98 2190.94 1201.99 2198.5 1202ZM2198.5 1161.05C2203.54 1161.05 2208.08 1164.08 2210.01 1168.73 2211.93 1173.39 2210.87 1178.74 2207.31 1182.31 2203.74 1185.87 2198.39 1186.94 2193.73 1185.01 2189.08 1183.08 2186.04 1178.54 2186.04 1173.5 2186.06 1166.62 2191.62 1161.05 2198.5 1161.05Z" fill="#616161" fill-rule="evenodd"/><path d="M2100.03 1059 2296.96 1059C2299.09 1059 2301.14 1058.15 2302.65 1056.64 2304.15 1055.13 2305 1053.08 2305 1050.95L2305 1018.75C2305 1016.61 2304.15 1014.56 2302.65 1013.05 2301.14 1011.54 2299.09 1010.7 2296.96 1010.7L2296.94 1010.7C2295.23 991.224 2287.8 972.693 2275.59 957.439 2263.39 942.186 2246.94 930.891 2228.34 924.982L2228.05 922.908C2227.18 916.55 2224.03 910.724 2219.2 906.509 2214.37 902.297 2208.17 899.985 2201.77 900L2196.15 900 2196.16 900C2189.75 899.985 2183.55 902.297 2178.72 906.512 2173.89 910.724 2170.75 916.55 2169.88 922.908L2169.59 925.057 2169.59 925.054C2150.99 930.959 2134.56 942.244 2122.35 957.483 2110.15 972.721 2102.72 991.235 2101 1010.7L2100.04 1010.7C2095.6 1010.7 2092 1014.3 2092 1018.75L2092 1050.95C2092 1053.08 2092.85 1055.13 2094.35 1056.64 2095.86 1058.15 2097.91 1059 2100.04 1059ZM2241.82 969.321 2242.92 949.436C2250.8 954.468 2257.78 960.797 2263.55 968.154 2273.22 980.405 2279.19 995.162 2280.79 1010.7L2215.55 1010.7C2221.75 1006.26 2225.93 999.519 2227.15 991.978 2235.7 987.557 2241.28 978.939 2241.82 969.321ZM2178.81 939.095C2182 938.29 2184.38 935.616 2184.82 932.345L2185.81 925.024C2186.52 919.87 2190.95 916.046 2196.15 916.1L2201.76 916.1 2201.76 916.1C2206.96 916.046 2211.39 919.871 2212.1 925.024L2213.09 932.417 2213.09 932.421C2213.53 935.681 2215.91 938.344 2219.1 939.131 2221.86 939.828 2224.59 940.669 2227.26 941.657L2225.77 968.415C2225.66 970.321 2225.06 972.164 2224.04 973.774 2220.81 967.811 2215.56 963.197 2209.24 960.754 2202.93 958.309 2195.95 958.194 2189.55 960.43 2183.16 962.665 2177.77 967.104 2174.34 972.955 2173.59 971.546 2173.16 969.997 2173.06 968.405L2171.49 941.334C2173.89 940.475 2176.33 939.717 2178.81 939.095ZM2211.44 987.435C2211.44 992.492 2208.4 997.052 2203.73 998.99 2199.07 1000.92 2193.69 999.853 2190.12 996.277 2186.55 992.7 2185.49 987.323 2187.42 982.651 2189.35 977.976 2193.9 974.931 2198.96 974.931 2205.85 974.938 2211.43 980.531 2211.44 987.435ZM2134.36 968.181 2134.36 968.181C2140.34 960.558 2147.61 954.039 2155.83 948.917L2157.01 969.334 2157.01 969.338C2157.58 978.524 2162.71 986.816 2170.68 991.416 2171.77 999.172 2176 1006.14 2182.36 1010.69L2117.13 1010.69C2118.73 995.175 2124.71 980.428 2134.36 968.18ZM2108.07 1026.8 2288.92 1026.8 2288.92 1042.9 2108.07 1042.9Z" fill="#616161" fill-rule="evenodd"/></g></svg>