<svg width="492" height="402" xmlns="http://www.w3.org/2000/svg" xmlns:xlink="http://www.w3.org/1999/xlink" xml:space="preserve" overflow="hidden"><defs><clipPath id="clip0"><rect x="1954" y="789" width="492" height="402"/></clipPath></defs><g clip-path="url(#clip0)" transform="translate(-1954 -789)"><path d="M2435.53 891 1964.47 891C1958.69 891 1954 886.301 1954 880.5 1954 874.703 1958.69 870 1964.47 870L2435.53 870C2441.31 870 2446 874.699 2446 880.5 2446 886.301 2441.31 891 2435.53 891Z" fill="#616161" fill-rule="evenodd"/><path d="M2032.61 851 2017.39 851C2011.65 851 2007 846.301 2007 840.5 2007 834.703 2011.65 830 2017.39 830L2032.61 830C2038.35 830 2043 834.699 2043 840.5 2043 846.297 2038.35 851 2032.61 851Z" fill="#616161" fill-rule="evenodd"/><path d="M2083.61 851 2068.39 851C2062.65 851 2058 846.301 2058 840.5 2058 834.703 2062.65 830 2068.39 830L2083.61 830C2089.35 830 2094 834.699 2094 840.5 2094 846.297 2089.35 851 2083.61 851Z" fill="#616161" fill-rule="evenodd"/><path d="M2134.33 851 2118.67 851C2112.78 851 2108 846.301 2108 840.5 2108 834.703 2112.78 830 2118.67 830L2134.33 830C2140.22 830 2145 834.699 2145 840.5 2145 846.297 2140.22 851 2134.33 851Z" fill="#616161" fill-rule="evenodd"/><path d="M2233.54 964 2017.46 964C2011.69 964 2007 959.301 2007 953.5 2007 947.703 2011.68 943 2017.46 943L2233.54 943C2239.31 943 2244 947.699 2244 953.5 2244 959.297 2239.31 964 2233.54 964Z" fill="#616161" fill-rule="evenodd"/><path d="M2079.51 1033 2017.49 1033C2011.7 1033 2007 1028.3 2007 1022.5 2007 1016.7 2011.7 1012 2017.49 1012L2079.51 1012C2085.3 1012 2090 1016.7 2090 1022.5 2090 1028.3 2085.3 1033 2079.51 1033Z" fill="#616161" fill-rule="evenodd"/><path d="M2233.55 1033 2156.45 1033C2150.68 1033 2146 1028.3 2146 1022.5 2146 1016.7 2150.68 1012 2156.45 1012L2233.55 1012C2239.32 1012 2244 1016.7 2244 1022.5 2244 1028.3 2239.32 1033 2233.55 1033Z" fill="#616161" fill-rule="evenodd"/><path d="M2180.56 1102 2017.44 1102C2011.68 1102 2007 1097.3 2007 1091.5 2007 1085.7 2011.67 1081 2017.44 1081L2180.56 1081C2186.32 1081 2191 1085.7 2191 1091.5 2191 1097.3 2186.32 1102 2180.56 1102Z" fill="#616161" fill-rule="evenodd"/><path d="M2309.5 891C2303.7 891 2299 886.302 2299 880.502L2299 799.498C2299 793.702 2303.7 789 2309.5 789 2315.3 789 2320 793.698 2320 799.498L2320 880.502C2320 886.302 2315.3 891 2309.5 891Z" fill="#616161" fill-rule="evenodd"/><path d="M2398.9 1191 2001.11 1191C1975.13 1191 1954 1169.83 1954 1143.82L1954 836.185C1954 810.168 1975.13 789 2001.11 789L2398.89 789C2424.86 789 2446 810.168 2446 836.185L2446 1143.81C2446 1169.83 2424.87 1190.99 2398.89 1190.99ZM2001.11 809.968C1986.68 809.968 1974.94 821.728 1974.94 836.184L1974.94 1143.81C1974.94 1158.26 1986.68 1170.02 2001.11 1170.02L2398.89 1170.02C2413.32 1170.02 2425.06 1158.26 2425.06 1143.81L2425.06 836.184C2425.06 821.729 2413.32 809.968 2398.89 809.968Z" fill="#616161" fill-rule="evenodd"/></g></svg>