<svg width="1117" height="1072" xmlns="http://www.w3.org/2000/svg" xmlns:xlink="http://www.w3.org/1999/xlink" xml:space="preserve" overflow="hidden"><defs><clipPath id="clip0"><rect x="1643" y="421" width="1117" height="1072"/></clipPath></defs><g clip-path="url(#clip0)" transform="translate(-1643 -421)"><path d="M1691.39 655C1685.1 655 1680 649.913 1680 643.621L1680 610.674C1680.02 596.403 1685.7 582.725 1695.8 572.64 1705.89 562.554 1719.58 556.874 1733.86 556.857L1799.25 555.898 1814.28 505.56 1814.28 505.568C1814.27 505.454 1814.27 505.34 1814.28 505.226 1825.39 471.89 1852.24 455 1893.99 455L2167.8 455C2206.08 455 2231.57 471.791 2243.61 504.925 2243.68 505.079 2243.73 505.225 2243.77 505.38L2259.72 555.808 2372.61 556.101 2372.61 556.109C2378.9 556.109 2384 561.196 2384 567.487 2384 573.769 2378.9 578.865 2372.61 578.865L2251.43 578.572 2251.43 578.564C2246.47 578.556 2242.08 575.346 2240.59 570.624L2222.14 512.483C2213.35 488.476 2196.52 477.757 2167.8 477.757L1894.2 477.757C1862.45 477.757 1843.95 488.729 1836.06 512.257L1818.7 570.422C1817.27 575.185 1812.92 578.476 1807.95 578.541L1734.02 579.614 1734.03 579.614C1725.75 579.589 1717.82 582.849 1711.96 588.676 1706.09 594.503 1702.79 602.418 1702.78 610.676L1702.78 643.624C1702.78 646.647 1701.58 649.539 1699.44 651.669 1697.3 653.806 1694.41 655 1691.39 655Z" fill="#616161" fill-rule="evenodd"/><path d="M1673.38 737.998C1667.09 737.998 1662 732.889 1662 726.589L1662 680.043C1662 664.91 1667.99 650.405 1678.66 639.706 1689.32 629.006 1703.79 623 1718.88 623L2363.62 623C2369.91 623 2375 628.111 2375 634.409 2375 640.709 2369.91 645.818 2363.62 645.818L1718.88 645.818C1709.82 645.818 1701.15 649.421 1694.74 655.842 1688.34 662.263 1684.75 670.966 1684.75 680.045L1684.75 726.591C1684.75 729.614 1683.56 732.514 1681.42 734.658 1679.28 736.801 1676.39 738 1673.37 738Z" fill="#616161" fill-rule="evenodd"/><path d="M2703.13 1493 1699.87 1493C1684.79 1493 1670.32 1487.01 1659.66 1476.35 1648.99 1465.68 1643 1451.22 1643 1436.14L1643 762.865C1643 747.779 1648.99 733.32 1659.66 722.654 1670.32 711.987 1684.79 706 1699.87 706L2385.04 706C2391.32 706 2396.41 711.095 2396.41 717.373 2396.41 723.654 2391.32 728.747 2385.04 728.747L1699.87 728.747C1690.82 728.747 1682.15 732.338 1675.74 738.739 1669.34 745.14 1665.75 753.816 1665.75 762.867L1665.75 1436.14C1665.75 1445.19 1669.34 1453.86 1675.74 1460.27 1682.14 1466.67 1690.82 1470.26 1699.87 1470.26L2703.13 1470.26C2712.18 1470.26 2720.85 1466.67 2727.26 1460.27 2733.66 1453.86 2737.25 1445.19 2737.25 1436.14L2737.25 762.867C2737.24 756.578 2735.5 750.42 2732.21 745.059 2728.92 739.698 2724.22 735.352 2718.62 732.5 2713.03 729.616 2710.84 722.753 2713.73 717.172 2716.61 711.584 2723.48 709.398 2729.06 712.28 2738.37 717.049 2746.19 724.296 2751.65 733.222 2757.11 742.142 2760 752.402 2760 762.865L2760 1436.14C2760 1451.22 2754.01 1465.68 2743.34 1476.35 2732.68 1487.01 2718.21 1493 2703.13 1493Z" fill="#616161" fill-rule="evenodd"/><path d="M2198.94 1383C2143.67 1383.03 2089.6 1366.79 2043.47 1336.29 1997.34 1305.78 1961.19 1262.38 1939.5 1211.46 1937.46 1206.61 1935.47 1201.6 1933.67 1196.58 1932.65 1193.74 1932.8 1190.61 1934.08 1187.87 1935.37 1185.13 1937.68 1183.02 1940.53 1182 1946.44 1179.86 1952.95 1182.93 1955.09 1188.86 1956.75 1193.42 1958.55 1197.97 1960.46 1202.53L1960.46 1202.53C1991.77 1276.25 2055.37 1331.32 2132.74 1351.69 2210.11 1372.06 2292.53 1355.44 2356 1306.68 2419.47 1257.92 2456.85 1182.5 2457.24 1102.4 2457.24 1096.09 2462.33 1091 2468.62 1091 2471.64 1091 2474.53 1092.2 2476.67 1094.34 2478.8 1096.47 2480 1099.37 2480 1102.4 2479.65 1176.85 2449.89 1248.15 2397.24 1300.72 2344.58 1353.3 2273.3 1382.88 2198.94 1383Z" fill="#616161" fill-rule="evenodd"/><path d="M1912.33 1302C1908.81 1302.01 1905.47 1300.35 1903.33 1297.52 1901.19 1294.7 1900.47 1291.02 1901.4 1287.59L1929.49 1183.42C1930.28 1180.5 1932.19 1178.01 1934.79 1176.5 1937.4 1175 1940.49 1174.6 1943.39 1175.4L2046.66 1203.74 2046.65 1203.74C2052.69 1205.39 2056.25 1211.67 2054.6 1217.75 2052.96 1223.84 2046.73 1227.42 2040.7 1225.77L1948.44 1200.45 1923.31 1293.58C1921.97 1298.57 1917.46 1302.02 1912.33 1302Z" fill="#616161" fill-rule="evenodd"/><path d="M2452.56 1024C2451.22 1024.01 2449.89 1023.77 2448.64 1023.29L2347.48 986.247C2344.64 985.213 2342.33 983.089 2341.06 980.344 2339.79 977.601 2339.65 974.466 2340.7 971.626 2342.86 965.715 2349.41 962.678 2355.31 964.844L2445.76 997.964 2478.87 907.488 2478.88 907.488C2481.05 901.577 2487.6 898.532 2493.51 900.698 2499.42 902.863 2502.47 909.416 2500.3 915.335L2463.25 1016.53C2461.6 1021.01 2457.34 1024 2452.56 1024Z" fill="#616161" fill-rule="evenodd"/><path d="M1928.36 1112C1922.08 1112 1917 1106.92 1917 1100.64 1917.43 1013.75 1958.03 931.941 2026.98 879.055 2095.93 826.16 2185.46 808.144 2269.49 830.242 2353.53 852.341 2422.63 912.068 2456.64 992.026 2458.64 996.75 2460.55 1001.54 2462.27 1006.29L2462.27 1006.3C2463.35 1009.14 2463.22 1012.29 2461.96 1015.05 2460.68 1017.8 2458.36 1019.93 2455.51 1020.97 2452.66 1022 2449.51 1021.86 2446.77 1020.56 2444.03 1019.25 2441.92 1016.92 2440.91 1014.05 2439.32 1009.68 2437.57 1005.28 2435.74 1000.94 2404.48 927.437 2340.97 872.53 2263.72 852.218 2186.48 831.906 2104.18 848.47 2040.8 897.079 1977.43 945.696 1940.11 1020.88 1939.72 1100.75 1939.65 1106.99 1934.58 1112 1928.36 1112Z" fill="#616161" fill-rule="evenodd"/><path d="M2556.5 829C2502.53 829 2450.77 807.51 2412.6 769.249 2374.44 730.988 2353 679.102 2353 625 2353 570.899 2374.44 519.012 2412.6 480.751 2450.77 442.49 2502.53 421 2556.5 421 2610.47 421 2662.23 442.49 2700.4 480.751 2738.56 519.012 2760 570.899 2760 625 2759.94 679.085 2738.48 730.94 2700.33 769.185 2662.18 807.429 2610.45 828.944 2556.5 829ZM2556.5 443.803C2508.56 443.803 2462.58 462.892 2428.68 496.879 2394.78 530.858 2375.74 576.948 2375.74 625.008 2375.74 673.069 2394.78 719.161 2428.68 753.138 2462.58 787.125 2508.56 806.214 2556.5 806.214 2604.44 806.214 2650.42 787.125 2684.32 753.138 2718.22 719.159 2737.26 673.069 2737.26 625.008 2737.21 576.963 2718.15 530.905 2684.26 496.935 2650.37 462.965 2604.43 443.859 2556.5 443.803Z" fill="#616161" fill-rule="evenodd"/><path d="M2556 636C2549.93 636 2545 630.91 2545 624.633L2545 489.367C2545 483.091 2549.93 478 2556 478 2562.07 478 2567 483.091 2567 489.367L2567 624.633C2567 627.644 2565.85 630.536 2563.78 632.67 2561.71 634.807 2558.91 636 2556 636Z" fill="#616161" fill-rule="evenodd"/><path d="M2657.7 696C2655.69 696.016 2653.71 695.478 2651.98 694.45L2550.11 634.954C2545.08 631.617 2543.51 624.937 2546.53 619.699 2549.56 614.471 2556.12 612.506 2561.5 615.214L2663.34 674.711C2667.79 677.313 2669.95 682.581 2668.6 687.557 2667.26 692.542 2662.75 696 2657.61 696Z" fill="#616161" fill-rule="evenodd"/></g></svg>