<svg width="566" height="754" xmlns="http://www.w3.org/2000/svg" xmlns:xlink="http://www.w3.org/1999/xlink" xml:space="preserve" overflow="hidden"><defs><clipPath id="clip0"><rect x="1917" y="613" width="566" height="754"/></clipPath></defs><g clip-path="url(#clip0)" transform="translate(-1917 -613)"><path d="M2108.89 1016.92 2099.75 1009 2092.04 1018.33 2046.75 1073.23 2033.48 1060.36 2024.79 1051.93 2016.58 1060.81 2001.78 1076.84 1994 1085.26 2002.24 1093.25 2041.23 1131.08 2050.42 1140 2058.56 1130.13 2126.7 1047.53 2134 1038.69 2125.33 1031.17ZM2049.45 1122.65 2010.46 1084.82 2025.26 1068.8 2047.72 1090.58 2101.15 1025.81 2117.6 1040.06Z" fill="#616161" fill-rule="evenodd"/><path d="M2160 1048 2406 1048 2406 1060 2160 1060Z" fill="#616161" fill-rule="evenodd"/><path d="M2160 1089 2406 1089 2406 1101 2160 1101Z" fill="#616161" fill-rule="evenodd"/><path d="M2108.89 1166.92 2099.75 1159 2092.04 1168.33 2046.75 1223.23 2033.48 1210.36 2024.79 1201.93 2016.58 1210.81 2001.78 1226.84 1994 1235.26 2002.24 1243.25 2041.23 1281.08 2050.42 1290 2058.56 1280.13 2126.7 1197.53 2134 1188.69 2125.33 1181.17ZM2049.45 1272.65 2010.46 1234.82 2025.26 1218.8 2047.72 1240.58 2101.15 1175.81 2117.6 1190.06Z" fill="#616161" fill-rule="evenodd"/><path d="M2160 1198 2406 1198 2406 1209 2160 1209Z" fill="#616161" fill-rule="evenodd"/><path d="M2160 1239 2406 1239 2406 1251 2160 1251Z" fill="#616161" fill-rule="evenodd"/><path d="M2426.77 613.004 1973.24 613.004C1942.17 613.004 1917 638.155 1917 669.19L1917 1310.82C1917 1341.85 1942.17 1367 1973.24 1367L2426.77 1367C2457.83 1367 2483 1341.85 2483 1310.81L2483 669.186C2483 638.15 2457.83 613 2426.76 613ZM2471.21 1310.82C2471.21 1335.3 2451.27 1355.22 2426.77 1355.22L1973.24 1355.22C1948.73 1355.22 1928.79 1335.3 1928.79 1310.82L1928.79 669.19C1928.79 644.707 1948.73 624.785 1973.24 624.785L2426.77 624.785C2451.27 624.785 2471.21 644.708 2471.21 669.19Z" fill="#616161" fill-rule="evenodd"/><path d="M2200 805C2232.59 805 2259 778.587 2259 745.997 2259 713.408 2232.59 687 2200 687 2167.41 687 2141 713.414 2141 746.003 2141 778.592 2167.41 805 2200 805ZM2200 698.812C2226.02 698.812 2247.19 719.98 2247.19 746.003 2247.19 772.021 2226.02 793.188 2200 793.188 2173.98 793.188 2152.81 772.021 2152.81 745.997 2152.81 719.98 2173.98 698.812 2200 698.812Z" fill="#616161" fill-rule="evenodd"/><path d="M2140.39 819C2140.39 819 2081 819.798 2081 874.546L2081 942 2197 942ZM2092.74 874.546C2092.74 841.699 2119.52 833.486 2133.2 831.438L2178.68 930.244 2092.74 930.244Z" fill="#616161" fill-rule="evenodd"/><path d="M2319 942 2319 874.546C2319 819.787 2259.61 819 2259.61 819L2203 942ZM2266.81 831.438C2280.49 833.495 2307.27 841.714 2307.27 874.546L2307.27 930.244 2221.33 930.244Z" fill="#616161" fill-rule="evenodd"/><path d="M2200 825.004 2164 825.004 2200 903 2236 825ZM2182.51 836.7 2217.49 836.7 2200 874.591Z" fill="#616161" fill-rule="evenodd"/></g></svg>