<svg width="515" height="565" xmlns="http://www.w3.org/2000/svg" xmlns:xlink="http://www.w3.org/1999/xlink" xml:space="preserve" overflow="hidden"><defs><clipPath id="clip0"><rect x="1942" y="707" width="516" height="566"/></clipPath></defs><g clip-path="url(#clip0)" transform="translate(-1942 -707)"><path d="M2200.02 707.008C2130.15 707.008 2067 718.814 2020.48 738.552 1997.22 748.42 1978.07 760.265 1964.29 774.135 1950.5 788.007 1942 804.448 1942 822.125L1942 1157.95C1942 1164.22 1943.1 1170.32 1945.1 1176.23 1945.21 1176.55 1945.29 1176.88 1945.4 1177.2 1945.41 1177.21 1945.42 1177.22 1945.42 1177.23 1955.35 1205.68 1986.01 1227.98 2027.46 1244.3 2030.98 1245.69 2034.61 1247.01 2038.28 1248.31 2038.42 1248.36 2038.55 1248.41 2038.68 1248.46 2044.86 1250.62 2051.26 1252.64 2057.87 1254.54 2058.3 1254.67 2058.73 1254.8 2059.17 1254.93 2062.12 1255.77 2065.12 1256.58 2068.16 1257.36 2068.56 1257.47 2068.96 1257.57 2069.36 1257.67 2072.5 1258.47 2075.68 1259.25 2078.91 1260 2079.18 1260.06 2079.45 1260.13 2079.72 1260.19 2086.8 1261.8 2094.05 1263.28 2101.5 1264.61 2101.68 1264.64 2101.86 1264.67 2102.05 1264.7 2105.06 1265.24 2108.11 1265.75 2111.18 1266.23 2112.2 1266.39 2113.22 1266.55 2114.26 1266.7 2116.93 1267.11 2119.63 1267.5 2122.34 1267.87 2123.53 1268.03 2124.7 1268.19 2125.89 1268.34 2128.8 1268.72 2131.73 1269.06 2134.68 1269.39 2135.67 1269.5 2136.67 1269.61 2137.67 1269.72 2139.93 1269.96 2142.2 1270.19 2144.49 1270.4 2146.62 1270.6 2148.74 1270.8 2150.88 1270.97 2152.19 1271.08 2153.52 1271.18 2154.84 1271.28 2157.37 1271.47 2159.9 1271.67 2162.46 1271.83 2165.38 1272.01 2168.34 1272.15 2171.29 1272.29 2172.36 1272.34 2173.41 1272.42 2174.48 1272.46 2182.89 1272.81 2191.4 1273 2200.03 1273 2212.79 1273 2225.33 1272.6 2237.59 1271.84 2243.6 1271.46 2249.54 1270.96 2255.41 1270.41 2257.79 1270.18 2260.18 1269.97 2262.54 1269.72 2263.35 1269.64 2264.16 1269.53 2264.97 1269.44 2268.15 1269.08 2271.31 1268.72 2274.44 1268.31 2275.32 1268.2 2276.19 1268.09 2277.07 1267.97 2280.07 1267.56 2283.05 1267.14 2286.01 1266.69 2286.85 1266.56 2287.69 1266.43 2288.54 1266.29 2291.91 1265.76 2295.24 1265.2 2298.54 1264.61 2298.55 1264.61 2298.56 1264.62 2298.57 1264.61 2325.92 1259.73 2350.92 1252.86 2372.61 1244.32 2418.37 1226.3 2450.98 1200.98 2457.07 1168.18L2457.03 1168.18C2457.66 1164.82 2458 1161.42 2458 1157.96L2458 822.117C2458 818.872 2457.71 815.661 2457.16 812.512L2457.16 812.512C2457.09 811.959 2456.98 811.409 2456.82 810.874 2454.06 797.477 2446.52 785.013 2435.71 774.128 2421.92 760.256 2402.77 748.411 2379.51 738.545 2332.99 718.811 2269.9 707 2200.03 707ZM2200.02 726.525C2267.68 726.525 2328.65 738.221 2371.88 756.562 2393.49 765.733 2410.64 776.55 2421.92 787.898 2430.43 796.464 2435.55 805.045 2437.55 813.684 2432.45 834.708 2407.01 857.073 2365.49 873.415 2322.74 890.244 2264.38 900.786 2200.02 900.786 2135.66 900.786 2077.32 890.249 2034.57 873.415 1992.94 857.027 1967.47 834.587 1962.47 813.51L1962.47 813.492C1964.5 804.919 1969.62 796.398 1978.07 787.895 1989.34 776.55 2006.49 765.729 2028.1 756.559 2071.33 738.218 2132.36 726.521 2200.02 726.521ZM1961.46 850.405C1976.55 866.86 1999.55 880.574 2027.45 891.556 2073.21 909.569 2133.55 920.221 2200.01 920.221 2266.48 920.221 2326.84 909.569 2372.6 891.556 2400.44 880.595 2423.41 866.915 2438.51 850.501L2438.51 927.805 2438.51 927.81C2438.27 928.337 2438.08 928.886 2437.94 929.448 2433.94 951.008 2408.23 974.14 2365.48 990.974 2322.73 1007.8 2264.37 1018.34 2200.01 1018.34 2135.65 1018.34 2077.31 1007.8 2034.55 990.974 1991.8 974.14 1966.1 951.008 1962.1 929.448 1961.95 928.807 1961.73 928.18 1961.45 927.579ZM2016.89 922.965 2016.89 922.97C2010.53 922.995 2005.37 928.153 2005.35 934.518 2005.33 940.913 2010.5 946.114 2016.89 946.146 2019.98 946.154 2022.95 944.934 2025.13 942.752 2027.32 940.569 2028.54 937.607 2028.53 934.518 2028.52 931.442 2027.29 928.498 2025.11 926.332 2022.92 924.167 2019.97 922.956 2016.89 922.97ZM1961.46 967.963C1976.55 984.417 1999.55 998.131 2027.45 1009.11 2073.21 1027.13 2133.55 1037.86 2200.01 1037.86 2266.48 1037.86 2326.84 1027.13 2372.6 1009.11 2400.44 998.152 2423.41 984.473 2438.51 968.059L2438.51 1043.8 2438.51 1043.8C2437.89 1044.78 2437.45 1045.87 2437.22 1047.01 2433.22 1068.57 2407.59 1091.7 2364.84 1108.53 2322.08 1125.36 2263.72 1135.89 2199.36 1135.89 2136.69 1135.89 2079.71 1125.89 2037.29 1109.82 1994.87 1093.75 1968.15 1071.38 1962.25 1050.39L1962.25 1050.4C1962.04 1049.8 1961.77 1049.23 1961.45 1048.68ZM2016.89 1039.13 2016.89 1039.13C2010.53 1039.16 2005.37 1044.32 2005.35 1050.68 2005.33 1057.08 2010.5 1062.28 2016.89 1062.31 2019.98 1062.32 2022.95 1061.1 2025.13 1058.92 2027.32 1056.74 2028.54 1053.77 2028.53 1050.68 2028.52 1047.61 2027.29 1044.67 2025.11 1042.5 2022.92 1040.33 2019.97 1039.12 2016.89 1039.13ZM2438.51 1084.97 2438.51 1157.95C2438.51 1161.23 2438.06 1164.51 2437.18 1167.76 2433.1 1182.25 2419.44 1197.28 2397.61 1210.5 2397.32 1210.67 2397.04 1210.84 2396.75 1211.01 2395.65 1211.67 2394.53 1212.33 2393.39 1212.97 2386.83 1216.66 2379.66 1220.2 2371.88 1223.5 2355.67 1230.37 2336.97 1236.33 2316.35 1241.07 2316.04 1241.14 2315.73 1241.21 2315.42 1241.28 2312.28 1241.99 2309.12 1242.68 2305.89 1243.33 2305.72 1243.37 2305.56 1243.4 2305.39 1243.43 2302.01 1244.12 2298.6 1244.77 2295.12 1245.4 2294.99 1245.42 2294.86 1245.45 2294.72 1245.47 2291.22 1246.1 2287.65 1246.69 2284.06 1247.25 2283.83 1247.28 2283.6 1247.31 2283.37 1247.34 2280.44 1247.8 2277.48 1248.21 2274.49 1248.62 2273.6 1248.74 2272.71 1248.87 2271.81 1248.98 2268.59 1249.4 2265.35 1249.78 2262.07 1250.14 2261.68 1250.19 2261.29 1250.24 2260.9 1250.27 2257.51 1250.65 2254.1 1250.98 2250.66 1251.29 2250.08 1251.34 2249.5 1251.41 2248.91 1251.46 2246.01 1251.71 2243.08 1251.92 2240.14 1252.13 2238.93 1252.21 2237.74 1252.3 2236.53 1252.37 2233.59 1252.56 2230.61 1252.73 2227.63 1252.87 2226.77 1252.91 2225.92 1252.97 2225.06 1253 2216.83 1253.35 2208.47 1253.54 2200.01 1253.54 2191.65 1253.54 2183.39 1253.35 2175.25 1253 2175.17 1253 2175.07 1253.01 2174.99 1253 2171.11 1252.84 2167.26 1252.61 2163.45 1252.37 2162.35 1252.3 2161.28 1252.22 2160.19 1252.14 2145.29 1251.11 2130.86 1249.51 2117.04 1247.4 2116.07 1247.25 2115.11 1247.09 2114.14 1246.94 2111.35 1246.49 2108.56 1246.03 2105.82 1245.55 2105.14 1245.43 2104.47 1245.31 2103.79 1245.19 2100.85 1244.65 2097.94 1244.09 2095.06 1243.51 2094.33 1243.36 2093.6 1243.22 2092.88 1243.07 2090.3 1242.54 2087.75 1241.98 2085.23 1241.41 2084.24 1241.19 2083.26 1240.97 2082.28 1240.74 2062.2 1236.05 2043.95 1230.21 2028.1 1223.49 2025.69 1222.47 2023.35 1221.43 2021.05 1220.36 2020.48 1220.1 2019.9 1219.83 2019.33 1219.56 2017.63 1218.76 2015.98 1217.91 2014.33 1217.08 1983.73 1201.51 1965.43 1182.47 1962.1 1164.56L1962.06 1164.56C1961.67 1162.36 1961.46 1160.16 1961.46 1157.95L1961.46 1086.32C1977.19 1103.18 2001.19 1117.06 2030.39 1128.12 2075.69 1145.28 2134.64 1155.41 2199.36 1155.41 2265.82 1155.41 2326.19 1144.68 2371.94 1126.67 2400.19 1115.56 2423.42 1101.68 2438.51 1084.97ZM2016.89 1161.34C2010.53 1161.37 2005.37 1166.53 2005.35 1172.89 2005.33 1179.29 2010.5 1184.49 2016.89 1184.52 2019.98 1184.53 2022.95 1183.31 2025.13 1181.12 2027.32 1178.94 2028.54 1175.98 2028.53 1172.89 2028.52 1169.81 2027.29 1166.87 2025.11 1164.7 2022.92 1162.54 2019.97 1161.33 2016.89 1161.34Z" fill="#616161" fill-rule="evenodd"/></g></svg>