<svg width="796" height="796" xmlns="http://www.w3.org/2000/svg" xmlns:xlink="http://www.w3.org/1999/xlink" xml:space="preserve" overflow="hidden"><defs><clipPath id="clip0"><rect x="1802" y="592" width="796" height="796"/></clipPath></defs><g clip-path="url(#clip0)" transform="translate(-1802 -592)"><path d="M2587.77 1158.59 2548.1 1142.14C2545.85 1135.62 2543.19 1129.24 2540.15 1123.05L2556.6 1083.43C2559.17 1077.22 2557.75 1070.09 2553 1065.35L2527.96 1040.3C2523.21 1035.55 2516.08 1034.15 2509.88 1036.71L2470.26 1053.15C2463.99 1050.08 2457.6 1047.45 2451.13 1045.27L2434.72 1005.56C2432.15 999.361 2426.1 995.312 2419.39 995.312L2383.9 995.312C2377.19 995.312 2371.14 999.361 2368.57 1005.56L2356.09 1035.75 2356.09 721.993C2356.09 721.806 2356.15 721.636 2356.15 721.452 2356.15 648.859 2234.47 592 2079.13 592 1924.06 592 1802.56 648.674 1802.15 721.087 1802.15 721.24 1802.06 721.361 1802.06 721.516L1802.06 900.207C1802.06 900.311 1802 900.392 1802 900.489 1802 900.676 1802.06 900.846 1802.06 901.032L1802.06 1258.48C1802.06 1331.11 1923.7 1388 2079 1388 2157.7 1388 2231.04 1373.11 2282.81 1347.18 2286.27 1348.1 2289.97 1348.02 2293.42 1346.61L2333.04 1330.16C2339.3 1333.22 2345.7 1335.85 2352.17 1338.04L2368.58 1377.75C2371.15 1383.95 2377.2 1388 2383.91 1388L2419.4 1388C2426.11 1388 2432.16 1383.95 2434.73 1377.75L2451.14 1338.04C2457.61 1335.85 2464.01 1333.22 2470.27 1330.16L2509.89 1346.61C2516.07 1349.16 2523.21 1347.77 2527.97 1343.01L2553.01 1317.97C2557.76 1313.22 2559.17 1306.09 2556.61 1299.89L2540.16 1260.27C2543.2 1254.07 2545.85 1247.69 2548.11 1241.17L2587.77 1224.72C2593.97 1222.14 2598 1216.1 2598 1209.4L2598 1173.91C2598 1167.2 2593.97 1161.16 2587.77 1158.59ZM2246.69 1083.41 2263.14 1123.17C2260.16 1129.22 2257.59 1135.52 2255.42 1142.03L2215.6 1158.57C2174.94 1169.88 2127.8 1175.9 2079 1175.9 1935.34 1175.9 1835.22 1125.13 1835.22 1079.56L1835.22 962.931C1881.68 1003.22 1972.42 1030.03 2079.02 1030.03 2185.71 1030.03 2276.5 1003.19 2322.92 962.85L2322.92 1048.96 2293.4 1036.7C2287.21 1034.15 2280.07 1035.55 2275.32 1040.3L2250.27 1065.35C2245.53 1070.08 2244.11 1077.21 2246.67 1083.41ZM2322.93 900.257C2322.93 900.346 2322.89 900.41 2322.89 900.5 2322.89 946.079 2222.74 996.865 2079.03 996.865 1935.76 996.865 1835.84 946.385 1835.23 900.92L1835.23 783.882C1881.66 824.27 1972.45 851.146 2079.13 851.146 2185.74 851.146 2276.49 824.304 2322.93 783.963ZM2079.14 625.182C2222.71 625.182 2322.79 675.831 2322.98 721.338 2322.98 721.411 2322.93 721.466 2322.93 721.533L2322.93 721.889C2322.33 767.437 2222.41 817.979 2079.14 817.979 1935.43 817.979 1835.28 767.12 1835.28 721.466 1835.28 675.927 1935.43 625.182 2079.14 625.182ZM1835.24 1258.5 1835.24 1141.95C1881.66 1182.26 1972.4 1209.08 2079.01 1209.08 2123.41 1209.08 2166.45 1204.11 2205.33 1195.13L2205.33 1209.41C2205.33 1216.11 2209.36 1222.16 2215.54 1224.72L2255.43 1241.29C2257.6 1247.79 2260.18 1254.1 2263.16 1260.16L2246.71 1299.92C2244.15 1306.11 2245.57 1313.24 2250.31 1317.98L2255.79 1323.45C2209.43 1343.52 2146.55 1354.85 2079.02 1354.85 1935.36 1354.85 1835.24 1304.07 1835.24 1258.5ZM2564.84 1198.34 2528.31 1213.49C2523.68 1215.42 2520.16 1219.34 2518.75 1224.15 2515.97 1233.64 2512.14 1242.84 2507.37 1251.49 2504.94 1255.91 2504.65 1261.19 2506.57 1265.85L2521.73 1302.37 2512.36 1311.73 2475.85 1296.57C2471.17 1294.65 2465.89 1294.95 2461.47 1297.37 2452.7 1302.22 2443.59 1305.96 2434.38 1308.52 2429.46 1309.88 2425.43 1313.44 2423.48 1318.17L2408.32 1354.85 2395 1354.85 2379.84 1318.17C2377.89 1313.44 2373.87 1309.88 2368.95 1308.52 2359.73 1305.96 2350.62 1302.22 2341.85 1297.37 2337.43 1294.95 2332.14 1294.65 2327.48 1296.57L2290.96 1311.73 2281.59 1302.36 2296.77 1265.67C2298.71 1260.96 2298.39 1255.63 2295.89 1251.19 2291.26 1242.96 2287.59 1234 2284.99 1224.56 2283.63 1219.64 2280.08 1215.62 2275.37 1213.66L2238.48 1198.34 2238.48 1184.99 2275.37 1169.66C2280.08 1167.7 2283.63 1163.69 2284.99 1158.77 2287.59 1149.33 2291.26 1140.37 2295.89 1132.14 2298.39 1127.7 2298.71 1122.37 2296.77 1117.67L2281.59 1080.97 2290.96 1071.6 2327.48 1086.75C2332.14 1088.67 2337.43 1088.4 2341.84 1085.95 2350.62 1081.12 2359.74 1077.37 2368.95 1074.82 2373.87 1073.45 2377.89 1069.9 2379.84 1065.17L2395 1028.49 2408.32 1028.49 2423.48 1065.17C2425.43 1069.9 2429.46 1073.45 2434.38 1074.82 2443.59 1077.37 2452.7 1081.12 2461.48 1085.95 2465.89 1088.4 2471.17 1088.67 2475.85 1086.75L2512.36 1071.6 2521.73 1080.97 2506.57 1117.48C2504.65 1122.15 2504.94 1127.43 2507.38 1131.85 2512.14 1140.49 2515.97 1149.69 2518.75 1159.19 2520.16 1164 2523.68 1167.91 2528.31 1169.84L2564.84 1185Z" fill="#616161" fill-rule="evenodd"/><path d="M2401.5 1112C2357.66 1112 2322 1147.66 2322 1191.5 2322 1235.34 2357.66 1271 2401.5 1271 2445.34 1271 2481 1235.34 2481 1191.5 2481 1147.66 2445.34 1112 2401.5 1112ZM2401.5 1237.74C2376.01 1237.74 2355.27 1217 2355.27 1191.51 2355.27 1166.01 2376.01 1145.27 2401.5 1145.27 2427 1145.27 2447.73 1166.01 2447.73 1191.51 2447.73 1217 2427 1237.74 2401.5 1237.74Z" fill="#616161" fill-rule="evenodd"/></g></svg>