<svg width="544" height="408" xmlns="http://www.w3.org/2000/svg" xmlns:xlink="http://www.w3.org/1999/xlink" xml:space="preserve" overflow="hidden"><defs><clipPath id="clip0"><rect x="1928" y="786" width="544" height="408"/></clipPath></defs><g clip-path="url(#clip0)" transform="translate(-1928 -786)"><path d="M2463.5 1126 2438 1126 2438 862.5C2438 855.738 2435.31 849.248 2430.53 844.468 2425.75 839.688 2419.26 837.001 2412.5 837.001L2344.5 837.001 2344.5 820.001C2344.5 787.64 2224.13 786 2200 786 2175.87 786 2055.5 787.64 2055.5 820.001L2055.5 837.001 1987.5 837.001C1980.74 837.001 1974.25 839.687 1969.47 844.468 1964.69 849.249 1962 855.739 1962 862.5L1962 1126 1936.5 1126C1931.81 1126 1928 1129.81 1928 1134.5L1928 1168.5C1928 1175.26 1930.69 1181.75 1935.47 1186.53 1940.25 1191.31 1946.74 1194 1953.5 1194L2446.5 1194C2453.26 1194 2459.75 1191.31 2464.53 1186.53 2469.31 1181.75 2472 1175.26 2472 1168.5L2472 1134.5C2472 1132.25 2471.1 1130.08 2469.51 1128.49 2467.92 1126.9 2465.75 1126 2463.5 1126ZM2072.5 914.5C2106.54 929.52 2181.5 930.499 2200 930.499 2218.5 930.499 2293.5 929.52 2327.5 914.5L2327.5 971.924C2321.43 978.303 2278.3 989.998 2200 989.998 2121.7 989.998 2078.57 978.303 2072.5 971.927ZM2072.5 895.424 2072.5 838C2106.54 853.02 2181.5 853.999 2200 853.999 2218.5 853.999 2293.5 853.02 2327.5 838L2327.5 895.424C2321.43 901.803 2278.3 913.498 2200 913.498 2121.7 913.498 2078.57 901.803 2072.5 895.427ZM2072.5 991C2106.54 1006.02 2181.5 1007 2200 1007 2218.5 1007 2293.5 1006.02 2327.5 991L2327.5 1048.42C2321.43 1054.8 2278.3 1066.5 2200 1066.5 2121.7 1066.5 2078.57 1054.8 2072.5 1048.43ZM2200 803C2274.09 803 2316.68 813.473 2326.2 820 2316.68 826.527 2274.09 837 2200 837 2125.91 837 2083.32 826.527 2073.8 820 2083.32 813.473 2125.91 803 2200 803ZM1979 862.5C1979 857.806 1982.81 854 1987.5 854L2055.5 854 2055.5 1049.5C2055.5 1081.86 2175.87 1083.5 2200 1083.5 2224.13 1083.5 2344.5 1081.86 2344.5 1049.5L2344.5 854 2412.5 854C2414.75 854 2416.92 854.895 2418.51 856.488 2420.1 858.083 2421 860.246 2421 862.5L2421 1126 2259.5 1126C2254.81 1126 2251 1129.81 2251 1134.5L2251 1143 2149 1143 2149 1134.5C2149 1132.25 2148.1 1130.08 2146.51 1128.49 2144.92 1126.9 2142.75 1126 2140.5 1126L1979 1126ZM2455 1168.5C2455 1170.75 2454.1 1172.92 2452.51 1174.51 2450.92 1176.1 2448.75 1177 2446.5 1177L1953.5 1177C1948.81 1177 1945 1173.19 1945 1168.5L1945 1143 2132 1143 2132 1151.5C2132 1153.75 2132.9 1155.92 2134.49 1157.51 2136.08 1159.1 2138.25 1160 2140.5 1160L2259.5 1160C2261.75 1160 2263.92 1159.1 2265.51 1157.51 2267.1 1155.92 2268 1153.75 2268 1151.5L2268 1143 2455 1143Z" fill="#616161" fill-rule="evenodd"/><path d="M2157 879 2174 879 2174 896 2157 896Z" fill="#616161" fill-rule="evenodd"/><path d="M2191 879 2209 879 2209 896 2191 896Z" fill="#616161" fill-rule="evenodd"/><path d="M2226 879 2243 879 2243 896 2226 896Z" fill="#616161" fill-rule="evenodd"/><path d="M2157 956 2174 956 2174 973 2157 973Z" fill="#616161" fill-rule="evenodd"/><path d="M2191 956 2209 956 2209 973 2191 973Z" fill="#616161" fill-rule="evenodd"/><path d="M2226 956 2243 956 2243 973 2226 973Z" fill="#616161" fill-rule="evenodd"/><path d="M2157 1033 2174 1033 2174 1050 2157 1050Z" fill="#616161" fill-rule="evenodd"/><path d="M2191 1033 2209 1033 2209 1050 2191 1050Z" fill="#616161" fill-rule="evenodd"/><path d="M2226 1033 2243 1033 2243 1050 2226 1050Z" fill="#616161" fill-rule="evenodd"/><path d="M1996 871 2013 871 2013 922 1996 922Z" fill="#616161" fill-rule="evenodd"/><path d="M1996 939 2013 939 2013 956 1996 956Z" fill="#616161" fill-rule="evenodd"/></g></svg>