<svg width="1026" height="1026" xmlns="http://www.w3.org/2000/svg" xmlns:xlink="http://www.w3.org/1999/xlink" xml:space="preserve" overflow="hidden"><defs><clipPath id="clip0"><rect x="1687" y="477" width="1026" height="1026"/></clipPath></defs><g clip-path="url(#clip0)" transform="translate(-1687 -477)"><path d="M2199.99 477C2187.65 477 2177.64 486.993 2177.64 499.32L2177.64 1181.45 2054.22 1057.03C2045.53 1048.28 2031.39 1048.22 2022.62 1056.89 2013.86 1065.55 2013.78 1079.68 2022.46 1088.43L2184.11 1251.38 2184.27 1251.54C2184.5 1251.76 2184.78 1251.92 2185.01 1252.14 2185.8 1252.89 2186.65 1253.59 2187.56 1254.22L2187.71 1254.32C2188.27 1254.69 2188.88 1254.94 2189.47 1255.25L2189.46 1255.25C2190.09 1255.63 2190.75 1255.97 2191.42 1256.29L2191.58 1256.37 2191.58 1256.36C2192.3 1256.62 2193.05 1256.84 2193.79 1257.02 2194.39 1257.2 2194.97 1257.43 2195.6 1257.55L2195.72 1257.59 2195.73 1257.59C2198.54 1258.14 2201.44 1258.14 2204.26 1257.59L2204.38 1257.55C2205 1257.43 2205.58 1257.2 2206.19 1257.02 2206.94 1256.84 2207.68 1256.62 2208.4 1256.36L2208.57 1256.28 2208.57 1256.29C2209.23 1255.97 2209.88 1255.63 2210.51 1255.26 2211.11 1254.94 2211.72 1254.69 2212.28 1254.32L2212.42 1254.22C2213.32 1253.59 2214.17 1252.9 2214.97 1252.15 2215.21 1251.93 2215.48 1251.77 2215.71 1251.54L2215.87 1251.38 2377.52 1088.43C2381.69 1084.23 2384.02 1078.54 2384 1072.62 2383.97 1066.7 2381.59 1061.04 2377.37 1056.87 2373.16 1052.7 2367.47 1050.39 2361.53 1050.42 2355.61 1050.44 2349.94 1052.82 2345.76 1057.03L2222.34 1181.45 2222.34 499.32C2222.34 486.993 2212.33 477 2199.99 477Z" fill="#616161" fill-rule="evenodd"/><path d="M2690.69 845 2347.21 845C2334.89 845 2324.9 854.989 2324.9 867.311 2324.9 879.626 2334.89 889.613 2347.21 889.613L2668.39 889.613 2668.39 1458.38 1731.61 1458.38 1731.61 889.613 2052.79 889.613C2065.11 889.613 2075.1 879.624 2075.1 867.311 2075.1 854.987 2065.11 845 2052.79 845L1709.31 845C1696.99 845.008 1687 854.989 1687 867.311L1687 1480.69C1687 1493.01 1696.99 1503 1709.31 1503L2690.69 1503C2703.01 1503 2713 1493.01 2713 1480.69L2713 867.311C2713 854.987 2703.01 845.008 2690.69 845Z" fill="#616161" fill-rule="evenodd"/></g></svg>