<svg width="1180" height="859" xmlns="http://www.w3.org/2000/svg" xmlns:xlink="http://www.w3.org/1999/xlink" xml:space="preserve" overflow="hidden"><defs><clipPath id="clip0"><rect x="1610" y="560" width="1180" height="859"/></clipPath></defs><g clip-path="url(#clip0)" transform="translate(-1610 -560)"><path d="M2622.86 1116.52C2617.83 1116.01 2612.8 1117.51 2608.88 1120.7 2604.96 1123.89 2602.47 1128.5 2601.96 1133.52 2598.5 1167.36 2579.2 1197.58 2549.92 1215.01 2520.63 1232.44 2484.81 1235.02 2453.32 1221.97 2421.83 1208.92 2398.38 1181.79 2390.08 1148.79 2381.78 1115.78 2389.61 1080.81 2411.2 1054.48 2432.78 1028.14 2465.59 1013.55 2499.65 1015.12 2533.71 1016.69 2565.02 1034.23 2584.09 1062.45 2590.01 1071.14 2601.88 1073.4 2610.6 1067.5 2614.79 1064.66 2617.67 1060.28 2618.62 1055.31 2619.57 1050.35 2618.5 1045.22 2615.66 1041.05 2589.85 1002.93 2547.5 979.24 2501.46 977.15 2455.4 975.061 2411.07 994.821 2381.9 1030.44 2352.73 1066.06 2342.16 1113.33 2353.4 1157.94 2364.62 1202.55 2396.34 1239.24 2438.91 1256.88 2481.49 1274.52 2529.91 1271.02 2569.51 1247.48 2609.1 1223.93 2635.21 1183.08 2639.91 1137.32 2640.94 1126.89 2633.32 1117.58 2622.87 1116.52Z" fill="#616161" fill-rule="evenodd"/><path d="M2766.09 1061.7 2738.31 1061.7C2732.26 1036.66 2722.38 1012.71 2709 990.709L2728.46 971.288C2737.78 961.948 2737.78 946.819 2728.46 937.479L2676.96 886.102 2676.96 886.094C2667.63 876.805 2652.54 876.805 2643.2 886.094L2623.76 905.464 2623.77 905.471C2601.65 891.992 2577.57 882.025 2552.41 875.913L2552.41 848.666C2552.43 839.053 2546.67 830.365 2537.8 826.654L2537.8 678.035C2537.73 646.708 2525.24 616.682 2503.07 594.558 2480.9 572.426 2450.87 560 2419.55 560L1833.61 560C1823.1 560 1814.58 568.525 1814.58 579.038 1814.58 589.551 1823.1 598.077 1833.61 598.077L2419.57 598.077C2435.54 598.06 2451.14 602.818 2464.37 611.735L2111.71 974.197C2099.41 986.834 2082.74 992.972 2067.11 990.618 2066.3 990.507 2065.5 990.363 2064.73 990.191 2054.29 987.872 2044.83 982.383 2037.64 974.46L1692.31 606.602C1703.45 600.993 1715.77 598.068 1728.25 598.086 1738.76 598.086 1747.28 589.561 1747.28 579.047 1747.28 568.534 1738.76 560.009 1728.25 560.009 1696.94 560.009 1666.9 572.435 1644.73 594.567 1622.56 616.691 1610.07 646.719 1610 678.046L1610 1127.19C1610.07 1158.53 1622.56 1188.55 1644.72 1210.68 1666.9 1232.81 1696.93 1245.24 1728.25 1245.25L2271.13 1245.25C2272.58 1247.8 2274.05 1250.34 2275.58 1252.84L2255.84 1272.54 2255.84 1272.55C2251.32 1277.02 2248.78 1283.11 2248.78 1289.47 2248.78 1295.82 2251.32 1301.92 2255.84 1306.39L2307.34 1357.76C2316.68 1367.04 2331.76 1367.04 2341.09 1357.76L2361.01 1337.92C2382.97 1351.25 2406.86 1361.12 2431.82 1367.16L2431.82 1395.2C2431.82 1401.51 2434.33 1407.57 2438.79 1412.03 2443.26 1416.49 2449.3 1419 2455.61 1419L2528.45 1419C2534.76 1419 2540.81 1416.49 2545.27 1412.03 2549.73 1407.57 2552.24 1401.51 2552.24 1395.2L2552.24 1367.16C2577.32 1361.15 2601.31 1351.28 2623.36 1337.92L2643.28 1357.76C2652.61 1367.04 2667.69 1367.04 2677.03 1357.76L2728.53 1306.39C2737.85 1297.04 2737.85 1281.9 2728.53 1272.55L2708.77 1252.85 2708.77 1252.84C2722.17 1230.94 2732.12 1207.1 2738.26 1182.16L2766.09 1182.16C2779.24 1182.16 2789.92 1171.52 2790 1158.37L2790 1085.6C2789.98 1072.4 2779.29 1061.71 2766.09 1061.71ZM2490.14 639.928C2496.52 651.606 2499.86 664.704 2499.84 678.004L2499.84 824.741 2455.7 824.741C2442.56 824.741 2431.91 835.398 2431.91 848.54L2431.91 875.787C2406.74 881.899 2382.66 891.868 2360.55 905.347L2341.13 885.978 2341.13 885.969C2336.67 881.472 2330.59 878.948 2324.25 878.948 2317.92 878.948 2311.84 881.472 2307.38 885.969L2255.83 937.474C2251.32 941.937 2248.78 948.029 2248.78 954.378 2248.78 960.727 2251.32 966.821 2255.83 971.284L2275.29 990.705C2270.54 998.549 2266.21 1006.64 2262.35 1014.95L2181.2 957.339ZM1648.04 1127.19 1648.04 678.048C1648.03 661.244 1653.36 644.876 1663.24 631.286L1968.03 955.956 1666.65 1178.39C1654.62 1164.05 1648.02 1145.92 1648.03 1127.2ZM1728.23 1207.18C1718.28 1207.18 1708.43 1205.33 1699.16 1201.71L1994.29 983.91 2009.94 1000.57C2022.5 1014.28 2039.01 1023.74 2057.19 1027.63 2058.55 1027.9 2059.92 1028.13 2061.3 1028.35 2065.37 1028.96 2069.47 1029.26 2073.58 1029.25 2098.27 1028.95 2121.82 1018.71 2138.87 1000.83L2154.24 985.033 2248.42 1051.93C2247.49 1055.19 2246.61 1058.47 2245.8 1061.78L2218.23 1061.78C2205.12 1061.85 2194.51 1072.46 2194.44 1085.58L2194.44 1158.28C2194.52 1171.39 2205.12 1182 2218.23 1182.08L2246.09 1182.08C2248.18 1190.54 2250.71 1198.89 2253.68 1207.09ZM2751.81 1144.09 2726.74 1144.09C2715.34 1144.12 2705.54 1152.18 2703.33 1163.37 2697.81 1191.31 2686.74 1217.85 2670.76 1241.42 2664.3 1250.9 2665.51 1263.63 2673.64 1271.72L2691.43 1289.48 2660 1320.84 2642.07 1302.94 2642.08 1302.94C2633.98 1294.92 2621.36 1293.69 2611.88 1300.02 2588.24 1315.88 2561.65 1326.83 2533.7 1332.24 2522.48 1334.43 2514.38 1344.25 2514.35 1355.68L2514.35 1381.02 2469.87 1381.02 2469.87 1355.74C2469.84 1344.32 2461.75 1334.5 2450.53 1332.3 2422.57 1326.87 2395.99 1315.9 2372.34 1300.02 2362.86 1293.69 2350.24 1294.92 2342.15 1302.94L2324.22 1320.84 2292.7 1289.4 2310.49 1271.65C2318.62 1263.56 2319.83 1250.82 2313.37 1241.35 2297.39 1217.78 2286.32 1191.22 2280.8 1163.27 2278.59 1152.09 2268.79 1144.03 2257.4 1144L2232.42 1144 2232.42 1099.79 2257.33 1099.79 2257.32 1099.79C2268.76 1099.76 2278.58 1091.66 2280.78 1080.43 2286.2 1052.4 2297.23 1025.75 2313.21 1002.1 2319.56 992.602 2318.34 979.939 2310.28 971.848L2292.7 954.4 2324.12 923.038 2341.61 940.479C2349.7 948.527 2362.34 949.726 2371.82 943.36 2395.54 927.346 2422.23 916.274 2450.32 910.782 2461.54 908.598 2469.65 898.78 2469.68 887.342L2469.68 862.856 2514.16 862.856 2514.16 887.342C2514.19 898.774 2522.29 908.589 2533.5 910.782 2561.63 916.254 2588.37 927.338 2612.12 943.36 2621.6 949.709 2634.22 948.501 2642.33 940.479L2659.81 923.038 2691.24 954.4 2673.76 971.841 2673.76 971.85C2665.71 979.957 2664.53 992.628 2670.93 1002.1 2686.89 1025.76 2697.92 1052.4 2703.35 1080.43 2705.54 1091.65 2715.36 1099.76 2726.78 1099.79L2751.8 1099.79Z" fill="#616161" fill-rule="evenodd"/></g></svg>