<svg width="1185" height="1194" xmlns="http://www.w3.org/2000/svg" xmlns:xlink="http://www.w3.org/1999/xlink" xml:space="preserve" overflow="hidden"><defs><clipPath id="clip0"><rect x="1605" y="393" width="1185" height="1194"/></clipPath></defs><g clip-path="url(#clip0)" transform="translate(-1605 -393)"><path d="M2786.73 894.724 2623.16 750.343 2623.16 601.117C2623.16 584.745 2616.66 569.04 2605.08 557.457 2593.51 545.882 2577.8 539.379 2561.43 539.379L2384.06 539.379 2236.15 408.614C2224.85 398.563 2210.25 393 2195.12 393 2179.99 393 2165.39 398.563 2154.09 408.614L2008.43 539.187 1836.27 539.187C1819.92 539.237 1804.24 545.757 1792.68 557.324 1781.11 568.899 1774.59 584.57 1774.54 600.934L1774.54 747.544 1610.79 894.53C1609.8 895.621 1608.92 896.813 1608.17 898.077 1607.55 898.836 1606.99 899.652 1606.5 900.501 1605.52 902.676 1605.01 905.022 1605 907.404L1605 1568.28 1605 1569.78C1605.09 1571.45 1605.47 1573.09 1606.12 1574.63 1606.42 1575.47 1606.79 1576.28 1607.24 1577.05 1607.73 1578.03 1608.29 1578.96 1608.92 1579.85 1609.9 1580.88 1611.04 1581.76 1612.28 1582.46 1613.1 1583.14 1613.98 1583.77 1614.89 1584.32 1616.64 1585.55 1618.6 1586.43 1620.67 1586.94 1621.54 1587.02 1622.41 1587.02 1623.28 1586.94L2774.79 1586.94C2777.31 1586.95 2779.81 1586.38 2782.06 1585.26 2784.03 1584.29 2785.8 1582.97 2787.28 1581.34L2787.28 1579.85C2788.31 1578.55 2789.13 1577.1 2789.71 1575.56L2789.71 1573.32C2789.8 1572.14 2789.8 1570.96 2789.71 1569.78L2789.71 907.958C2790.57 903.319 2789.5 898.531 2786.73 894.717ZM2623.16 798.477 2747.38 908.156 2623.16 1018.21ZM2178.33 435.857C2187.95 427.28 2202.47 427.28 2212.09 435.857L2329.41 539.192 2062.71 539.192ZM1810.73 600.94C1810.83 586.866 1822.21 575.484 1836.27 575.384L2561.42 575.384C2575.53 575.384 2586.97 586.826 2586.97 600.94L2586.97 1050.3 2385.35 1229.93 2013.27 1229.93 1810.72 1050.49ZM1774.54 796.608 1774.54 1018.4 1650.14 907.971ZM1641.19 948.258 1978.59 1247.65 1641.19 1530.99ZM1672.71 1550.75 2012.35 1266.11 2385.37 1266.11 2724.82 1550.75ZM2756.7 1530.98 2419.11 1247.64 2756.7 949.189Z" fill="#616161" fill-rule="evenodd"/><path d="M2044.35 985.866 2024.77 1017.96C2020.62 1025.11 2021.69 1034.16 2027.38 1040.15L2061.71 1074.48C2067.71 1080.18 2076.74 1081.25 2083.9 1077.09L2115.99 1058.43C2126.25 1064.02 2137.07 1068.53 2148.26 1071.87L2157.21 1109.18C2159.36 1117.16 2166.5 1122.77 2174.75 1122.99L2223.25 1122.99C2231.92 1123.28 2239.65 1117.56 2241.9 1109.18L2250.67 1071.87C2261.86 1068.53 2272.68 1064.02 2282.94 1058.43L2315.03 1077.09C2322.19 1081.25 2331.23 1080.18 2337.22 1074.48L2371.55 1040.15C2377.25 1034.15 2378.31 1025.11 2374.16 1017.96L2355.51 985.866C2360.38 975.263 2364.19 964.195 2366.89 952.843L2404.19 944.074C2412.17 941.933 2417.78 934.795 2418 926.541L2418 878.219C2417.87 869.891 2412.24 862.661 2404.19 860.494L2366.89 851.725C2363.49 840.514 2359.06 829.647 2353.65 819.267L2372.3 787.368 2372.3 787.36C2376.15 780.665 2375.49 772.277 2370.62 766.282L2336.29 731.95C2330.38 726.127 2321.33 724.912 2314.1 728.967L2282.01 747.624C2271.75 742.035 2260.93 737.53 2249.74 734.189L2240.97 697.81C2238.72 689.433 2230.99 683.711 2222.32 684.011L2174.75 684.011C2166.5 684.218 2159.36 689.832 2157.21 697.81L2148.26 734.189C2137.07 737.53 2126.25 742.035 2115.99 747.624L2083.91 728.967C2076.71 724.87 2067.66 726.004 2061.71 731.767L2027.38 766.282C2021.69 772.286 2020.62 781.322 2024.77 788.486L2044.36 820.385C2038.92 830.495 2034.48 841.122 2031.12 852.1L1993.81 860.87C1985.76 863.036 1980.13 870.264 1980 878.592L1980 927.098C1980.22 935.353 1985.83 942.49 1993.81 944.63L2031.12 952.843C2034.33 964.295 2038.77 975.363 2044.36 985.866ZM2016.75 892.585 2049.77 884.747C2056.36 883.056 2061.51 877.909 2063.2 871.313 2066.6 856.305 2072.54 841.987 2080.73 828.962 2084.07 823.19 2084.07 816.078 2080.73 810.306L2063.01 781.207 2077.18 767.032 2105.73 784.938C2111.5 788.27 2118.61 788.27 2124.38 784.938 2137.58 776.318 2152.15 770.007 2167.47 766.282 2174.07 764.591 2179.21 759.444 2180.9 752.849L2188.92 719.827 2209.07 719.827 2217.65 753.6C2219.34 760.186 2224.49 765.333 2231.08 767.032 2246.16 770.58 2260.54 776.635 2273.61 784.94 2279.38 788.27 2286.5 788.27 2292.27 784.94L2320.81 766.284 2334.98 780.458 2317.26 809.558 2317.27 809.566C2313.93 815.338 2313.93 822.451 2317.27 828.222 2325.54 841.141 2331.47 855.407 2334.8 870.381 2336.49 876.978 2341.63 882.125 2348.23 883.815L2381.25 891.837 2381.25 911.983 2348.23 920.753C2341.59 922.478 2336.43 927.708 2334.8 934.37 2331.31 949.295 2325.39 963.547 2317.27 976.538 2313.93 982.309 2313.93 989.422 2317.27 995.194L2334.99 1024.29 2320.81 1038.47 2291.72 1019.81 2291.71 1019.82C2285.94 1016.48 2278.83 1016.48 2273.06 1019.82 2260.07 1027.94 2245.82 1033.86 2230.89 1037.35 2224.31 1039.04 2219.16 1044.19 2217.47 1050.79L2209.45 1083.81 2188.92 1083.81 2180.35 1052.09C2178.66 1045.5 2173.51 1040.35 2166.91 1038.66 2151.99 1035.17 2137.75 1029.25 2124.76 1021.12 2118.99 1017.79 2111.88 1017.79 2106.11 1021.12L2077.01 1039.77 2062.84 1025.6 2080.56 996.501 2080.55 996.501C2083.88 990.729 2083.88 983.616 2080.55 977.845 2072.26 964.419 2066.39 949.643 2063.2 934.185 2061.57 927.522 2056.41 922.292 2049.77 920.567L2016.75 912.729Z" fill="#616161" fill-rule="evenodd"/><path d="M2199.5 997C2224.56 997 2248.6 987.046 2266.33 969.32 2284.04 951.603 2294 927.568 2294 902.504 2294 877.443 2284.04 853.406 2266.33 835.68 2248.6 817.963 2224.56 808 2199.5 808 2174.44 808 2150.4 817.963 2132.67 835.68 2114.96 853.406 2105 877.441 2105 902.504 2105.05 927.549 2115.02 951.56 2132.73 969.268 2150.44 986.977 2174.45 996.949 2199.5 996.998ZM2199.5 844.237C2214.96 844.237 2229.77 850.373 2240.71 861.303 2251.63 872.233 2257.77 887.047 2257.77 902.507 2257.77 917.955 2251.63 932.78 2240.71 943.71 2229.77 954.631 2214.96 960.776 2199.5 960.776 2184.04 960.776 2169.23 954.631 2158.29 943.71 2147.37 932.78 2141.23 917.957 2141.23 902.507 2141.23 887.05 2147.37 872.233 2158.29 861.303 2169.23 850.373 2184.04 844.237 2199.5 844.237Z" fill="#616161" fill-rule="evenodd"/></g></svg>