<svg width="796" height="770" xmlns="http://www.w3.org/2000/svg" xmlns:xlink="http://www.w3.org/1999/xlink" xml:space="preserve" overflow="hidden"><defs><clipPath id="clip0"><rect x="1782" y="605" width="796" height="770"/></clipPath></defs><g clip-path="url(#clip0)" transform="translate(-1782 -605)"><path d="M1910.39 605.005 1910.39 784.667 1782 784.667 1782 1246.67 1910.39 1246.67 1910.39 1375 2578 1375 2578 605ZM1910.39 913.005 1978.43 913.005 2013.1 964.333 2047.77 913.005 2115.8 913.005 2047.76 1015.67 2115.8 1118.34 2047.76 1118.34 2013.1 1067.01 1978.43 1118.34 1910.39 1118.34 1978.43 1015.67ZM2526.65 1323.67 1961.74 1323.67 1961.74 1246.67 2244.19 1246.67 2244.19 1092.67 2449.62 1092.67 2449.62 1041.34 2244.19 1041.33 2244.19 990.002 2449.62 990.002 2449.62 938.674 2244.19 938.674 2244.19 887.345 2449.62 887.345 2449.62 836.016 2244.19 836.007 2244.19 784.678 1961.74 784.669 1961.74 656.336 2526.65 656.336Z" fill="#274584" fill-rule="evenodd"/></g></svg>