<?xml version="1.0" encoding="iso-8859-1"?>
<!-- Generator: Adobe Illustrator 19.0.0, SVG Export Plug-In . SVG Version: 6.00 Build 0)  -->
<svg version="1.1" id="Layer_1" xmlns="http://www.w3.org/2000/svg" xmlns:xlink="http://www.w3.org/1999/xlink" x="0px" y="0px"
	 viewBox="0 0 18 18" style="enable-background:new 0 0 18 18;" xml:space="preserve">
<g id="XMLID_7_">
	<path id="XMLID_20_" style="fill:#E9F4FD;" d="M15.438,16.33H4.07V1.734h7.737c1.874,1.872,1.834,1.837,3.631,3.631V16.33z"/>
	<polygon id="XMLID_19_" style="fill:#D3E8FA;" points="4.07,1.734 15.438,12.129 15.438,16.33 4.07,16.33 	"/>
	<polygon id="XMLID_18_" style="opacity:0.1;fill:#5273DD;" points="4.07,1.734 15.438,12.129 15.438,16.33 4.07,16.33 	"/>
	<polygon id="XMLID_17_" style="opacity:0.1;fill:#4057B5;" points="4.07,4.668 15.438,15.063 15.438,16.33 4.07,16.33 	"/>
	<polygon id="XMLID_16_" style="opacity:0.1;fill:#2F3D8E;" points="4.07,7.468 13.705,16.33 4.07,16.33 	"/>
	<linearGradient id="XMLID_4_" gradientUnits="userSpaceOnUse" x1="2.7613" y1="15.9651" x2="15.0499" y2="3.6766">
		<stop  offset="0.1935" style="stop-color:#252D76"/>
		<stop  offset="1" style="stop-color:#225099"/>
	</linearGradient>
	<path id="XMLID_13_" style="fill:url(#XMLID_4_);" d="M16.11,4.737l-3.688-3.688c-0.029-0.029-0.068-0.045-0.108-0.045H4.143
		c-0.466,0-0.845,0.378-0.845,0.845v14.304c0,0.466,0.378,0.845,0.845,0.845H15.31c0.466,0,0.845-0.378,0.845-0.845V4.845
		C16.155,4.804,16.139,4.765,16.11,4.737z M15.438,16.213H4.07V1.734h7.756v2.789c0,0.466,0.378,0.845,0.845,0.845h2.767V16.213z"/>
	<linearGradient id="XMLID_32_" gradientUnits="userSpaceOnUse" x1="2.1637" y1="13.6513" x2="9.9357" y2="5.8794">
		<stop  offset="0.1935" style="stop-color:#252D76"/>
		<stop  offset="1" style="stop-color:#225099"/>
	</linearGradient>
	<path id="XMLID_11_" style="fill:url(#XMLID_32_);" d="M9.254,13.919H2.845c-0.552,0-1-0.448-1-1V6.612c0-0.552,0.448-1,1-1h6.409
		c0.552,0,1,0.448,1,1v6.306C10.254,13.471,9.807,13.919,9.254,13.919z"/>
	<g id="XMLID_8_">
		<path id="XMLID_9_" style="fill:#FFFFFF;" d="M8.823,7.632l-1.138,4.249H6.819L6.054,9.004l-0.79,2.877h-0.86L3.26,7.632h0.835
			l0.785,2.986l0.82-2.986h0.746l0.795,3.011l0.81-3.011H8.823z"/>
	</g>
</g>
<g id="XMLID_476_">
	<path id="XMLID_430_" style="fill:#E9F4FD;" d="M-141.92-64.831h-138.601V-242.79h94.331c22.843,22.829,22.363,22.397,44.27,44.27
		V-64.831z"/>
	<polygon id="XMLID_429_" style="fill:#D3E8FA;" points="-280.521,-242.79 -141.92,-116.044 -141.92,-64.831 -280.521,-64.831 	"/>
	<polygon id="XMLID_428_" style="opacity:0.1;fill:#5273DD;" points="-280.521,-242.79 -141.92,-116.044 -141.92,-64.831 
		-280.521,-64.831 	"/>
	<polygon id="XMLID_427_" style="opacity:0.1;fill:#4057B5;" points="-280.521,-207.022 -141.92,-80.276 -141.92,-64.831 
		-280.521,-64.831 	"/>
	<polygon id="XMLID_426_" style="opacity:0.1;fill:#2F3D8E;" points="-280.521,-172.88 -163.056,-64.831 -280.521,-64.831 	"/>
	<linearGradient id="XMLID_47_" gradientUnits="userSpaceOnUse" x1="-296.4813" y1="-69.2778" x2="-146.6539" y2="-219.1052">
		<stop  offset="0.1935" style="stop-color:#252D76"/>
		<stop  offset="1" style="stop-color:#225099"/>
	</linearGradient>
	<path id="XMLID_423_" style="fill:url(#XMLID_47_);" d="M-133.729-206.181l-44.969-44.969c-0.351-0.351-0.826-0.548-1.322-0.548
		h-99.619c-5.687,0-10.297,4.61-10.297,10.297v174.402c0,5.687,4.61,10.297,10.297,10.297h136.162
		c5.687,0,10.297-4.61,10.297-10.297v-137.86C-133.182-205.354-133.379-205.83-133.729-206.181z M-141.92-66.253h-138.601V-242.79
		h94.568v34.007c0,5.687,4.61,10.297,10.297,10.297h33.736V-66.253z"/>
	<linearGradient id="XMLID_48_" gradientUnits="userSpaceOnUse" x1="-306.5451" y1="-94.711" x2="-206.2304" y2="-195.0256">
		<stop  offset="0.1935" style="stop-color:#252D76"/>
		<stop  offset="1" style="stop-color:#225099"/>
	</linearGradient>
	<path id="XMLID_422_" style="fill:url(#XMLID_48_);" d="M-207.832-94.231h-97.111c-1.496,0-2.708-1.213-2.708-2.708v-95.858
		c0-1.496,1.213-2.708,2.708-2.708h97.111c1.496,0,2.708,1.213,2.708,2.708v95.858C-205.124-95.444-206.336-94.231-207.832-94.231z"
		/>
	<g id="XMLID_419_">
		<path id="XMLID_420_" style="fill:#FFFFFF;" d="M-222.578-170.878l-13.879,51.804h-10.546l-9.334-35.079l-9.637,35.079h-10.485
			l-13.939-51.804h10.182l9.576,36.41l10-36.41h9.091l9.697,36.706l9.879-36.706H-222.578z"/>
	</g>
</g>
<g id="XMLID_475_">
	<path id="XMLID_418_" style="fill:#E9F4FD;" d="M144.08-64.831H5.479V-242.79H99.81c22.843,22.829,22.363,22.397,44.269,44.27
		V-64.831z"/>
	<polygon id="XMLID_417_" style="opacity:0.1;fill:#5273DD;" points="5.479,-242.79 144.08,-116.044 144.08,-64.831 5.479,-64.831 	
		"/>
	<polygon id="XMLID_416_" style="opacity:0.1;fill:#4057B5;" points="5.479,-207.022 144.08,-80.276 144.08,-64.831 5.479,-64.831 	
		"/>
	<polygon id="XMLID_415_" style="opacity:0.1;fill:#2F3D8E;" points="5.479,-172.88 122.944,-64.831 5.479,-64.831 	"/>
	<linearGradient id="XMLID_49_" gradientUnits="userSpaceOnUse" x1="-10.4813" y1="-69.2778" x2="139.3461" y2="-219.1052">
		<stop  offset="0.1935" style="stop-color:#252D76"/>
		<stop  offset="1" style="stop-color:#225099"/>
	</linearGradient>
	<path id="XMLID_412_" style="fill:url(#XMLID_49_);" d="M152.271-206.181l-44.969-44.969c-0.351-0.351-0.826-0.548-1.322-0.548
		H6.36c-5.687,0-10.297,4.61-10.297,10.297v174.402c0,5.687,4.61,10.297,10.297,10.297h136.162c5.687,0,10.297-4.61,10.297-10.297
		v-137.86C152.818-205.354,152.621-205.83,152.271-206.181z M144.08-66.253H5.479V-242.79h94.568v34.007
		c0,5.687,4.61,10.297,10.297,10.297h33.736V-66.253z"/>
	<linearGradient id="XMLID_50_" gradientUnits="userSpaceOnUse" x1="-20.5451" y1="-94.711" x2="79.7696" y2="-195.0256">
		<stop  offset="0.1935" style="stop-color:#252D76"/>
		<stop  offset="1" style="stop-color:#225099"/>
	</linearGradient>
	<path id="XMLID_411_" style="fill:url(#XMLID_50_);" d="M78.168-94.231h-97.111c-1.496,0-2.708-1.213-2.708-2.708v-95.858
		c0-1.496,1.213-2.708,2.708-2.708h97.111c1.496,0,2.708,1.213,2.708,2.708v95.858C80.876-95.444,79.664-94.231,78.168-94.231z"/>
	<g id="XMLID_433_">
		<path id="XMLID_434_" style="fill:#FFFFFF;" d="M41.817-119.074l-12.713-17.983l-12.487,17.983H2.624l19.483-26.346L3.602-170.878
			h13.842l12.111,16.799l11.886-16.799h13.165L36.25-145.864l19.634,26.79H41.817z"/>
	</g>
</g>
<g id="XMLID_477_">
	<path id="XMLID_410_" style="fill:#E9F4FD;" d="M430.148-64.831h-138.6V-242.79h94.331c22.843,22.829,22.363,22.397,44.269,44.27
		V-64.831z"/>
	<polygon id="XMLID_409_" style="fill:#D3E8FA;" points="291.547,-242.79 430.148,-116.044 430.148,-64.831 291.547,-64.831 	"/>
	<polygon id="XMLID_408_" style="opacity:0.1;fill:#5273DD;" points="291.547,-242.79 430.148,-116.044 430.148,-64.831 
		291.547,-64.831 	"/>
	<polygon id="XMLID_407_" style="opacity:0.1;fill:#4057B5;" points="291.547,-207.022 430.148,-80.276 430.148,-64.831 
		291.547,-64.831 	"/>
	<polygon id="XMLID_406_" style="opacity:0.1;fill:#2F3D8E;" points="291.547,-172.88 409.012,-64.831 291.547,-64.831 	"/>
	<linearGradient id="XMLID_51_" gradientUnits="userSpaceOnUse" x1="275.587" y1="-69.2778" x2="425.4144" y2="-219.1052">
		<stop  offset="0.1935" style="stop-color:#252D76"/>
		<stop  offset="1" style="stop-color:#225099"/>
	</linearGradient>
	<path id="XMLID_403_" style="fill:url(#XMLID_51_);" d="M438.339-206.181L393.37-251.15c-0.351-0.351-0.826-0.548-1.322-0.548
		h-99.619c-5.687,0-10.297,4.61-10.297,10.297v174.402c0,5.687,4.61,10.297,10.297,10.297H428.59c5.687,0,10.297-4.61,10.297-10.297
		v-137.86C438.887-205.354,438.69-205.83,438.339-206.181z M430.148-66.254h-138.6V-242.79h94.568v34.007
		c0,5.687,4.61,10.297,10.297,10.297h33.736V-66.254z"/>
	<linearGradient id="XMLID_52_" gradientUnits="userSpaceOnUse" x1="276.6368" y1="-159.2393" x2="354.7243" y2="-237.3267">
		<stop  offset="0.1935" style="stop-color:#252D76"/>
		<stop  offset="1" style="stop-color:#225099"/>
	</linearGradient>
	<path id="XMLID_402_" style="fill:url(#XMLID_52_);" d="M366.247-171.051H265.115c-0.385,0-0.698-0.312-0.698-0.698v-53.069
		c0-0.385,0.312-0.698,0.698-0.698h101.132c0.385,0,0.698,0.312,0.698,0.698v53.069
		C366.944-171.363,366.632-171.051,366.247-171.051z"/>
	<g id="XMLID_448_">
		<path id="XMLID_449_" style="fill:#FFFFFF;" d="M301.614-200.832c0,6.087-3.924,9.871-10.196,9.871h-4.729v7.53h-5.433v-27.312
			h10.162C297.69-210.742,301.614-206.958,301.614-200.832z M296.114-200.832c0-3.004-1.677-4.76-4.998-4.76h-4.427v9.48h4.427
			C294.437-196.111,296.114-197.867,296.114-200.832z"/>
		<path id="XMLID_452_" style="fill:#FFFFFF;" d="M305.47-210.742h10.666c7.68,0,12.946,5.384,12.946,13.655
			s-5.266,13.656-12.946,13.656H305.47V-210.742z M315.867-188.62c4.662,0,7.714-3.238,7.714-8.467c0-5.228-3.052-8.466-7.714-8.466
			h-4.964v16.933H315.867z"/>
		<path id="XMLID_455_" style="fill:#FFFFFF;" d="M338.604-205.67v7.218h10.867v5.072h-10.867v9.949h-5.433v-27.312h17.742v5.072
			H338.604z"/>
	</g>
	
		<linearGradient id="XMLID_53_" gradientUnits="userSpaceOnUse" x1="304.1826" y1="-145.3739" x2="390.2558" y2="-145.3739" gradientTransform="matrix(0.9987 0.0503 -0.0503 0.9987 7.2827 8.2856)">
		<stop  offset="0.1935" style="stop-color:#252D76"/>
		<stop  offset="1" style="stop-color:#225099"/>
	</linearGradient>
	<path id="XMLID_396_" style="fill:url(#XMLID_53_);" d="M364.715-152.983c-1.151,5.942-2.316,11.881-3.437,17.829
		c-0.168,0.891-0.423,1.926-0.139,2.715c2.532,7.05,6.199,13.355,11.59,18.719c3.527,3.509,7.563,3.04,11.868,3.097
		c4.916,0.065,9.902,0.525,14.708,1.529c3.836,0.801,4.959,3.438,4.116,7.11c-0.824,3.589-2.641,4.959-6.64,4.596
		c-6.653-0.605-12.814-2.94-18.485-6.309c-2.687-1.596-5.239-1.979-8.113-1.434c-8.251,1.566-16.516,3.071-24.727,4.83
		c-1.257,0.269-2.423,1.618-3.339,2.712c-4.201,5.021-8.027,10.386-12.517,15.125c-3.569,3.767-7.158,3.855-10.952,1.652
		c-2.067-1.2-2.801-2.943-1.525-4.825c1.719-2.537,3.56-5.206,5.953-7.021c3.522-2.672,7.464-4.871,11.448-6.82
		c2.317-1.133,4.098-2.511,5.33-4.699c4.708-8.362,9.505-16.677,14.037-25.134c0.774-1.444,0.795-3.563,0.506-5.258
		c-1.157-6.805-2.57-13.571-1.852-20.535c0.533-5.168,2.088-6.7,6.426-6.464c3.676,0.2,5.589,2.709,5.54,7.271
		c-0.005,0.422-0.04,0.843-0.061,1.264C364.538-153.016,364.627-152.999,364.715-152.983z M357.423-124.113
		c-3.534,6.374-7.182,12.954-10.849,19.568c7.558-1.705,14.942-3.371,22.019-4.968C364.897-114.344,361.159-119.231,357.423-124.113
		z M358.822-159.315c-1.396,5.988-1.163,11.608,0.064,17.637C362.553-146.703,362.595-156.807,358.822-159.315z M386.051-105.974
		c3.917,2.19,7.793,4.432,12.421,4.335c0.812-0.017,1.613-0.546,2.42-0.838c-0.562-0.756-0.965-1.887-1.713-2.206
		C394.989-106.467,390.545-106.347,386.051-105.974z M322.037-83.588c5.66-2.873,8.947-7.973,12.356-12.96
		C329.561-92.898,324.649-89.324,322.037-83.588z"/>
</g>
<g id="XMLID_734_">
	<linearGradient id="XMLID_54_" gradientUnits="userSpaceOnUse" x1="-220.4167" y1="165.0938" x2="-220.4167" y2="34.5021">
		<stop  offset="0.1935" style="stop-color:#252D76"/>
		<stop  offset="1" style="stop-color:#225099"/>
	</linearGradient>
	<path id="XMLID_643_" style="fill:url(#XMLID_54_);" d="M-117.045,101.317c-0.026-2.193-0.956-4.166-2.435-5.569
		c-0.263-0.291-0.571-0.554-0.929-0.776l-96.048-59.439c-2.173-1.366-4.949-1.376-7.131-0.025l-95.819,58.841
		c-0.058,0.036-0.108,0.078-0.164,0.116c-2.404,1.236-4.067,3.682-4.217,6.533l103.629,64.095L-117.045,101.317z"/>
	<path id="XMLID_642_" style="opacity:0.05;" d="M-146.697,209.241h-147.031c-5.523,0-10-4.477-10-10v-92.004
		c0-5.523,4.477-10,10-10h147.031c5.523,0,10,4.477,10,10v92.004C-136.697,204.763-141.174,209.241-146.697,209.241z"/>
	<path id="XMLID_641_" style="fill:#FFFFFF;" d="M-148.733,205.672h-142.958c-5.523,0-10-4.477-10-10v-86.014
		c0-5.523,4.477-10,10-10h142.958c5.523,0,10,4.477,10,10v86.014C-138.733,201.195-143.21,205.672-148.733,205.672z"/>
	<path id="XMLID_640_" style="opacity:0.05;" d="M-321.017,225.043l100.992-62.464l-103.629-64.095
		c-0.007,0.137-0.029,0.271-0.029,0.41v120.284C-323.683,221.518-322.648,223.612-321.017,225.043z"/>
	<path id="XMLID_639_" style="opacity:0.05;" d="M-119.711,225.109l-100.992-62.464l103.629-64.095
		c0.007,0.137,0.029,0.271,0.029,0.41v120.284C-117.045,221.584-118.08,223.678-119.711,225.109z"/>
	<path id="XMLID_638_" style="opacity:0.05;" d="M-220.155,162.658l-101.129,62.214c1.391,1.28,3.241,2.067,5.279,2.067h191.161
		c2.126,0,4.051-0.852,5.459-2.23L-220.155,162.658z"/>
	<path id="XMLID_637_" style="fill:#225099;" d="M-321.017,227.602l100.992-62.464l-103.629-64.095
		c-0.007,0.137-0.029,0.271-0.029,0.41v120.284C-323.683,224.076-322.648,226.17-321.017,227.602z"/>
	<path id="XMLID_636_" style="fill:#225099;" d="M-119.711,227.668l-100.992-62.464l103.629-64.095
		c0.007,0.137,0.029,0.271,0.029,0.41v120.284C-117.045,224.143-118.08,226.237-119.711,227.668z"/>
	<path id="XMLID_635_" style="fill:#252D76;" d="M-220.155,165.217l-101.129,62.214c1.391,1.28,3.241,2.067,5.279,2.067h191.161
		c2.126,0,4.051-0.852,5.459-2.23L-220.155,165.217z"/>
</g>
<g id="XMLID_395_">
	<path id="XMLID_763_" style="fill:#E9F4FD;" d="M455.538,255.351H317.239V128.511h94.126
		c22.794,22.779,22.314,22.348,44.173,44.173V255.351z"/>
	<linearGradient id="XMLID_55_" gradientUnits="userSpaceOnUse" x1="301.3137" y1="301.6454" x2="450.8149" y2="152.1441">
		<stop  offset="0.1935" style="stop-color:#252D76"/>
		<stop  offset="1" style="stop-color:#225099"/>
	</linearGradient>
	<path id="XMLID_760_" style="fill:url(#XMLID_55_);" d="M463.711,165.041l-44.872-44.872c-0.35-0.35-0.824-0.546-1.319-0.546
		h-99.403c-5.674,0-10.274,4.6-10.274,10.274V303.92c0,5.674,4.6,10.274,10.274,10.274h135.865c5.674,0,10.274-4.6,10.274-10.274
		V166.36C464.258,165.865,464.061,165.39,463.711,165.041z M455.538,254.858H317.239V128.511h94.362v33.932
		c0,5.674,4.6,10.274,10.274,10.274h33.662V254.858z"/>
	<rect id="XMLID_758_" x="384.893" y="135.685" style="fill:#4F4F4F;" width="12.829" height="5.294"/>
	<rect id="XMLID_757_" x="372.064" y="128.511" style="fill:#4F4F4F;" width="12.829" height="3.966"/>
	<rect id="XMLID_756_" x="372.064" y="143.608" style="fill:#4F4F4F;" width="12.829" height="5.294"/>
	<rect id="XMLID_755_" x="384.893" y="152.275" style="fill:#4F4F4F;" width="12.829" height="5.294"/>
	<rect id="XMLID_754_" x="384.893" y="169.002" style="fill:#4F4F4F;" width="12.829" height="5.294"/>
	<rect id="XMLID_753_" x="372.064" y="160.5" style="fill:#4F4F4F;" width="12.829" height="5.294"/>
	<path id="XMLID_750_" style="fill:#4F4F4F;" d="M384.893,178.619c-9.084,0-13.405,7.36-13.405,16.446l-3.041,27.553
		c0,9.086,7.36,16.451,16.443,16.451c9.083,0,16.44-7.365,16.44-16.451l-3.032-27.553
		C398.302,185.981,393.977,178.619,384.893,178.619z M390.343,231.843h-10.888v-23.001h10.888V231.843z"/>
	
		<text id="XMLID_749_" transform="matrix(0.819 0 0 1 346.6356 304.2307)" style="fill:#FFFFFF; font-family:'Montserrat-Bold'; font-size:55.6074px;">ZIP</text>
</g>
</svg>
