<?xml version="1.0" encoding="iso-8859-1"?>
<!-- Generator: Adobe Illustrator 19.0.0, SVG Export Plug-In . SVG Version: 6.00 Build 0)  -->
<svg version="1.1" id="Layer_1" xmlns="http://www.w3.org/2000/svg" xmlns:xlink="http://www.w3.org/1999/xlink" x="0px" y="0px"
	 viewBox="0 0 18 18" style="enable-background:new 0 0 18 18;" xml:space="preserve">
<g id="XMLID_476_">
	<path id="XMLID_430_" style="fill:#E9F4FD;" d="M-220.504-64.831h-138.6V-242.79h94.331c22.843,22.829,22.363,22.397,44.27,44.27
		V-64.831z"/>
	<polygon id="XMLID_429_" style="fill:#D3E8FA;" points="-359.104,-242.79 -220.504,-116.044 -220.504,-64.831 -359.104,-64.831 	
		"/>
	<polygon id="XMLID_428_" style="opacity:0.1;fill:#5273DD;" points="-359.104,-242.79 -220.504,-116.044 -220.504,-64.831 
		-359.104,-64.831 	"/>
	<polygon id="XMLID_427_" style="opacity:0.1;fill:#4057B5;" points="-359.104,-207.022 -220.504,-80.276 -220.504,-64.831 
		-359.104,-64.831 	"/>
	<polygon id="XMLID_426_" style="opacity:0.1;fill:#2F3D8E;" points="-359.104,-172.88 -241.639,-64.831 -359.104,-64.831 	"/>
	<linearGradient id="XMLID_12_" gradientUnits="userSpaceOnUse" x1="-375.0647" y1="-69.2778" x2="-225.2373" y2="-219.1052">
		<stop  offset="0.1935" style="stop-color:#252D76"/>
		<stop  offset="1" style="stop-color:#225099"/>
	</linearGradient>
	<path id="XMLID_423_" style="fill:url(#XMLID_12_);" d="M-212.313-206.181l-44.969-44.969c-0.351-0.351-0.826-0.548-1.322-0.548
		h-99.619c-5.687,0-10.297,4.61-10.297,10.297v174.402c0,5.687,4.61,10.297,10.297,10.297h136.162
		c5.687,0,10.297-4.61,10.297-10.297v-137.86C-211.765-205.354-211.962-205.83-212.313-206.181z M-220.504-66.253h-138.6V-242.79
		h94.568v34.007c0,5.687,4.61,10.297,10.297,10.297h33.736V-66.253z"/>
	<linearGradient id="XMLID_13_" gradientUnits="userSpaceOnUse" x1="-385.1284" y1="-94.711" x2="-284.8138" y2="-195.0256">
		<stop  offset="0.1935" style="stop-color:#252D76"/>
		<stop  offset="1" style="stop-color:#225099"/>
	</linearGradient>
	<path id="XMLID_422_" style="fill:url(#XMLID_13_);" d="M-286.416-94.231h-97.111c-1.496,0-2.708-1.213-2.708-2.708v-95.858
		c0-1.496,1.213-2.708,2.708-2.708h97.111c1.496,0,2.708,1.213,2.708,2.708v95.858C-283.707-95.444-284.92-94.231-286.416-94.231z"
		/>
	<g id="XMLID_419_">
		<path id="XMLID_420_" style="fill:#FFFFFF;" d="M-301.162-170.878l-13.879,51.804h-10.546l-9.333-35.079l-9.637,35.079h-10.485
			l-13.939-51.804h10.182l9.576,36.41l10-36.41h9.091l9.697,36.706l9.879-36.706H-301.162z"/>
	</g>
</g>
<g id="XMLID_475_">
	<path id="XMLID_418_" style="fill:#E9F4FD;" d="M65.496-64.831h-138.6V-242.79h94.331c22.843,22.829,22.363,22.397,44.27,44.27
		V-64.831z"/>
	<polygon id="XMLID_417_" style="opacity:0.1;fill:#5273DD;" points="-73.104,-242.79 65.496,-116.044 65.496,-64.831 
		-73.104,-64.831 	"/>
	<polygon id="XMLID_416_" style="opacity:0.1;fill:#4057B5;" points="-73.104,-207.022 65.496,-80.276 65.496,-64.831 
		-73.104,-64.831 	"/>
	<polygon id="XMLID_415_" style="opacity:0.1;fill:#2F3D8E;" points="-73.104,-172.88 44.361,-64.831 -73.104,-64.831 	"/>
	<linearGradient id="XMLID_14_" gradientUnits="userSpaceOnUse" x1="-89.0647" y1="-69.2778" x2="60.7627" y2="-219.1052">
		<stop  offset="0.1935" style="stop-color:#252D76"/>
		<stop  offset="1" style="stop-color:#225099"/>
	</linearGradient>
	<path id="XMLID_412_" style="fill:url(#XMLID_14_);" d="M73.687-206.181L28.718-251.15c-0.351-0.351-0.826-0.548-1.322-0.548
		h-99.619c-5.687,0-10.297,4.61-10.297,10.297v174.402c0,5.687,4.61,10.297,10.297,10.297H63.938c5.687,0,10.297-4.61,10.297-10.297
		v-137.86C74.235-205.354,74.038-205.83,73.687-206.181z M65.496-66.253h-138.6V-242.79h94.568v34.007
		c0,5.687,4.61,10.297,10.297,10.297h33.736V-66.253z"/>
	<linearGradient id="XMLID_15_" gradientUnits="userSpaceOnUse" x1="-99.1284" y1="-94.711" x2="1.1862" y2="-195.0256">
		<stop  offset="0.1935" style="stop-color:#252D76"/>
		<stop  offset="1" style="stop-color:#225099"/>
	</linearGradient>
	<path id="XMLID_411_" style="fill:url(#XMLID_15_);" d="M-0.416-94.231h-97.111c-1.496,0-2.708-1.213-2.708-2.708v-95.858
		c0-1.496,1.213-2.708,2.708-2.708h97.111c1.496,0,2.708,1.213,2.708,2.708v95.858C2.293-95.444,1.08-94.231-0.416-94.231z"/>
	<g id="XMLID_433_">
		<path id="XMLID_434_" style="fill:#FFFFFF;" d="M-36.767-119.074l-12.713-17.983l-12.487,17.983h-13.992l19.483-26.346
			l-18.506-25.458h13.842l12.111,16.799l11.886-16.799h13.165l-18.355,25.014l19.634,26.79H-36.767z"/>
	</g>
</g>
<g id="XMLID_477_">
	<path id="XMLID_410_" style="fill:#E9F4FD;" d="M351.565-64.831H212.964V-242.79h94.331c22.843,22.829,22.363,22.397,44.27,44.27
		V-64.831z"/>
	<polygon id="XMLID_409_" style="fill:#D3E8FA;" points="212.964,-242.79 351.565,-116.044 351.565,-64.831 212.964,-64.831 	"/>
	<polygon id="XMLID_408_" style="opacity:0.1;fill:#5273DD;" points="212.964,-242.79 351.565,-116.044 351.565,-64.831 
		212.964,-64.831 	"/>
	<polygon id="XMLID_407_" style="opacity:0.1;fill:#4057B5;" points="212.964,-207.022 351.565,-80.276 351.565,-64.831 
		212.964,-64.831 	"/>
	<polygon id="XMLID_406_" style="opacity:0.1;fill:#2F3D8E;" points="212.964,-172.88 330.429,-64.831 212.964,-64.831 	"/>
	<linearGradient id="XMLID_16_" gradientUnits="userSpaceOnUse" x1="197.0037" y1="-69.2778" x2="346.8311" y2="-219.1052">
		<stop  offset="0.1935" style="stop-color:#252D76"/>
		<stop  offset="1" style="stop-color:#225099"/>
	</linearGradient>
	<path id="XMLID_403_" style="fill:url(#XMLID_16_);" d="M359.756-206.181l-44.969-44.969c-0.351-0.351-0.826-0.548-1.322-0.548
		h-99.619c-5.687,0-10.297,4.61-10.297,10.297v174.402c0,5.687,4.61,10.297,10.297,10.297h136.162
		c5.687,0,10.297-4.61,10.297-10.297v-137.86C360.303-205.354,360.106-205.83,359.756-206.181z M351.565-66.254H212.964V-242.79
		h94.568v34.007c0,5.687,4.61,10.297,10.297,10.297h33.736V-66.254z"/>
	<linearGradient id="XMLID_17_" gradientUnits="userSpaceOnUse" x1="198.0535" y1="-159.2393" x2="276.1409" y2="-237.3267">
		<stop  offset="0.1935" style="stop-color:#252D76"/>
		<stop  offset="1" style="stop-color:#225099"/>
	</linearGradient>
	<path id="XMLID_402_" style="fill:url(#XMLID_17_);" d="M287.663-171.051H186.531c-0.385,0-0.698-0.312-0.698-0.698v-53.069
		c0-0.385,0.312-0.698,0.698-0.698h101.132c0.385,0,0.698,0.312,0.698,0.698v53.069
		C288.361-171.363,288.049-171.051,287.663-171.051z"/>
	<g id="XMLID_448_">
		<path id="XMLID_449_" style="fill:#FFFFFF;" d="M223.031-200.832c0,6.087-3.924,9.871-10.196,9.871h-4.729v7.53h-5.433v-27.312
			h10.162C219.107-210.742,223.031-206.958,223.031-200.832z M217.531-200.832c0-3.004-1.677-4.76-4.998-4.76h-4.427v9.48h4.427
			C215.853-196.111,217.531-197.867,217.531-200.832z"/>
		<path id="XMLID_452_" style="fill:#FFFFFF;" d="M226.887-210.742h10.666c7.68,0,12.946,5.384,12.946,13.655
			s-5.266,13.656-12.946,13.656h-10.666V-210.742z M237.284-188.62c4.662,0,7.714-3.238,7.714-8.467
			c0-5.228-3.052-8.466-7.714-8.466h-4.964v16.933H237.284z"/>
		<path id="XMLID_455_" style="fill:#FFFFFF;" d="M260.021-205.67v7.218h10.867v5.072h-10.867v9.949h-5.433v-27.312h17.742v5.072
			H260.021z"/>
	</g>
	
		<linearGradient id="XMLID_18_" gradientUnits="userSpaceOnUse" x1="225.5992" y1="-145.3739" x2="311.6725" y2="-145.3739" gradientTransform="matrix(0.9987 0.0503 -0.0503 0.9987 7.1832 12.2385)">
		<stop  offset="0.1935" style="stop-color:#252D76"/>
		<stop  offset="1" style="stop-color:#225099"/>
	</linearGradient>
	<path id="XMLID_396_" style="fill:url(#XMLID_18_);" d="M286.131-152.983c-1.151,5.942-2.316,11.881-3.437,17.829
		c-0.168,0.891-0.423,1.926-0.139,2.715c2.532,7.05,6.199,13.355,11.59,18.719c3.527,3.509,7.563,3.04,11.868,3.097
		c4.916,0.065,9.902,0.525,14.708,1.529c3.836,0.801,4.959,3.438,4.116,7.11c-0.824,3.589-2.641,4.959-6.64,4.596
		c-6.653-0.605-12.814-2.94-18.485-6.309c-2.686-1.596-5.239-1.979-8.113-1.434c-8.251,1.566-16.516,3.071-24.727,4.83
		c-1.257,0.269-2.423,1.618-3.339,2.712c-4.201,5.021-8.027,10.386-12.517,15.125c-3.569,3.767-7.158,3.855-10.952,1.652
		c-2.067-1.2-2.801-2.943-1.525-4.825c1.719-2.537,3.56-5.206,5.953-7.021c3.522-2.672,7.464-4.871,11.448-6.82
		c2.317-1.133,4.098-2.511,5.33-4.699c4.708-8.362,9.505-16.677,14.037-25.134c0.774-1.444,0.795-3.563,0.506-5.258
		c-1.157-6.805-2.57-13.571-1.852-20.535c0.533-5.168,2.088-6.7,6.426-6.464c3.676,0.2,5.589,2.709,5.54,7.271
		c-0.005,0.422-0.04,0.843-0.061,1.264C285.955-153.016,286.043-152.999,286.131-152.983z M278.84-124.113
		c-3.534,6.374-7.182,12.954-10.849,19.568c7.558-1.705,14.942-3.371,22.019-4.968C286.314-114.344,282.575-119.231,278.84-124.113z
		 M280.238-159.315c-1.396,5.988-1.163,11.608,0.064,17.637C283.97-146.703,284.011-156.807,280.238-159.315z M307.467-105.974
		c3.917,2.19,7.793,4.432,12.421,4.335c0.812-0.017,1.613-0.546,2.42-0.838c-0.562-0.756-0.965-1.887-1.713-2.206
		C316.406-106.467,311.962-106.347,307.467-105.974z M243.454-83.588c5.659-2.873,8.947-7.973,12.356-12.96
		C250.978-92.898,246.066-89.324,243.454-83.588z"/>
</g>
<g id="XMLID_734_">
	<linearGradient id="XMLID_19_" gradientUnits="userSpaceOnUse" x1="-299" y1="165.0938" x2="-299" y2="34.5021">
		<stop  offset="0.1935" style="stop-color:#252D76"/>
		<stop  offset="1" style="stop-color:#225099"/>
	</linearGradient>
	<path id="XMLID_643_" style="fill:url(#XMLID_19_);" d="M-195.628,101.317c-0.026-2.193-0.956-4.166-2.435-5.569
		c-0.263-0.291-0.571-0.554-0.929-0.776l-96.048-59.439c-2.173-1.366-4.949-1.376-7.131-0.025l-95.819,58.841
		c-0.058,0.036-0.108,0.078-0.164,0.116c-2.404,1.236-4.067,3.682-4.217,6.533l103.629,64.095L-195.628,101.317z"/>
	<path id="XMLID_642_" style="opacity:0.05;" d="M-225.28,209.241h-147.031c-5.523,0-10-4.477-10-10v-92.004c0-5.523,4.477-10,10-10
		h147.031c5.523,0,10,4.477,10,10v92.004C-215.28,204.763-219.758,209.241-225.28,209.241z"/>
	<path id="XMLID_641_" style="fill:#FFFFFF;" d="M-227.317,205.672h-142.958c-5.523,0-10-4.477-10-10v-86.014
		c0-5.523,4.477-10,10-10h142.958c5.523,0,10,4.477,10,10v86.014C-217.317,201.195-221.794,205.672-227.317,205.672z"/>
	<path id="XMLID_640_" style="opacity:0.05;" d="M-399.6,225.043l100.992-62.464l-103.629-64.095
		c-0.007,0.137-0.029,0.271-0.029,0.41v120.284C-402.266,221.518-401.231,223.612-399.6,225.043z"/>
	<path id="XMLID_639_" style="opacity:0.05;" d="M-198.295,225.109l-100.992-62.464l103.629-64.095
		c0.007,0.137,0.029,0.271,0.029,0.41v120.284C-195.628,221.584-196.663,223.678-198.295,225.109z"/>
	<path id="XMLID_638_" style="opacity:0.05;" d="M-298.738,162.658l-101.129,62.214c1.391,1.28,3.241,2.067,5.279,2.067h191.161
		c2.126,0,4.051-0.852,5.459-2.23L-298.738,162.658z"/>
	<path id="XMLID_637_" style="fill:#225099;" d="M-399.6,227.602l100.992-62.464l-103.629-64.095
		c-0.007,0.137-0.029,0.271-0.029,0.41v120.284C-402.266,224.076-401.231,226.17-399.6,227.602z"/>
	<path id="XMLID_636_" style="fill:#225099;" d="M-198.295,227.668l-100.992-62.464l103.629-64.095
		c0.007,0.137,0.029,0.271,0.029,0.41v120.284C-195.628,224.143-196.663,226.237-198.295,227.668z"/>
	<path id="XMLID_635_" style="fill:#252D76;" d="M-298.738,165.217l-101.129,62.214c1.391,1.28,3.241,2.067,5.279,2.067h191.161
		c2.126,0,4.051-0.852,5.459-2.23L-298.738,165.217z"/>
</g>
<g id="XMLID_395_">
	<path id="XMLID_763_" style="fill:#E9F4FD;" d="M376.955,255.351H238.656V128.511h94.126
		c22.794,22.779,22.314,22.348,44.173,44.173V255.351z"/>
	<linearGradient id="XMLID_20_" gradientUnits="userSpaceOnUse" x1="222.7304" y1="301.6454" x2="372.2316" y2="152.1441">
		<stop  offset="0.1935" style="stop-color:#252D76"/>
		<stop  offset="1" style="stop-color:#225099"/>
	</linearGradient>
	<path id="XMLID_760_" style="fill:url(#XMLID_20_);" d="M385.128,165.041l-44.872-44.872c-0.35-0.35-0.824-0.546-1.319-0.546
		h-99.403c-5.674,0-10.274,4.6-10.274,10.274V303.92c0,5.674,4.6,10.274,10.274,10.274H375.4c5.674,0,10.274-4.6,10.274-10.274
		V166.36C385.675,165.865,385.478,165.39,385.128,165.041z M376.955,254.858H238.656V128.511h94.362v33.932
		c0,5.674,4.6,10.274,10.274,10.274h33.662V254.858z"/>
	<rect id="XMLID_758_" x="306.31" y="135.685" style="fill:#4F4F4F;" width="12.829" height="5.294"/>
	<rect id="XMLID_757_" x="293.48" y="128.511" style="fill:#4F4F4F;" width="12.829" height="3.966"/>
	<rect id="XMLID_756_" x="293.48" y="143.608" style="fill:#4F4F4F;" width="12.829" height="5.294"/>
	<rect id="XMLID_755_" x="306.31" y="152.275" style="fill:#4F4F4F;" width="12.829" height="5.294"/>
	<rect id="XMLID_754_" x="306.31" y="169.002" style="fill:#4F4F4F;" width="12.829" height="5.294"/>
	<rect id="XMLID_753_" x="293.48" y="160.5" style="fill:#4F4F4F;" width="12.829" height="5.294"/>
	<path id="XMLID_750_" style="fill:#4F4F4F;" d="M306.31,178.619c-9.084,0-13.405,7.36-13.405,16.446l-3.041,27.553
		c0,9.086,7.36,16.451,16.443,16.451c9.083,0,16.44-7.365,16.44-16.451l-3.032-27.553
		C319.719,185.981,315.394,178.619,306.31,178.619z M311.76,231.843h-10.888v-23.001h10.888V231.843z"/>
	
		<text id="XMLID_749_" transform="matrix(0.819 0 0 1 268.0523 304.2307)" style="fill:#FFFFFF; font-family:'Montserrat-Bold'; font-size:55.6074px;">ZIP</text>
</g>
<g id="XMLID_32_">
	<g id="XMLID_379_">
		<path id="XMLID_392_" style="fill:#E9F4FD;" d="M14.712,12.33H3.344V1.734h7.737c1.874,1.872,1.834,1.837,3.631,3.631V12.33z"/>
		<linearGradient id="XMLID_47_" gradientUnits="userSpaceOnUse" x1="2.0349" y1="15.9651" x2="14.3234" y2="3.6766">
			<stop  offset="0.1935" style="stop-color:#252D76"/>
			<stop  offset="1" style="stop-color:#225099"/>
		</linearGradient>
		<path id="XMLID_385_" style="fill:url(#XMLID_47_);" d="M15.383,4.737l-3.688-3.688c-0.029-0.029-0.068-0.045-0.108-0.045H3.416
			c-0.466,0-0.845,0.378-0.845,0.845v14.304c0,0.466,0.378,0.845,0.845,0.845h11.168c0.466,0,0.845-0.378,0.845-0.845V4.845
			C15.428,4.804,15.412,4.765,15.383,4.737z M14.712,12.213H3.344V1.734H11.1v2.789c0,0.466,0.378,0.845,0.845,0.845h2.767V12.213z"
			/>
	</g>
	<g id="XMLID_1_">
		<path id="XMLID_2_" style="fill:#FFFFFF;" d="M8.189,15.569v0.603H5.901v-0.479l1.436-2.112H5.931v-0.602h2.202v0.479
			l-1.432,2.112H8.189z"/>
		<path id="XMLID_4_" style="fill:#FFFFFF;" d="M8.581,12.979h0.605v3.193H8.581V12.979z"/>
		<path id="XMLID_8_" style="fill:#FFFFFF;" d="M12.077,14.137c0,0.712-0.437,1.154-1.136,1.154h-0.527v0.881H9.808v-3.193h1.133
			C11.64,12.979,12.077,13.421,12.077,14.137z M11.465,14.137c0-0.351-0.188-0.557-0.558-0.557h-0.493v1.109h0.493
			C11.277,14.689,11.465,14.483,11.465,14.137z"/>
	</g>
	<rect id="XMLID_56_" x="8.903" y="2.326" style="fill:#4F4F4F;" width="1.054" height="0.435"/>
	<rect id="XMLID_55_" x="7.849" y="1.736" style="fill:#4F4F4F;" width="1.054" height="0.326"/>
	<rect id="XMLID_54_" x="7.849" y="2.977" style="fill:#4F4F4F;" width="1.054" height="0.435"/>
	<rect id="XMLID_53_" x="8.903" y="3.689" style="fill:#4F4F4F;" width="1.054" height="0.435"/>
	<rect id="XMLID_52_" x="8.903" y="5.063" style="fill:#4F4F4F;" width="1.054" height="0.435"/>
	<rect id="XMLID_51_" x="7.849" y="4.365" style="fill:#4F4F4F;" width="1.054" height="0.435"/>
	<path id="XMLID_48_" style="fill:#4F4F4F;" d="M8.903,5.854c-0.746,0-1.102,0.605-1.102,1.351l-0.25,2.264
		c0,0.747,0.605,1.352,1.351,1.352c0.746,0,1.351-0.605,1.351-1.352l-0.249-2.264C10.005,6.459,9.65,5.854,8.903,5.854z
		 M9.351,10.227H8.456v-1.89h0.895V10.227z"/>
</g>
</svg>
