<?xml version="1.0" encoding="iso-8859-1"?>
<!-- Generator: Adobe Illustrator 19.0.0, SVG Export Plug-In . SVG Version: 6.00 Build 0)  -->
<svg version="1.1" id="Layer_1" xmlns="http://www.w3.org/2000/svg" xmlns:xlink="http://www.w3.org/1999/xlink" x="0px" y="0px"
	 viewBox="0 0 18 18" style="enable-background:new 0 0 18 18;" xml:space="preserve">
<g id="XMLID_163_">
	<path id="XMLID_202_" style="fill:#E9F4FD;" d="M15.438,16.33H4.07V1.734h7.737c1.874,1.872,1.834,1.837,3.631,3.631V16.33z"/>
	<polygon id="XMLID_201_" style="fill:#D3E8FA;" points="4.07,1.734 15.438,12.129 15.438,16.33 4.07,16.33 	"/>
	<polygon id="XMLID_200_" style="opacity:0.1;fill:#5273DD;" points="4.07,1.734 15.438,12.129 15.438,16.33 4.07,16.33 	"/>
	<polygon id="XMLID_199_" style="opacity:0.1;fill:#4057B5;" points="4.07,4.668 15.438,15.063 15.438,16.33 4.07,16.33 	"/>
	<polygon id="XMLID_198_" style="opacity:0.1;fill:#2F3D8E;" points="4.07,7.468 13.705,16.33 4.07,16.33 	"/>
	<linearGradient id="XMLID_2_" gradientUnits="userSpaceOnUse" x1="2.7613" y1="15.9651" x2="15.0499" y2="3.6766">
		<stop  offset="0.1935" style="stop-color:#252D76"/>
		<stop  offset="1" style="stop-color:#225099"/>
	</linearGradient>
	<path id="XMLID_195_" style="fill:url(#XMLID_2_);" d="M16.11,4.737l-3.688-3.688c-0.029-0.029-0.068-0.045-0.108-0.045H4.143
		c-0.466,0-0.845,0.378-0.845,0.845v14.304c0,0.466,0.378,0.845,0.845,0.845H15.31c0.466,0,0.845-0.378,0.845-0.845V4.845
		C16.155,4.804,16.139,4.765,16.11,4.737z M15.438,16.213H4.07V1.734h7.756v2.789c0,0.466,0.378,0.845,0.845,0.845h2.767V16.213z"/>
	<linearGradient id="XMLID_3_" gradientUnits="userSpaceOnUse" x1="2.1637" y1="13.6513" x2="9.9357" y2="5.8794">
		<stop  offset="0.1935" style="stop-color:#252D76"/>
		<stop  offset="1" style="stop-color:#225099"/>
	</linearGradient>
	<path id="XMLID_193_" style="fill:url(#XMLID_3_);" d="M9.254,13.919H2.845c-0.552,0-1-0.448-1-1V6.612c0-0.552,0.448-1,1-1h6.409
		c0.552,0,1,0.448,1,1v6.306C10.254,13.471,9.807,13.919,9.254,13.919z"/>
	<g id="XMLID_447_">
		<path id="XMLID_457_" style="fill:#FFFFFF;" d="M7.072,11.881l-1.043-1.475l-1.024,1.475H3.857L5.455,9.72L3.938,7.632h1.135
			L6.066,9.01l0.975-1.378h1.08L6.615,9.684l1.61,2.197H7.072z"/>
	</g>
</g>
<g id="XMLID_476_">
	<path id="XMLID_430_" style="fill:#E9F4FD;" d="M-161.337-64.831h-138.601V-242.79h94.331c22.843,22.829,22.363,22.397,44.27,44.27
		V-64.831z"/>
	<polygon id="XMLID_429_" style="fill:#D3E8FA;" points="-299.938,-242.79 -161.337,-116.044 -161.337,-64.831 -299.938,-64.831 	
		"/>
	<polygon id="XMLID_428_" style="opacity:0.1;fill:#5273DD;" points="-299.938,-242.79 -161.337,-116.044 -161.337,-64.831 
		-299.938,-64.831 	"/>
	<polygon id="XMLID_427_" style="opacity:0.1;fill:#4057B5;" points="-299.938,-207.022 -161.337,-80.276 -161.337,-64.831 
		-299.938,-64.831 	"/>
	<polygon id="XMLID_426_" style="opacity:0.1;fill:#2F3D8E;" points="-299.938,-172.88 -182.473,-64.831 -299.938,-64.831 	"/>
	<linearGradient id="XMLID_4_" gradientUnits="userSpaceOnUse" x1="-315.898" y1="-69.2778" x2="-166.0706" y2="-219.1052">
		<stop  offset="0.1935" style="stop-color:#252D76"/>
		<stop  offset="1" style="stop-color:#225099"/>
	</linearGradient>
	<path id="XMLID_423_" style="fill:url(#XMLID_4_);" d="M-153.146-206.181l-44.969-44.969c-0.351-0.351-0.826-0.548-1.322-0.548
		h-99.619c-5.687,0-10.297,4.61-10.297,10.297v174.402c0,5.687,4.61,10.297,10.297,10.297h136.162
		c5.687,0,10.297-4.61,10.297-10.297v-137.86C-152.598-205.354-152.795-205.83-153.146-206.181z M-161.337-66.253h-138.601V-242.79
		h94.568v34.007c0,5.687,4.61,10.297,10.297,10.297h33.736V-66.253z"/>
	<linearGradient id="XMLID_7_" gradientUnits="userSpaceOnUse" x1="-325.9618" y1="-94.711" x2="-225.6471" y2="-195.0256">
		<stop  offset="0.1935" style="stop-color:#252D76"/>
		<stop  offset="1" style="stop-color:#225099"/>
	</linearGradient>
	<path id="XMLID_422_" style="fill:url(#XMLID_7_);" d="M-227.249-94.231h-97.111c-1.496,0-2.708-1.213-2.708-2.708v-95.858
		c0-1.496,1.213-2.708,2.708-2.708h97.111c1.496,0,2.708,1.213,2.708,2.708v95.858C-224.541-95.444-225.753-94.231-227.249-94.231z"
		/>
	<g id="XMLID_419_">
		<path id="XMLID_420_" style="fill:#FFFFFF;" d="M-241.995-170.878l-13.879,51.804h-10.546l-9.333-35.079l-9.637,35.079h-10.485
			l-13.939-51.804h10.182l9.576,36.41l10-36.41h9.091l9.697,36.706l9.879-36.706H-241.995z"/>
	</g>
</g>
<g id="XMLID_475_">
	<path id="XMLID_418_" style="fill:#E9F4FD;" d="M124.663-64.831h-138.6V-242.79h94.331c22.843,22.829,22.363,22.397,44.269,44.27
		V-64.831z"/>
	<polygon id="XMLID_417_" style="opacity:0.1;fill:#5273DD;" points="-13.938,-242.79 124.663,-116.044 124.663,-64.831 
		-13.938,-64.831 	"/>
	<polygon id="XMLID_416_" style="opacity:0.1;fill:#4057B5;" points="-13.938,-207.022 124.663,-80.276 124.663,-64.831 
		-13.938,-64.831 	"/>
	<polygon id="XMLID_415_" style="opacity:0.1;fill:#2F3D8E;" points="-13.938,-172.88 103.527,-64.831 -13.938,-64.831 	"/>
	<linearGradient id="XMLID_8_" gradientUnits="userSpaceOnUse" x1="-29.898" y1="-69.2778" x2="119.9294" y2="-219.1052">
		<stop  offset="0.1935" style="stop-color:#252D76"/>
		<stop  offset="1" style="stop-color:#225099"/>
	</linearGradient>
	<path id="XMLID_412_" style="fill:url(#XMLID_8_);" d="M132.854-206.181L87.885-251.15c-0.351-0.351-0.826-0.548-1.322-0.548
		h-99.619c-5.687,0-10.297,4.61-10.297,10.297v174.402c0,5.687,4.61,10.297,10.297,10.297h136.162
		c5.687,0,10.297-4.61,10.297-10.297v-137.86C133.402-205.354,133.205-205.83,132.854-206.181z M124.663-66.253h-138.6V-242.79
		h94.568v34.007c0,5.687,4.61,10.297,10.297,10.297h33.736V-66.253z"/>
	<linearGradient id="XMLID_9_" gradientUnits="userSpaceOnUse" x1="-39.9618" y1="-94.711" x2="60.3529" y2="-195.0256">
		<stop  offset="0.1935" style="stop-color:#252D76"/>
		<stop  offset="1" style="stop-color:#225099"/>
	</linearGradient>
	<path id="XMLID_411_" style="fill:url(#XMLID_9_);" d="M58.751-94.231H-38.36c-1.496,0-2.708-1.213-2.708-2.708v-95.858
		c0-1.496,1.213-2.708,2.708-2.708h97.111c1.496,0,2.708,1.213,2.708,2.708v95.858C61.459-95.444,60.247-94.231,58.751-94.231z"/>
	<g id="XMLID_433_">
		<path id="XMLID_434_" style="fill:#FFFFFF;" d="M22.4-119.074L9.687-137.057L-2.8-119.074h-13.992L2.691-145.42l-18.506-25.458
			h13.842l12.111,16.799l11.886-16.799h13.165l-18.355,25.014l19.634,26.79H22.4z"/>
	</g>
</g>
<g id="XMLID_477_">
	<path id="XMLID_410_" style="fill:#E9F4FD;" d="M410.731-64.831h-138.6V-242.79h94.331c22.843,22.829,22.363,22.397,44.27,44.27
		V-64.831z"/>
	<polygon id="XMLID_409_" style="fill:#D3E8FA;" points="272.131,-242.79 410.731,-116.044 410.731,-64.831 272.131,-64.831 	"/>
	<polygon id="XMLID_408_" style="opacity:0.1;fill:#5273DD;" points="272.131,-242.79 410.731,-116.044 410.731,-64.831 
		272.131,-64.831 	"/>
	<polygon id="XMLID_407_" style="opacity:0.1;fill:#4057B5;" points="272.131,-207.022 410.731,-80.276 410.731,-64.831 
		272.131,-64.831 	"/>
	<polygon id="XMLID_406_" style="opacity:0.1;fill:#2F3D8E;" points="272.131,-172.88 389.596,-64.831 272.131,-64.831 	"/>
	<linearGradient id="XMLID_10_" gradientUnits="userSpaceOnUse" x1="256.1703" y1="-69.2778" x2="405.9977" y2="-219.1052">
		<stop  offset="0.1935" style="stop-color:#252D76"/>
		<stop  offset="1" style="stop-color:#225099"/>
	</linearGradient>
	<path id="XMLID_403_" style="fill:url(#XMLID_10_);" d="M418.922-206.181l-44.969-44.969c-0.351-0.351-0.826-0.548-1.322-0.548
		h-99.619c-5.687,0-10.297,4.61-10.297,10.297v174.402c0,5.687,4.61,10.297,10.297,10.297h136.162
		c5.687,0,10.297-4.61,10.297-10.297v-137.86C419.47-205.354,419.273-205.83,418.922-206.181z M410.731-66.254h-138.6V-242.79
		h94.568v34.007c0,5.687,4.61,10.297,10.297,10.297h33.736V-66.254z"/>
	<linearGradient id="XMLID_11_" gradientUnits="userSpaceOnUse" x1="257.2202" y1="-159.2393" x2="335.3076" y2="-237.3267">
		<stop  offset="0.1935" style="stop-color:#252D76"/>
		<stop  offset="1" style="stop-color:#225099"/>
	</linearGradient>
	<path id="XMLID_402_" style="fill:url(#XMLID_11_);" d="M346.83-171.051H245.698c-0.385,0-0.698-0.312-0.698-0.698v-53.069
		c0-0.385,0.312-0.698,0.698-0.698H346.83c0.385,0,0.698,0.312,0.698,0.698v53.069C347.528-171.363,347.215-171.051,346.83-171.051z
		"/>
	<g id="XMLID_448_">
		<path id="XMLID_449_" style="fill:#FFFFFF;" d="M282.197-200.832c0,6.087-3.924,9.871-10.196,9.871h-4.729v7.53h-5.433v-27.312
			h10.162C278.274-210.742,282.197-206.958,282.197-200.832z M276.697-200.832c0-3.004-1.677-4.76-4.998-4.76h-4.427v9.48h4.427
			C275.02-196.111,276.697-197.867,276.697-200.832z"/>
		<path id="XMLID_452_" style="fill:#FFFFFF;" d="M286.053-210.742h10.666c7.68,0,12.946,5.384,12.946,13.655
			s-5.266,13.656-12.946,13.656h-10.666V-210.742z M296.45-188.62c4.662,0,7.714-3.238,7.714-8.467c0-5.228-3.052-8.466-7.714-8.466
			h-4.964v16.933H296.45z"/>
		<path id="XMLID_455_" style="fill:#FFFFFF;" d="M319.188-205.67v7.218h10.867v5.072h-10.867v9.949h-5.433v-27.312h17.742v5.072
			H319.188z"/>
	</g>
	
		<linearGradient id="XMLID_12_" gradientUnits="userSpaceOnUse" x1="284.7659" y1="-145.3739" x2="370.8391" y2="-145.3739" gradientTransform="matrix(0.9987 0.0503 -0.0503 0.9987 7.2581 9.2623)">
		<stop  offset="0.1935" style="stop-color:#252D76"/>
		<stop  offset="1" style="stop-color:#225099"/>
	</linearGradient>
	<path id="XMLID_396_" style="fill:url(#XMLID_12_);" d="M345.298-152.983c-1.151,5.942-2.316,11.881-3.437,17.829
		c-0.168,0.891-0.423,1.926-0.139,2.715c2.532,7.05,6.199,13.355,11.59,18.719c3.527,3.509,7.563,3.04,11.868,3.097
		c4.916,0.065,9.902,0.525,14.708,1.529c3.836,0.801,4.959,3.438,4.116,7.11c-0.824,3.589-2.641,4.959-6.64,4.596
		c-6.653-0.605-12.814-2.94-18.485-6.309c-2.686-1.596-5.239-1.979-8.113-1.434c-8.251,1.566-16.516,3.071-24.726,4.83
		c-1.257,0.269-2.423,1.618-3.339,2.712c-4.201,5.021-8.027,10.386-12.517,15.125c-3.569,3.767-7.158,3.855-10.952,1.652
		c-2.067-1.2-2.801-2.943-1.525-4.825c1.719-2.537,3.56-5.206,5.953-7.021c3.522-2.672,7.464-4.871,11.448-6.82
		c2.317-1.133,4.098-2.511,5.33-4.699c4.708-8.362,9.505-16.677,14.037-25.134c0.774-1.444,0.795-3.563,0.506-5.258
		c-1.157-6.805-2.57-13.571-1.852-20.535c0.533-5.168,2.088-6.7,6.426-6.464c3.676,0.2,5.589,2.709,5.54,7.271
		c-0.005,0.422-0.04,0.843-0.061,1.264C345.122-153.016,345.21-152.999,345.298-152.983z M338.006-124.113
		c-3.534,6.374-7.182,12.954-10.849,19.568c7.558-1.705,14.942-3.371,22.019-4.968C345.481-114.344,341.742-119.231,338.006-124.113
		z M339.405-159.315c-1.396,5.988-1.163,11.608,0.064,17.637C343.136-146.703,343.178-156.807,339.405-159.315z M366.634-105.974
		c3.917,2.19,7.793,4.432,12.421,4.335c0.812-0.017,1.613-0.546,2.42-0.838c-0.562-0.756-0.965-1.887-1.713-2.206
		C375.573-106.467,371.129-106.347,366.634-105.974z M302.621-83.588c5.659-2.873,8.947-7.973,12.356-12.96
		C310.145-92.898,305.232-89.324,302.621-83.588z"/>
</g>
<g id="XMLID_734_">
	<linearGradient id="XMLID_13_" gradientUnits="userSpaceOnUse" x1="-239.8333" y1="165.0938" x2="-239.8333" y2="34.5021">
		<stop  offset="0.1935" style="stop-color:#252D76"/>
		<stop  offset="1" style="stop-color:#225099"/>
	</linearGradient>
	<path id="XMLID_643_" style="fill:url(#XMLID_13_);" d="M-136.462,101.317c-0.026-2.193-0.956-4.166-2.435-5.569
		c-0.263-0.291-0.571-0.554-0.929-0.776l-96.048-59.439c-2.173-1.366-4.949-1.376-7.131-0.025l-95.819,58.841
		c-0.058,0.036-0.108,0.078-0.164,0.116c-2.404,1.236-4.067,3.682-4.217,6.533l103.629,64.095L-136.462,101.317z"/>
	<path id="XMLID_642_" style="opacity:0.05;" d="M-166.114,209.241h-147.031c-5.523,0-10-4.477-10-10v-92.004
		c0-5.523,4.477-10,10-10h147.031c5.523,0,10,4.477,10,10v92.004C-156.114,204.763-160.591,209.241-166.114,209.241z"/>
	<path id="XMLID_641_" style="fill:#FFFFFF;" d="M-168.15,205.672h-142.958c-5.523,0-10-4.477-10-10v-86.014c0-5.523,4.477-10,10-10
		h142.958c5.523,0,10,4.477,10,10v86.014C-158.15,201.195-162.627,205.672-168.15,205.672z"/>
	<path id="XMLID_640_" style="opacity:0.05;" d="M-340.433,225.043l100.992-62.464L-343.07,98.484
		c-0.007,0.137-0.029,0.271-0.029,0.41v120.284C-343.1,221.518-342.065,223.612-340.433,225.043z"/>
	<path id="XMLID_639_" style="opacity:0.05;" d="M-139.128,225.109l-100.992-62.464l103.629-64.095
		c0.007,0.137,0.029,0.271,0.029,0.41v120.284C-136.462,221.584-137.497,223.678-139.128,225.109z"/>
	<path id="XMLID_638_" style="opacity:0.05;" d="M-239.572,162.658l-101.129,62.214c1.391,1.28,3.241,2.067,5.279,2.067h191.161
		c2.126,0,4.051-0.852,5.459-2.23L-239.572,162.658z"/>
	<path id="XMLID_637_" style="fill:#225099;" d="M-340.433,227.602l100.992-62.464l-103.629-64.095
		c-0.007,0.137-0.029,0.271-0.029,0.41v120.284C-343.1,224.076-342.065,226.17-340.433,227.602z"/>
	<path id="XMLID_636_" style="fill:#225099;" d="M-139.128,227.668l-100.992-62.464l103.629-64.095
		c0.007,0.137,0.029,0.271,0.029,0.41v120.284C-136.462,224.143-137.497,226.237-139.128,227.668z"/>
	<path id="XMLID_635_" style="fill:#252D76;" d="M-239.572,165.217l-101.129,62.214c1.391,1.28,3.241,2.067,5.279,2.067h191.161
		c2.126,0,4.051-0.852,5.459-2.23L-239.572,165.217z"/>
</g>
<g id="XMLID_395_">
	<path id="XMLID_763_" style="fill:#E9F4FD;" d="M436.121,255.351H297.823V128.511h94.126
		c22.793,22.779,22.314,22.348,44.173,44.173V255.351z"/>
	<linearGradient id="XMLID_14_" gradientUnits="userSpaceOnUse" x1="281.897" y1="301.6454" x2="431.3983" y2="152.1441">
		<stop  offset="0.1935" style="stop-color:#252D76"/>
		<stop  offset="1" style="stop-color:#225099"/>
	</linearGradient>
	<path id="XMLID_760_" style="fill:url(#XMLID_14_);" d="M444.295,165.041l-44.872-44.872c-0.35-0.35-0.824-0.546-1.319-0.546
		h-99.403c-5.674,0-10.274,4.6-10.274,10.274V303.92c0,5.674,4.6,10.274,10.274,10.274h135.865c5.674,0,10.274-4.6,10.274-10.274
		V166.36C444.841,165.865,444.645,165.39,444.295,165.041z M436.121,254.858H297.823V128.511h94.362v33.932
		c0,5.674,4.6,10.274,10.274,10.274h33.662V254.858z"/>
	<rect id="XMLID_758_" x="365.476" y="135.685" style="fill:#4F4F4F;" width="12.829" height="5.294"/>
	<rect id="XMLID_757_" x="352.647" y="128.511" style="fill:#4F4F4F;" width="12.829" height="3.966"/>
	<rect id="XMLID_756_" x="352.647" y="143.608" style="fill:#4F4F4F;" width="12.829" height="5.294"/>
	<rect id="XMLID_755_" x="365.476" y="152.275" style="fill:#4F4F4F;" width="12.829" height="5.294"/>
	<rect id="XMLID_754_" x="365.476" y="169.002" style="fill:#4F4F4F;" width="12.829" height="5.294"/>
	<rect id="XMLID_753_" x="352.647" y="160.5" style="fill:#4F4F4F;" width="12.829" height="5.294"/>
	<path id="XMLID_750_" style="fill:#4F4F4F;" d="M365.476,178.619c-9.084,0-13.405,7.36-13.405,16.446l-3.041,27.553
		c0,9.086,7.36,16.451,16.443,16.451c9.083,0,16.44-7.365,16.44-16.451l-3.032-27.553
		C378.886,185.981,374.561,178.619,365.476,178.619z M370.927,231.843h-10.888v-23.001h10.888V231.843z"/>
	
		<text id="XMLID_749_" transform="matrix(0.819 0 0 1 327.2189 304.2307)" style="fill:#FFFFFF; font-family:'Montserrat-Bold'; font-size:55.6074px;">ZIP</text>
</g>
</svg>
