<?xml version="1.0" encoding="iso-8859-1"?>
<!-- Generator: Adobe Illustrator 19.0.0, SVG Export Plug-In . SVG Version: 6.00 Build 0)  -->
<svg version="1.1" id="Layer_1" xmlns="http://www.w3.org/2000/svg" xmlns:xlink="http://www.w3.org/1999/xlink" x="0px" y="0px"
	 viewBox="0 0 18 18" style="enable-background:new 0 0 18 18;" xml:space="preserve">
<g id="XMLID_476_">
	<path id="XMLID_430_" style="fill:#E9F4FD;" d="M-200.587-64.831h-138.601V-242.79h94.331c22.843,22.829,22.363,22.397,44.27,44.27
		V-64.831z"/>
	<polygon id="XMLID_429_" style="fill:#D3E8FA;" points="-339.188,-242.79 -200.587,-116.044 -200.587,-64.831 -339.188,-64.831 	
		"/>
	<polygon id="XMLID_428_" style="opacity:0.1;fill:#5273DD;" points="-339.188,-242.79 -200.587,-116.044 -200.587,-64.831 
		-339.188,-64.831 	"/>
	<polygon id="XMLID_427_" style="opacity:0.1;fill:#4057B5;" points="-339.188,-207.022 -200.587,-80.276 -200.587,-64.831 
		-339.188,-64.831 	"/>
	<polygon id="XMLID_426_" style="opacity:0.1;fill:#2F3D8E;" points="-339.188,-172.88 -221.723,-64.831 -339.188,-64.831 	"/>
	<linearGradient id="XMLID_2_" gradientUnits="userSpaceOnUse" x1="-355.148" y1="-69.2778" x2="-205.3206" y2="-219.1052">
		<stop  offset="0.1935" style="stop-color:#252D76"/>
		<stop  offset="1" style="stop-color:#225099"/>
	</linearGradient>
	<path id="XMLID_423_" style="fill:url(#XMLID_2_);" d="M-192.396-206.181l-44.969-44.969c-0.351-0.351-0.826-0.548-1.322-0.548
		h-99.619c-5.687,0-10.297,4.61-10.297,10.297v174.402c0,5.687,4.61,10.297,10.297,10.297h136.162
		c5.687,0,10.297-4.61,10.297-10.297v-137.86C-191.848-205.354-192.045-205.83-192.396-206.181z M-200.587-66.253h-138.601V-242.79
		h94.568v34.007c0,5.687,4.61,10.297,10.297,10.297h33.736V-66.253z"/>
	<linearGradient id="XMLID_3_" gradientUnits="userSpaceOnUse" x1="-365.2118" y1="-94.711" x2="-264.8971" y2="-195.0256">
		<stop  offset="0.1935" style="stop-color:#252D76"/>
		<stop  offset="1" style="stop-color:#225099"/>
	</linearGradient>
	<path id="XMLID_422_" style="fill:url(#XMLID_3_);" d="M-266.499-94.231h-97.111c-1.496,0-2.708-1.213-2.708-2.708v-95.858
		c0-1.496,1.213-2.708,2.708-2.708h97.111c1.496,0,2.708,1.213,2.708,2.708v95.858C-263.791-95.444-265.003-94.231-266.499-94.231z"
		/>
	<g id="XMLID_419_">
		<path id="XMLID_420_" style="fill:#FFFFFF;" d="M-281.245-170.878l-13.879,51.804h-10.546l-9.333-35.079l-9.637,35.079h-10.485
			l-13.939-51.804h10.182l9.576,36.41l10-36.41h9.091l9.697,36.706l9.879-36.706H-281.245z"/>
	</g>
</g>
<g id="XMLID_475_">
	<path id="XMLID_418_" style="fill:#E9F4FD;" d="M85.413-64.831h-138.6V-242.79h94.331c22.843,22.829,22.363,22.397,44.269,44.27
		V-64.831z"/>
	<polygon id="XMLID_417_" style="opacity:0.1;fill:#5273DD;" points="-53.188,-242.79 85.413,-116.044 85.413,-64.831 
		-53.188,-64.831 	"/>
	<polygon id="XMLID_416_" style="opacity:0.1;fill:#4057B5;" points="-53.188,-207.022 85.413,-80.276 85.413,-64.831 
		-53.188,-64.831 	"/>
	<polygon id="XMLID_415_" style="opacity:0.1;fill:#2F3D8E;" points="-53.188,-172.88 64.277,-64.831 -53.188,-64.831 	"/>
	<linearGradient id="XMLID_4_" gradientUnits="userSpaceOnUse" x1="-69.148" y1="-69.2778" x2="80.6794" y2="-219.1052">
		<stop  offset="0.1935" style="stop-color:#252D76"/>
		<stop  offset="1" style="stop-color:#225099"/>
	</linearGradient>
	<path id="XMLID_412_" style="fill:url(#XMLID_4_);" d="M93.604-206.181L48.635-251.15c-0.351-0.351-0.826-0.548-1.322-0.548
		h-99.619c-5.687,0-10.297,4.61-10.297,10.297v174.402c0,5.687,4.61,10.297,10.297,10.297H83.855c5.687,0,10.297-4.61,10.297-10.297
		v-137.86C94.152-205.354,93.955-205.83,93.604-206.181z M85.413-66.253h-138.6V-242.79h94.568v34.007
		c0,5.687,4.61,10.297,10.297,10.297h33.736V-66.253z"/>
	<linearGradient id="XMLID_7_" gradientUnits="userSpaceOnUse" x1="-79.2118" y1="-94.711" x2="21.1029" y2="-195.0256">
		<stop  offset="0.1935" style="stop-color:#252D76"/>
		<stop  offset="1" style="stop-color:#225099"/>
	</linearGradient>
	<path id="XMLID_411_" style="fill:url(#XMLID_7_);" d="M19.501-94.231H-77.61c-1.496,0-2.708-1.213-2.708-2.708v-95.858
		c0-1.496,1.213-2.708,2.708-2.708h97.111c1.496,0,2.708,1.213,2.708,2.708v95.858C22.209-95.444,20.997-94.231,19.501-94.231z"/>
	<g id="XMLID_433_">
		<path id="XMLID_434_" style="fill:#FFFFFF;" d="M-16.85-119.074l-12.713-17.983l-12.487,17.983h-13.992l19.483-26.346
			l-18.506-25.458h13.842l12.111,16.799l11.886-16.799h13.165l-18.355,25.014l19.634,26.79H-16.85z"/>
	</g>
</g>
<g id="XMLID_477_">
	<path id="XMLID_410_" style="fill:#E9F4FD;" d="M371.481-64.831h-138.6V-242.79h94.331c22.843,22.829,22.363,22.397,44.27,44.27
		V-64.831z"/>
	<polygon id="XMLID_409_" style="fill:#D3E8FA;" points="232.881,-242.79 371.481,-116.044 371.481,-64.831 232.881,-64.831 	"/>
	<polygon id="XMLID_408_" style="opacity:0.1;fill:#5273DD;" points="232.881,-242.79 371.481,-116.044 371.481,-64.831 
		232.881,-64.831 	"/>
	<polygon id="XMLID_407_" style="opacity:0.1;fill:#4057B5;" points="232.881,-207.022 371.481,-80.276 371.481,-64.831 
		232.881,-64.831 	"/>
	<polygon id="XMLID_406_" style="opacity:0.1;fill:#2F3D8E;" points="232.881,-172.88 350.346,-64.831 232.881,-64.831 	"/>
	<linearGradient id="XMLID_8_" gradientUnits="userSpaceOnUse" x1="216.9203" y1="-69.2778" x2="366.7477" y2="-219.1052">
		<stop  offset="0.1935" style="stop-color:#252D76"/>
		<stop  offset="1" style="stop-color:#225099"/>
	</linearGradient>
	<path id="XMLID_403_" style="fill:url(#XMLID_8_);" d="M379.672-206.181l-44.969-44.969c-0.351-0.351-0.826-0.548-1.322-0.548
		h-99.619c-5.687,0-10.297,4.61-10.297,10.297v174.402c0,5.687,4.61,10.297,10.297,10.297h136.162
		c5.687,0,10.297-4.61,10.297-10.297v-137.86C380.22-205.354,380.023-205.83,379.672-206.181z M371.481-66.254h-138.6V-242.79
		h94.568v34.007c0,5.687,4.61,10.297,10.297,10.297h33.736V-66.254z"/>
	<linearGradient id="XMLID_9_" gradientUnits="userSpaceOnUse" x1="217.9702" y1="-159.2393" x2="296.0576" y2="-237.3267">
		<stop  offset="0.1935" style="stop-color:#252D76"/>
		<stop  offset="1" style="stop-color:#225099"/>
	</linearGradient>
	<path id="XMLID_402_" style="fill:url(#XMLID_9_);" d="M307.58-171.051H206.448c-0.385,0-0.698-0.312-0.698-0.698v-53.069
		c0-0.385,0.312-0.698,0.698-0.698H307.58c0.385,0,0.698,0.312,0.698,0.698v53.069C308.278-171.363,307.965-171.051,307.58-171.051z
		"/>
	<g id="XMLID_448_">
		<path id="XMLID_449_" style="fill:#FFFFFF;" d="M242.947-200.832c0,6.087-3.924,9.871-10.196,9.871h-4.729v7.53h-5.433v-27.312
			h10.162C239.024-210.742,242.947-206.958,242.947-200.832z M237.447-200.832c0-3.004-1.677-4.76-4.998-4.76h-4.427v9.48h4.427
			C235.77-196.111,237.447-197.867,237.447-200.832z"/>
		<path id="XMLID_452_" style="fill:#FFFFFF;" d="M246.803-210.742h10.666c7.68,0,12.946,5.384,12.946,13.655
			s-5.266,13.656-12.946,13.656h-10.666V-210.742z M257.2-188.62c4.662,0,7.714-3.238,7.714-8.467c0-5.228-3.052-8.466-7.714-8.466
			h-4.964v16.933H257.2z"/>
		<path id="XMLID_455_" style="fill:#FFFFFF;" d="M279.938-205.67v7.218h10.867v5.072h-10.867v9.949h-5.433v-27.312h17.742v5.072
			H279.938z"/>
	</g>
	
		<linearGradient id="XMLID_10_" gradientUnits="userSpaceOnUse" x1="245.5159" y1="-145.3739" x2="331.5891" y2="-145.3739" gradientTransform="matrix(0.9987 0.0503 -0.0503 0.9987 7.2084 11.2367)">
		<stop  offset="0.1935" style="stop-color:#252D76"/>
		<stop  offset="1" style="stop-color:#225099"/>
	</linearGradient>
	<path id="XMLID_396_" style="fill:url(#XMLID_10_);" d="M306.048-152.983c-1.151,5.942-2.316,11.881-3.437,17.829
		c-0.168,0.891-0.423,1.926-0.139,2.715c2.532,7.05,6.199,13.355,11.59,18.719c3.527,3.509,7.563,3.04,11.868,3.097
		c4.916,0.065,9.902,0.525,14.708,1.529c3.836,0.801,4.959,3.438,4.116,7.11c-0.824,3.589-2.641,4.959-6.64,4.596
		c-6.653-0.605-12.814-2.94-18.485-6.309c-2.686-1.596-5.239-1.979-8.113-1.434c-8.251,1.566-16.516,3.071-24.726,4.83
		c-1.257,0.269-2.423,1.618-3.339,2.712c-4.201,5.021-8.027,10.386-12.517,15.125c-3.569,3.767-7.158,3.855-10.952,1.652
		c-2.067-1.2-2.801-2.943-1.525-4.825c1.719-2.537,3.56-5.206,5.953-7.021c3.522-2.672,7.464-4.871,11.448-6.82
		c2.317-1.133,4.098-2.511,5.33-4.699c4.708-8.362,9.505-16.677,14.037-25.134c0.774-1.444,0.795-3.563,0.506-5.258
		c-1.157-6.805-2.57-13.571-1.852-20.535c0.533-5.168,2.088-6.7,6.426-6.464c3.676,0.2,5.589,2.709,5.54,7.271
		c-0.005,0.422-0.04,0.843-0.061,1.264C305.872-153.016,305.96-152.999,306.048-152.983z M298.756-124.113
		c-3.534,6.374-7.182,12.954-10.849,19.568c7.558-1.705,14.942-3.371,22.019-4.968C306.231-114.344,302.492-119.231,298.756-124.113
		z M300.155-159.315c-1.396,5.988-1.163,11.608,0.064,17.637C303.886-146.703,303.928-156.807,300.155-159.315z M327.384-105.974
		c3.917,2.19,7.793,4.432,12.421,4.335c0.812-0.017,1.613-0.546,2.42-0.838c-0.562-0.756-0.965-1.887-1.713-2.206
		C336.323-106.467,331.879-106.347,327.384-105.974z M263.371-83.588c5.659-2.873,8.947-7.973,12.356-12.96
		C270.895-92.898,265.982-89.324,263.371-83.588z"/>
</g>
<g id="XMLID_734_">
	<linearGradient id="XMLID_11_" gradientUnits="userSpaceOnUse" x1="-279.0833" y1="165.0938" x2="-279.0833" y2="34.5021">
		<stop  offset="0.1935" style="stop-color:#252D76"/>
		<stop  offset="1" style="stop-color:#225099"/>
	</linearGradient>
	<path id="XMLID_643_" style="fill:url(#XMLID_11_);" d="M-175.712,101.317c-0.026-2.193-0.956-4.166-2.435-5.569
		c-0.263-0.291-0.571-0.554-0.929-0.776l-96.048-59.439c-2.173-1.366-4.949-1.376-7.131-0.025l-95.819,58.841
		c-0.058,0.036-0.108,0.078-0.164,0.116c-2.404,1.236-4.067,3.682-4.217,6.533l103.629,64.095L-175.712,101.317z"/>
	<path id="XMLID_642_" style="opacity:0.05;" d="M-205.364,209.241h-147.031c-5.523,0-10-4.477-10-10v-92.004
		c0-5.523,4.477-10,10-10h147.031c5.523,0,10,4.477,10,10v92.004C-195.364,204.763-199.841,209.241-205.364,209.241z"/>
	<path id="XMLID_641_" style="fill:#FFFFFF;" d="M-207.4,205.672h-142.958c-5.523,0-10-4.477-10-10v-86.014c0-5.523,4.477-10,10-10
		H-207.4c5.523,0,10,4.477,10,10v86.014C-197.4,201.195-201.877,205.672-207.4,205.672z"/>
	<path id="XMLID_640_" style="opacity:0.05;" d="M-379.683,225.043l100.992-62.464L-382.32,98.484
		c-0.007,0.137-0.029,0.271-0.029,0.41v120.284C-382.35,221.518-381.315,223.612-379.683,225.043z"/>
	<path id="XMLID_639_" style="opacity:0.05;" d="M-178.378,225.109l-100.992-62.464l103.629-64.095
		c0.007,0.137,0.029,0.271,0.029,0.41v120.284C-175.712,221.584-176.747,223.678-178.378,225.109z"/>
	<path id="XMLID_638_" style="opacity:0.05;" d="M-278.822,162.658l-101.129,62.214c1.391,1.28,3.241,2.067,5.279,2.067h191.161
		c2.126,0,4.051-0.852,5.459-2.23L-278.822,162.658z"/>
	<path id="XMLID_637_" style="fill:#225099;" d="M-379.683,227.602l100.992-62.464l-103.629-64.095
		c-0.007,0.137-0.029,0.271-0.029,0.41v120.284C-382.35,224.076-381.315,226.17-379.683,227.602z"/>
	<path id="XMLID_636_" style="fill:#225099;" d="M-178.378,227.668l-100.992-62.464l103.629-64.095
		c0.007,0.137,0.029,0.271,0.029,0.41v120.284C-175.712,224.143-176.747,226.237-178.378,227.668z"/>
	<path id="XMLID_635_" style="fill:#252D76;" d="M-278.822,165.217l-101.129,62.214c1.391,1.28,3.241,2.067,5.279,2.067h191.161
		c2.126,0,4.051-0.852,5.459-2.23L-278.822,165.217z"/>
</g>
<g id="XMLID_395_">
	<path id="XMLID_763_" style="fill:#E9F4FD;" d="M396.871,255.351H258.573V128.511h94.126
		c22.793,22.779,22.314,22.348,44.173,44.173V255.351z"/>
	<linearGradient id="XMLID_12_" gradientUnits="userSpaceOnUse" x1="242.647" y1="301.6454" x2="392.1483" y2="152.1441">
		<stop  offset="0.1935" style="stop-color:#252D76"/>
		<stop  offset="1" style="stop-color:#225099"/>
	</linearGradient>
	<path id="XMLID_760_" style="fill:url(#XMLID_12_);" d="M405.045,165.041l-44.872-44.872c-0.35-0.35-0.824-0.546-1.319-0.546
		h-99.403c-5.674,0-10.274,4.6-10.274,10.274V303.92c0,5.674,4.6,10.274,10.274,10.274h135.865c5.674,0,10.274-4.6,10.274-10.274
		V166.36C405.591,165.865,405.395,165.39,405.045,165.041z M396.871,254.858H258.573V128.511h94.362v33.932
		c0,5.674,4.6,10.274,10.274,10.274h33.662V254.858z"/>
	<rect id="XMLID_758_" x="326.226" y="135.685" style="fill:#4F4F4F;" width="12.829" height="5.294"/>
	<rect id="XMLID_757_" x="313.397" y="128.511" style="fill:#4F4F4F;" width="12.829" height="3.966"/>
	<rect id="XMLID_756_" x="313.397" y="143.608" style="fill:#4F4F4F;" width="12.829" height="5.294"/>
	<rect id="XMLID_755_" x="326.226" y="152.275" style="fill:#4F4F4F;" width="12.829" height="5.294"/>
	<rect id="XMLID_754_" x="326.226" y="169.002" style="fill:#4F4F4F;" width="12.829" height="5.294"/>
	<rect id="XMLID_753_" x="313.397" y="160.5" style="fill:#4F4F4F;" width="12.829" height="5.294"/>
	<path id="XMLID_750_" style="fill:#4F4F4F;" d="M326.226,178.619c-9.084,0-13.405,7.36-13.405,16.446l-3.041,27.553
		c0,9.086,7.36,16.451,16.443,16.451c9.083,0,16.44-7.365,16.44-16.451l-3.032-27.553
		C339.636,185.981,335.311,178.619,326.226,178.619z M331.677,231.843h-10.888v-23.001h10.888V231.843z"/>
	
		<text id="XMLID_749_" transform="matrix(0.819 0 0 1 287.9689 304.2307)" style="fill:#FFFFFF; font-family:'Montserrat-Bold'; font-size:55.6074px;">ZIP</text>
</g>
<g id="XMLID_612_">
	<linearGradient id="XMLID_13_" gradientUnits="userSpaceOnUse" x1="9" y1="11.5226" x2="9" y2="1.5682">
		<stop  offset="0.1935" style="stop-color:#252D76"/>
		<stop  offset="1" style="stop-color:#225099"/>
	</linearGradient>
	<path id="XMLID_621_" style="fill:url(#XMLID_13_);" d="M16.88,6.661c-0.002-0.167-0.073-0.318-0.186-0.424
		c-0.02-0.022-0.044-0.042-0.071-0.059L9.302,1.647C9.136,1.543,8.925,1.542,8.758,1.645L1.454,6.13
		C1.45,6.133,1.446,6.136,1.442,6.139C1.259,6.233,1.132,6.42,1.12,6.637l7.899,4.886L16.88,6.661z"/>
	<path id="XMLID_620_" style="opacity:0.05;" d="M14.682,14.888H3.35c-0.387,0-0.7-0.313-0.7-0.7V7.05c0-0.387,0.313-0.7,0.7-0.7
		h11.332c0.387,0,0.7,0.313,0.7,0.7v7.138C15.382,14.574,15.068,14.888,14.682,14.888z"/>
	<path id="XMLID_619_" style="fill:#FFFFFF;" d="M14.526,14.616H3.505c-0.387,0-0.7-0.313-0.7-0.7V7.235c0-0.387,0.313-0.7,0.7-0.7
		h11.021c0.387,0,0.7,0.313,0.7,0.7v6.681C15.226,14.302,14.913,14.616,14.526,14.616z"/>
	<path id="XMLID_618_" style="opacity:0.05;" d="M1.332,16.092l7.698-4.761L1.131,6.445C1.13,6.456,1.129,6.466,1.129,6.476v9.169
		C1.129,15.823,1.207,15.983,1.332,16.092z"/>
	<path id="XMLID_617_" style="opacity:0.05;" d="M16.676,16.097l-7.698-4.761l7.899-4.886c0.001,0.01,0.002,0.021,0.002,0.031v9.169
		C16.88,15.829,16.801,15.988,16.676,16.097z"/>
	<path id="XMLID_616_" style="opacity:0.05;" d="M9.02,11.337l-7.709,4.742c0.106,0.098,0.247,0.158,0.402,0.158h14.571
		c0.162,0,0.309-0.065,0.416-0.17L9.02,11.337z"/>
	<path id="XMLID_615_" style="fill:#225099;" d="M1.332,16.287l7.698-4.761L1.131,6.64C1.13,6.651,1.129,6.661,1.129,6.671v9.169
		C1.129,16.019,1.207,16.178,1.332,16.287z"/>
	<path id="XMLID_614_" style="fill:#225099;" d="M16.676,16.292l-7.698-4.761l7.899-4.886c0.001,0.01,0.002,0.021,0.002,0.031v9.169
		C16.88,16.024,16.801,16.183,16.676,16.292z"/>
	<path id="XMLID_613_" style="fill:#252D76;" d="M9.02,11.532l-7.709,4.742c0.106,0.098,0.247,0.158,0.402,0.158h14.571
		c0.162,0,0.309-0.065,0.416-0.17L9.02,11.532z"/>
</g>
</svg>
