<svg width="952" height="692" xmlns="http://www.w3.org/2000/svg" xmlns:xlink="http://www.w3.org/1999/xlink" xml:space="preserve" overflow="hidden"><defs><clipPath id="clip0"><rect x="1724" y="644" width="952" height="692"/></clipPath></defs><g clip-path="url(#clip0)" transform="translate(-1724 -644)"><path d="M2665.22 1335.99 1734.79 1335.99C1728.83 1335.99 1724.01 1331.15 1724.01 1325.2L1724 654.792C1724 648.828 1728.83 644 1734.78 644L2665.21 644C2671.17 644 2676 648.837 2676 654.792L2676 1325.2C2676.01 1331.16 2671.17 1336 2665.22 1336ZM1745.57 1314.4 2654.44 1314.4 2654.43 665.585 1745.59 665.585Z" fill="#616161" fill-rule="evenodd"/><path d="M1933.58 1068C1887.57 1068 1841.21 1062.77 1795.81 1052.47 1790.89 1051.36 1787.4 1046.97 1787.4 1041.92 1787.4 1030.89 1787.28 1021.38 1787.17 1012.98 1786.75 982.728 1786.55 967.542 1793.65 954.913 1800.9 942.014 1814.2 935.084 1838.35 922.505 1847.92 917.519 1859.83 911.31 1874.05 903.371 1877.69 901.34 1882.16 901.579 1885.55 903.996L1934.55 938.837 1983.55 903.996C1986.95 901.588 1991.42 901.34 1995.06 903.371 2008.91 911.113 2020.61 917.236 2030 922.152 2080.74 948.702 2082.68 952.12 2081.89 1013.66 2081.78 1021.88 2081.66 1031.19 2081.66 1041.91 2081.66 1046.99 2078.14 1051.38 2073.19 1052.47 2026.55 1062.78 1979.58 1068 1933.58 1068ZM1808.97 1033.22C1850.12 1041.94 1891.98 1046.37 1933.58 1046.36 1975.25 1046.36 2017.77 1041.93 2060.09 1033.17 2060.14 1025.9 2060.22 1019.37 2060.3 1013.4 2060.63 987.578 2060.81 973.35 2056.49 965.667 2052.3 958.233 2041.51 952.589 2020.01 941.335 2011.87 937.07 2002.02 931.922 1990.51 925.575L1940.79 960.923C1937.05 963.585 1932.04 963.585 1928.3 960.923L1878.58 925.575C1866.71 932.102 1856.64 937.359 1848.3 941.703 1827.17 952.716 1816.56 958.241 1812.46 965.529 1808.22 973.083 1808.41 987.146 1808.75 1012.69 1808.83 1018.87 1808.92 1025.65 1808.97 1033.22Z" fill="#616161" fill-rule="evenodd"/><path d="M1935.49 892C1883.23 892 1857 823.834 1857 785.668 1857 743.391 1892.21 709 1935.49 709 1978.78 709 2014 743.391 2014 785.668 2013.99 823.826 1987.76 892 1935.49 892ZM1935.49 730.582C1904.13 730.582 1878.62 755.293 1878.62 785.668 1878.62 815.547 1900.21 870.409 1935.49 870.409 1970.78 870.409 1992.37 815.538 1992.37 785.668 1992.37 755.293 1966.86 730.582 1935.49 730.582Z" fill="#616161" fill-rule="evenodd"/><path d="M2540.23 831 2296.77 831C2290.82 831 2286 826.07 2286 819.999 2286 813.93 2290.83 809 2296.77 809L2540.23 809C2546.18 809 2551 813.93 2551 819.999 2551 826.07 2546.18 831 2540.23 831Z" fill="#616161" fill-rule="evenodd"/><path d="M2540.22 924 2167.78 924C2161.83 924 2157 919.07 2157 912.999 2157 906.93 2161.83 902 2167.78 902L2540.22 902C2546.18 902 2551 906.93 2551 912.999 2551 919.079 2546.18 924 2540.22 924Z" fill="#616161" fill-rule="evenodd"/><path d="M2277.23 1017 2167.77 1017C2161.83 1017 2157 1012.07 2157 1006 2157 999.921 2161.83 995 2167.77 995L2277.23 995C2283.18 995 2288 999.93 2288 1006 2288 1012.08 2283.17 1017 2277.23 1017Z" fill="#616161" fill-rule="evenodd"/><path d="M2540.22 1110 2167.78 1110C2161.83 1110 2157 1105.07 2157 1099 2157 1092.92 2161.83 1088 2167.78 1088L2540.22 1088C2546.18 1088 2551 1092.93 2551 1099 2551 1105.08 2546.18 1110 2540.22 1110Z" fill="#616161" fill-rule="evenodd"/><path d="M2549.21 1017 2374.79 1017C2368.84 1017 2364 1012.07 2364 1006 2364 999.921 2368.84 995 2374.79 995L2549.21 995C2555.16 995 2560 999.93 2560 1006 2560 1012.08 2555.17 1017 2549.21 1017Z" fill="#616161" fill-rule="evenodd"/><path d="M2549.21 1232 1734.79 1232C1728.83 1232 1724 1227.29 1724 1221.5 1724 1215.7 1728.84 1211 1734.79 1211L2549.21 1211C2555.16 1211 2560 1215.71 2560 1221.5 2559.99 1227.29 2555.16 1232 2549.2 1232Z" fill="#616161" fill-rule="evenodd"/></g></svg>