<svg width="464" height="472" xmlns="http://www.w3.org/2000/svg" xmlns:xlink="http://www.w3.org/1999/xlink" xml:space="preserve" overflow="hidden"><defs><clipPath id="clip0"><rect x="1968" y="754" width="464" height="472"/></clipPath></defs><g clip-path="url(#clip0)" transform="translate(-1968 -754)"><path d="M2432 993.353C2431.99 1044.86 2414.95 1094.9 2383.53 1135.65 2352.12 1176.39 2308.12 1205.53 2258.42 1218.5 2208.72 1231.47 2156.15 1227.54 2108.91 1207.31 2061.69 1187.1 2022.48 1151.73 1997.44 1106.77 1972.41 1061.8 1962.95 1009.77 1970.56 958.835 1978.17 907.897 2002.42 860.936 2039.49 825.307 2046.18 819.324 2056.38 819.727 2062.58 826.211 2068.78 832.701 2068.74 842.943 2062.49 849.383 2024.08 886.294 2002.02 937.114 2001.26 990.461 2000.49 1043.81 2021.09 1095.24 2058.44 1133.24 2095.79 1171.24 2146.77 1192.64 2199.96 1192.64 2253.16 1192.64 2304.14 1171.24 2341.49 1133.24 2378.83 1095.24 2399.44 1043.82 2398.67 990.461 2397.91 937.107 2375.86 886.291 2337.44 849.383 2334.25 846.319 2332.41 842.113 2332.32 837.69 2332.23 833.265 2333.89 828.98 2336.94 825.789 2343.31 819.134 2353.84 818.916 2360.47 825.292 2383.17 846.955 2401.22 873.028 2413.51 901.93 2425.81 930.827 2432.1 961.939 2431.99 993.359ZM2200 1018.32C2209.19 1018.32 2216.63 1010.85 2216.63 1001.64L2216.63 770.683C2216.63 761.467 2209.19 754 2200 754 2190.81 754 2183.37 761.467 2183.37 770.683L2183.37 1001.64C2183.37 1010.85 2190.81 1018.32 2200 1018.32Z" fill="#274584" fill-rule="evenodd"/></g></svg>