<svg width="576" height="576" xmlns="http://www.w3.org/2000/svg" xmlns:xlink="http://www.w3.org/1999/xlink" xml:space="preserve" overflow="hidden"><defs><clipPath id="clip0"><rect x="1912" y="702" width="576" height="576"/></clipPath></defs><g clip-path="url(#clip0)" transform="translate(-1912 -702)"><path d="M2297 990C2297 936.113 2253.89 893 2200 893 2146.11 893 2103 936.112 2103 990 2103 1043.89 2146.11 1087 2200 1087 2253.89 1087 2297 1043.89 2297 990ZM2200 1063.05C2159.29 1063.05 2126.95 1030.72 2126.95 990 2126.95 949.286 2159.28 916.95 2200 916.95 2240.71 916.95 2273.05 949.281 2273.05 990 2273.05 1030.71 2240.71 1063.05 2200 1063.05Z" fill="#616161" fill-rule="evenodd"/><path d="M2023.6 1209.6C2017.6 1184.4 1996 1165.2 1968.4 1165.2 1937.2 1165.2 1912 1190.4 1912 1221.6 1912 1252.8 1937.2 1278 1968.4 1278 1996 1278 2017.6 1258.8 2023.6 1233.6L2200 1233.6C2207.2 1233.6 2212 1228.8 2212 1221.6L2212 1198.8 2231.2 1198.8C2237.2 1198.8 2242 1195.2 2243.2 1189.2L2255.2 1137.6C2258.8 1136.4 2262.4 1135.2 2264.8 1132.8L2309.2 1160.4C2314 1162.8 2320 1162.8 2323.6 1159.2L2368 1114.8C2371.6 1111.2 2372.8 1105.2 2369.2 1100.4L2341.6 1054.8C2342.8 1051.2 2344 1047.6 2346.4 1044L2398 1032C2404 1030.8 2407.6 1026 2407.6 1020L2407.6 1002 2419.6 1002 2419.6 1166.4C2394.4 1172.4 2375.2 1194 2375.2 1221.6 2375.2 1252.8 2400.4 1278 2431.6 1278 2462.8 1278 2488 1252.8 2488 1221.6 2488 1194 2468.8 1172.4 2443.6 1166.4L2443.6 990C2443.6 982.802 2438.8 978.001 2431.6 978.001L2407.6 978.001 2407.6 957.603C2407.6 951.601 2404 946.805 2398 945.603L2346.4 933.604C2345.2 930.005 2344 926.406 2341.6 924.004L2369.2 879.603C2371.6 874.802 2371.6 868.805 2368 865.202L2323.6 820.801C2320 817.201 2314 816 2309.2 819.6L2264.8 846.004C2261.2 844.803 2257.6 843.606 2255.2 841.204L2243.2 789.604C2242 783.603 2237.2 780.003 2231.2 780.003L2212 780.003 2212 770.402 2376.4 770.402C2382.4 795.602 2404 814.803 2431.6 814.803 2462.8 814.803 2488 789.604 2488 758.402 2488 727.201 2462.8 702.002 2431.6 702.002 2404 702.002 2382.4 721.204 2376.4 746.403L2200 746.403C2192.8 746.403 2188 751.203 2188 758.401L2188 781.202 2167.6 781.202C2161.6 781.202 2156.8 784.802 2155.6 790.803L2143.6 842.403C2140.01 843.604 2136.41 844.801 2134 847.204L2089.6 819.602C2084.8 817.203 2078.8 817.203 2075.2 820.803L2030.8 865.204C2027.2 868.803 2026 874.805 2029.6 879.605L2057.2 925.204C2056 928.803 2054.8 932.402 2052.4 936.002L2002 948.001C1996 949.202 1992.4 954.002 1992.4 960L1992.4 978.001 1980.4 978.001 1980.4 813.601C2005.6 807.599 2024.8 785.999 2024.8 758.401 2024.8 727.2 1999.6 702 1968.4 702 1937.2 702 1912 727.2 1912 758.401 1912 786.003 1931.2 807.603 1956.4 813.601L1956.4 990.001C1956.4 997.199 1961.2 1002 1968.4 1002L1992.4 1002 1992.4 1022.4C1992.4 1028.4 1996 1033.2 2002 1034.4L2053.6 1046.4C2054.8 1050 2056 1053.6 2058.4 1056L2030.8 1100.4C2028.4 1105.2 2028.4 1111.2 2032 1114.8L2076.4 1159.2C2080 1162.8 2086 1164 2090.8 1160.4L2136.4 1132.8C2140 1134 2143.6 1135.2 2146 1136.4L2158 1188C2159.2 1194 2164 1197.6 2170 1197.6L2188 1197.6 2188 1208.4 2023.6 1208.4ZM1968.4 1254C1950.4 1254 1936 1239.6 1936 1221.6 1936 1203.6 1950.4 1189.2 1968.4 1189.2 1986.4 1189.2 2000.8 1203.6 2000.8 1221.6 2000.8 1239.6 1986.4 1254 1968.4 1254ZM2464 1221.6C2464 1239.6 2449.6 1254 2431.6 1254 2413.6 1254 2399.2 1239.59 2399.2 1221.6 2399.2 1203.6 2413.6 1189.2 2431.6 1189.2 2449.6 1189.2 2464 1203.6 2464 1221.6ZM2431.6 725.999C2449.6 725.999 2464 740.397 2464 758.397 2464 776.398 2449.6 790.795 2431.6 790.795 2413.6 790.795 2399.2 776.394 2399.2 758.397 2399.2 740.396 2413.6 725.999 2431.6 725.999ZM1936 758.397C1936 740.396 1950.4 725.999 1968.4 725.999 1986.4 725.999 2000.8 740.4 2000.8 758.397 2000.8 776.398 1986.4 790.795 1968.4 790.795 1950.4 790.795 1936 776.397 1936 758.397ZM2179.6 1174.8 2167.6 1126.8C2166.4 1123.2 2164 1119.6 2159.2 1118.4 2152 1116 2146 1113.6 2140 1110 2136.4 1107.6 2131.6 1108.79 2128 1110L2086 1136.4 2054.8 1105.2 2081.2 1063.2C2083.6 1059.6 2083.6 1054.8 2081.2 1051.2 2077.6 1045.2 2075.2 1039.2 2072.8 1033.2L2072.8 1032C2071.6 1028.4 2068 1025.99 2064.4 1024.8L2015.2 1012.8 2015.2 969.599 2063.2 957.599C2066.8 956.398 2070.4 954 2071.6 949.2 2074 943.198 2076.4 936 2080 929.998 2082.4 926.398 2081.2 921.598 2080 917.999L2053.6 874.799 2084.8 843.598 2126.8 869.999C2130.4 872.397 2135.2 872.397 2138.8 869.999 2146 866.399 2152 863.997 2158 861.599 2161.6 860.398 2165.2 856.798 2166.4 853.199L2178.4 803.997 2221.6 803.997 2232.4 851.998C2233.6 855.598 2236 859.197 2240.8 860.398 2246.8 862.796 2254 865.198 2260 868.798 2263.6 871.196 2268.4 869.999 2272 868.798L2314 842.397 2345.2 873.598 2318.8 915.597C2316.4 919.196 2316.4 923.997 2318.8 927.595 2322.4 934.793 2324.8 940.795 2327.2 946.798 2328.4 950.397 2332 953.997 2335.6 955.197L2384.8 967.195 2384.8 1010.4 2336.8 1022.4C2333.2 1023.6 2329.6 1025.99 2328.4 1030.79 2326 1036.8 2323.6 1043.99 2320 1050 2318.8 1051.2 2318.8 1052.4 2318.8 1054.8L2318.8 1056C2318.8 1057.2 2318.8 1059.6 2320 1060.8 2320 1060.8 2320 1062 2321.2 1062L2347.6 1105.2 2316.4 1136.4 2273.2 1110C2269.6 1107.6 2264.8 1107.6 2261.2 1110 2255.2 1113.6 2249.2 1116 2242 1118.4 2238.4 1119.6 2234.8 1123.2 2233.6 1126.8L2221.6 1176 2179.6 1176Z" fill="#616161" fill-rule="evenodd"/></g></svg>