<svg width="1031" height="1395" xmlns="http://www.w3.org/2000/svg" xmlns:xlink="http://www.w3.org/1999/xlink" xml:space="preserve" overflow="hidden"><defs><clipPath id="clip0"><rect x="1686" y="291" width="1031" height="1395"/></clipPath></defs><g clip-path="url(#clip0)" transform="translate(-1686 -291)"><path d="M1767.31 1033.35 1844.64 1033.35C1877.12 1033.35 1912.1 1049.37 1910.65 1089.62 1909.39 1125.8 1887.55 1147.57 1844.64 1147.57L1767.31 1147.57ZM1686 966 1686 1355 1767.31 1355 1767.31 1213.78 1857.44 1213.78C1930.53 1213.78 1982 1162 1982 1091.91 1982 1018.71 1926.66 966.01 1857.44 966.01Z" fill="#274584" fill-rule="evenodd"/><path d="M2121.15 1033.37 2181.36 1033.37C2260.29 1033.37 2289.6 1084.68 2289.85 1156.38 2289.93 1229.46 2257.3 1288.8 2188.5 1288.8L2121.15 1288.8ZM2042 966.014 2042 1355 2204.86 1355C2316.41 1355 2374.7 1256.86 2372.96 1156.39 2371.03 1046.96 2296.01 966 2192.61 966Z" fill="#274584" fill-rule="evenodd"/><path d="M2440 966 2440 1355 2521.43 1355 2521.43 1190.99 2692.38 1190.99 2692.38 1122.37 2521.43 1122.37 2521.43 1033.93 2717 1033.93 2717 966.01Z" fill="#274584" fill-rule="evenodd"/><path d="M1990.6 291.011 1686 642.206 1686 908.996 1760.68 908.996 1760.68 693.707 2099.54 693.707 2099.54 442.748 2024.71 442.748 2024.71 618.815 1805.24 618.815 2024.71 365.892 2642.2 365.892 2642.2 909 2717 909 2717 291Z" fill="#274584" fill-rule="evenodd"/><path d="M1686 1412.02 1686 1684.99 2717 1686 2717 1280 2642.2 1280 2642.2 1611.1 1760.66 1610.29 1760.66 1412.03Z" fill="#274584" fill-rule="evenodd"/></g></svg>