<svg width="662" height="796" xmlns="http://www.w3.org/2000/svg" xmlns:xlink="http://www.w3.org/1999/xlink" xml:space="preserve" overflow="hidden"><defs><clipPath id="clip0"><rect x="1869" y="592" width="662" height="796"/></clipPath></defs><g clip-path="url(#clip0)" transform="translate(-1869 -592)"><path d="M1875.52 592.001 2419.5 592.001C2421.32 592.001 2422.97 592.754 2424.16 593.955L2529.09 698.941C2530.37 700.216 2531 701.886 2531 703.557L2531 1381.48C2531 1385.08 2528.08 1388 2524.48 1388L1875.52 1388C1871.92 1388 1869 1385.08 1869 1381.48L1869 598.525C1869 594.923 1871.92 592 1875.52 592ZM2416.81 605.051 1882.05 605.051 1882.05 1374.94 2517.97 1374.94 2517.97 706.246Z" fill="#616161" fill-rule="evenodd"/><path d="M2474.16 1240.01C2465.83 1272.43 2445.19 1298.39 2418.53 1314.14 2391.88 1329.91 2359.23 1335.49 2326.87 1327.15 2295.08 1318.95 2269.5 1298.86 2253.69 1272.86 2237.83 1246.77 2231.76 1214.74 2239.07 1182.82L2245.41 1184.28 2239.06 1182.81C2239.86 1179.3 2243.36 1177.11 2246.87 1177.91 2247.12 1177.97 2247.37 1178.05 2247.61 1178.13L2358.16 1206.61 2373.47 1096.64 2379.91 1097.53 2373.45 1096.63C2373.95 1093.05 2377.24 1090.57 2380.81 1091.06 2381.13 1091.11 2381.45 1091.17 2381.75 1091.26 2382.71 1091.47 2383.52 1091.64 2384.18 1091.79 2384.81 1091.94 2385.8 1092.18 2387.13 1092.52 2419.5 1100.86 2445.43 1121.53 2461.16 1148.22 2476.91 1174.91 2482.48 1207.6 2474.15 1240ZM2411.92 1302.92C2435.72 1288.84 2454.16 1265.69 2461.58 1236.8 2469.01 1207.89 2464.02 1178.69 2449.97 1154.85 2436.14 1131.42 2413.56 1113.18 2385.37 1105.51L2370.11 1215.16C2370.08 1215.56 2370.02 1215.95 2369.91 1216.35 2369.02 1219.84 2365.47 1221.94 2361.98 1221.04L2361.99 1221.01 2250.46 1192.28C2246.11 1218.57 2251.72 1244.58 2264.79 1266.08 2278.92 1289.3 2301.74 1307.24 2330.08 1314.54 2358.95 1321.98 2388.11 1316.99 2411.92 1302.92Z" fill="#616161" fill-rule="evenodd"/><path d="M2360.82 1221.62 2217.91 1184.66 2219.51 1178.35 2217.89 1184.68C2214.41 1183.79 2212.31 1180.22 2213.21 1176.72 2213.26 1176.5 2213.33 1176.3 2213.4 1176.1 2223.3 1138.1 2246.52 1106.8 2276.94 1086.32 2307.55 1065.71 2345.44 1056.05 2384.38 1061.5L2383.49 1067.97 2384.39 1061.49C2387.95 1061.99 2390.43 1065.29 2389.94 1068.87 2389.92 1069.02 2389.89 1069.16 2389.86 1069.3L2369.46 1216.35 2363.03 1215.46 2369.48 1216.36C2368.98 1219.94 2365.69 1222.43 2362.14 1221.94 2361.68 1221.87 2361.24 1221.77 2360.83 1221.62ZM2227.55 1173.7 2357.61 1207.33 2376.15 1073.67C2342.75 1070.53 2310.51 1079.42 2284.18 1097.14 2257.83 1114.88 2237.38 1141.46 2227.56 1173.7Z" fill="#616161" fill-rule="evenodd"/><path d="M2137.14 1307.96 2174.86 1307.96 2174.86 1112.05 2137.14 1112.05ZM2181.43 1321 2130.57 1321C2126.94 1321 2124 1318.08 2124 1314.48L2124 1105.52C2124 1101.92 2126.94 1099 2130.57 1099L2181.43 1099C2185.06 1099 2188 1101.92 2188 1105.52L2188 1314.48C2188 1318.08 2185.06 1321 2181.43 1321Z" fill="#616161" fill-rule="evenodd"/><path d="M2086.94 1307.94 2124.06 1307.94 2124.06 1168.06 2086.94 1168.06ZM2130.53 1321 2080.47 1321C2076.9 1321 2074 1318.07 2074 1314.47L2074 1161.53C2074 1157.93 2076.9 1155 2080.47 1155L2130.53 1155C2134.1 1155 2137 1157.93 2137 1161.53L2137 1314.47C2137 1318.07 2134.1 1321 2130.53 1321Z" fill="#616161" fill-rule="evenodd"/><path d="M2036.14 1308.01 2073.86 1308.01 2073.86 1225.99 2036.14 1225.99ZM2080.43 1321 2029.57 1321C2025.94 1321 2023 1318.09 2023 1314.51L2023 1219.49C2023 1215.91 2025.94 1213 2029.57 1213L2080.43 1213C2084.06 1213 2087 1215.91 2087 1219.49L2087 1314.51C2087 1318.09 2084.06 1321 2080.43 1321Z" fill="#616161" fill-rule="evenodd"/><path d="M1985.94 1307.95 2023.06 1307.95 2023.06 1148.05 1985.94 1148.05ZM2029.53 1321 1979.47 1321C1975.9 1321 1973 1318.08 1973 1314.48L1973 1141.53C1973 1137.92 1975.9 1135 1979.47 1135L2029.53 1135C2033.1 1135 2036 1137.92 2036 1141.53L2036 1314.48C2036 1318.08 2033.1 1321 2029.53 1321Z" fill="#616161" fill-rule="evenodd"/><path d="M1935.14 1307.93 1972.86 1307.93 1972.86 1209.07 1935.14 1209.07ZM1979.43 1321 1928.57 1321C1924.94 1321 1922 1318.07 1922 1314.47L1922 1202.53C1922 1198.93 1924.94 1196 1928.57 1196L1979.43 1196C1983.06 1196 1986 1198.93 1986 1202.53L1986 1314.47C1986 1318.07 1983.06 1321 1979.43 1321Z" fill="#616161" fill-rule="evenodd"/><path d="M1977.07 773.014 2422.93 773.014 2422.93 690.986 1977.07 690.986ZM2429.47 786 1970.53 786C1966.93 786 1964 783.092 1964 779.507L1964 684.493C1964 680.908 1966.93 678 1970.53 678L2429.47 678C2433.07 678 2436 680.908 2436 684.493L2436 779.507C2436 783.092 2433.07 786 2429.47 786Z" fill="#616161" fill-rule="evenodd"/><path d="M1989.55 831C1985.93 831 1983 833.911 1983 837.5 1983 841.088 1985.93 844 1989.55 844L2219.45 844C2223.07 844 2226 841.088 2226 837.5 2226 833.911 2223.07 831 2219.45 831Z" fill="#616161" fill-rule="evenodd"/><path d="M1989.55 869C1985.93 869 1983 871.911 1983 875.5 1983 879.089 1985.93 882 1989.55 882L2219.45 882C2223.07 882 2226 879.089 2226 875.5 2226 871.911 2223.07 869 2219.45 869Z" fill="#616161" fill-rule="evenodd"/><path d="M1989.55 907C1985.93 907 1983 909.912 1983 913.5 1983 917.089 1985.93 920 1989.55 920L2219.45 920C2223.07 920 2226 917.089 2226 913.5 2226 909.912 2223.07 907 2219.45 907Z" fill="#616161" fill-rule="evenodd"/><path d="M1989.55 945C1985.93 945 1983 947.911 1983 951.5 1983 955.089 1985.93 958 1989.55 958L2219.45 958C2223.07 958 2226 955.089 2226 951.5 2226 947.911 2223.07 945 2219.45 945Z" fill="#616161" fill-rule="evenodd"/><path d="M1989.55 983C1985.93 983 1983 986.135 1983 990 1983 993.865 1985.93 997 1989.55 997L2219.45 997C2223.07 997 2226 993.865 2226 990 2226 986.135 2223.07 983 2219.45 983Z" fill="#616161" fill-rule="evenodd"/></g></svg>