<svg width="1517" height="815" xmlns="http://www.w3.org/2000/svg" xmlns:xlink="http://www.w3.org/1999/xlink" xml:space="preserve" overflow="hidden"><defs><clipPath id="clip0"><rect x="1440" y="583" width="1517" height="815"/></clipPath></defs><g clip-path="url(#clip0)" transform="translate(-1440 -583)"><path d="M2812.86 586.766C2773.67 586.339 2735.89 601.444 2707.82 628.787 2679.73 656.127 2663.61 693.467 2662.99 732.656 2663.21 769.47 2677.35 804.834 2702.58 831.636L2480.03 1116.11C2461.32 1107.87 2441.1 1103.56 2420.65 1103.45 2397.62 1103.48 2374.92 1108.82 2354.31 1119.08L2109 804.724C2125.75 776.83 2132.7 744.131 2128.71 711.849 2124.73 679.564 2110.05 649.531 2087.01 626.553 2059.17 598.743 2021.44 583.083 1982.08 583.001 1942.97 582.821 1905.33 598.039 1877.35 625.365 1849.95 651.892 1834.04 688.097 1833.03 726.223 1832.04 764.348 1846.03 801.341 1872 829.261L1649.26 1111.36C1621.9 1099.4 1591.62 1095.85 1562.24 1101.18 1532.87 1106.5 1505.74 1120.46 1484.34 1141.25 1456.2 1168.55 1440.24 1206.03 1440 1245.23 1439.78 1284.42 1455.33 1322.08 1483.15 1349.71 1510.99 1377.52 1548.72 1393.18 1588.08 1393.25 1627.21 1393.44 1664.83 1378.22 1692.81 1350.9 1720.94 1323.58 1736.92 1286.12 1737.14 1246.92 1737.37 1207.72 1721.81 1170.07 1694.01 1142.44 1690.35 1138.81 1686.53 1135.37 1682.52 1132.14L1900.32 853.815C1924.05 868.687 1951.51 876.584 1979.51 876.57 2017.37 876.849 2053.9 862.695 2081.67 836.981L2319.26 1141.83 2319.27 1141.85C2287.97 1169.33 2269.89 1208.88 2269.57 1250.52 2269.78 1289.78 2285.55 1327.35 2313.43 1355 2341.3 1382.65 2379 1398.11 2418.27 1398 2457.42 1398.22 2495.08 1382.94 2523.01 1355.48 2550.93 1328.05 2566.89 1290.66 2567.36 1251.52 2567.51 1206.98 2547.4 1164.81 2512.71 1136.89L2730.51 858.358 2730.49 858.372C2754.22 873.314 2781.66 881.268 2809.7 881.335 2862.32 881.335 2910.96 853.263 2937.27 807.694 2963.58 762.11 2963.58 705.981 2937.27 660.411 2910.96 614.827 2862.32 586.77 2809.7 586.77ZM1698.38 1247.35C1698 1276.16 1686.2 1303.64 1665.55 1323.73 1644.9 1343.82 1617.1 1354.87 1588.29 1354.45 1559.32 1354.37 1531.57 1342.84 1511.07 1322.37 1490.73 1302.26 1479.37 1274.77 1479.6 1246.16 1479.69 1217.56 1491.34 1190.24 1511.86 1170.34 1532.44 1150.22 1560.1 1138.98 1588.88 1139.07 1617.84 1139.15 1645.6 1150.66 1666.1 1171.13 1686.73 1191.12 1698.37 1218.63 1698.37 1247.35ZM1980.52 836.974C1951.61 836.85 1923.94 825.319 1903.5 804.912 1883.09 784.819 1871.66 757.327 1871.81 728.69 1871.92 700.396 1883.33 673.318 1903.5 653.475 1924.06 633.329 1951.73 622.088 1980.52 622.198 2009.84 621.685 2038.15 632.955 2059.11 653.475 2079.53 673.498 2091.03 700.894 2091.03 729.492 2091.03 758.091 2079.53 785.473 2059.11 805.509 2038.32 826.291 2009.91 837.653 1980.52 836.978ZM2529.17 1251.31C2529.49 1280.41 2518.19 1308.44 2497.81 1329.19 2477.41 1349.96 2449.58 1361.75 2420.48 1361.96 2391.37 1362.17 2363.39 1350.79 2342.68 1330.32 2321.99 1309.86 2310.3 1281.99 2310.2 1252.9 2310.09 1223.79 2321.58 1195.84 2342.12 1175.23 2362.67 1154.61 2390.57 1143.02 2419.68 1143.02 2448.57 1142.8 2476.37 1154.11 2496.91 1174.43 2517.46 1194.75 2529.06 1222.41 2529.17 1251.31ZM2811.91 841.711C2773.42 841.711 2737.87 821.19 2718.63 787.873 2699.39 754.556 2699.39 713.5 2718.63 680.179 2737.87 646.858 2773.42 626.341 2811.91 626.341 2850.39 626.341 2885.94 646.862 2905.19 680.179 2924.42 713.5 2924.42 754.552 2905.19 787.873 2885.94 821.194 2850.39 841.711 2811.91 841.711Z" fill="#616161" fill-rule="evenodd"/></g></svg>