<svg width="870" height="870" xmlns="http://www.w3.org/2000/svg" xmlns:xlink="http://www.w3.org/1999/xlink" xml:space="preserve" overflow="hidden"><defs><clipPath id="clip0"><rect x="1765" y="555" width="870" height="870"/></clipPath></defs><g clip-path="url(#clip0)" transform="translate(-1765 -555)"><path d="M2433.15 717.898 2430.33 723.556 2423.37 738.347C2490.36 797.938 2533.42 883.417 2536.47 979.117L2504.49 979.117 2504.49 1000.87 2536.46 1000.87C2530.8 1178.13 2387.91 1320.81 2210.87 1326.46L2210.87 1294.49 2189.11 1294.49 2189.11 1326.45C2011.86 1320.8 1869.19 1178.13 1863.52 1000.86L1895.5 1000.86 1895.5 979.109 1863.52 979.117C1869.18 801.851 2011.85 659.172 2189.11 653.523L2189.11 685.499 2210.87 685.499 2210.86 653.523C2230.43 654.178 2249.57 656.13 2268.06 659.83L2276.55 642.213 2277.63 639.818C2256.1 635.033 2233.7 632.426 2210.86 631.77L2210.86 555 2189.11 555 2189.11 631.778C1999.89 637.429 1847.43 789.898 1841.78 979.128L1765 979.128 1765 1000.88 1841.78 1000.88C1847.44 1190.1 2000.12 1342.58 2189.13 1348.23L2189.13 1425 2210.88 1425 2210.88 1348.22C2400.1 1342.56 2552.58 1189.88 2558.23 1000.87L2635 1000.87 2635 979.12 2558.22 979.12C2555.18 874.729 2507.33 781.415 2433.16 717.919Z" fill="#616161" fill-rule="evenodd"/><path d="M2356.55 676.648 2360 669.616C2347.26 663.226 2333.88 657.685 2320.28 653L2317.69 658.541 2311 672.383C2324.6 677.068 2337.98 682.61 2350.72 689Z" fill="#616161" fill-rule="evenodd"/><path d="M2156.8 1001C2150.75 1001 2146 1005.77 2146 1011.83L2146 1120.17C2146 1126.23 2150.75 1131 2156.8 1131L2243.2 1131C2249.25 1131 2254 1126.23 2254 1120.17L2254 1011.83C2254 1005.77 2249.25 1001 2243.2 1001ZM2232.4 1109.34 2167.6 1109.34 2167.6 1022.67 2232.4 1022.67Z" fill="#616161" fill-rule="evenodd"/><path d="M2286.9 1131 2374.1 1131C2380.21 1131 2385 1126.22 2385 1120.13L2385 967.873C2385 961.784 2380.21 957 2374.1 957L2286.9 957C2280.79 957 2276 961.784 2276 967.873L2276 1120.13C2275.99 1126.22 2280.79 1131 2286.9 1131ZM2297.8 978.753 2363.2 978.753 2363.2 1109.25 2297.8 1109.25Z" fill="#616161" fill-rule="evenodd"/><path d="M2025.9 1044C2019.8 1044 2015 1048.78 2015 1054.87L2015 1120.13C2015 1126.22 2019.8 1131 2025.9 1131L2113.1 1131C2119.21 1131 2124 1126.22 2124 1120.13L2124 1054.87C2124 1048.78 2119.21 1044 2113.1 1044ZM2102.2 1109.25 2036.8 1109.25 2036.8 1065.75 2102.2 1065.75Z" fill="#616161" fill-rule="evenodd"/><path d="M2340.74 857.269C2339.66 852.264 2335.32 849 2330.12 849L2221.73 849 2221.73 870.76 2284.17 870.76 2065 980.637 2074.76 1000 2334.9 869.456C2339.44 867.272 2341.83 862.274 2340.74 857.269Z" fill="#616161" fill-rule="evenodd"/></g></svg>