<svg width="935" height="921" xmlns="http://www.w3.org/2000/svg" xmlns:xlink="http://www.w3.org/1999/xlink" xml:space="preserve" overflow="hidden"><defs><clipPath id="clip0"><rect x="1733" y="500" width="935" height="921"/></clipPath></defs><g clip-path="url(#clip0)" transform="translate(-1733 -500)"><path d="M2653.39 622.797 2273.54 622.797 2273.54 514.623C2273.54 510.238 2272.08 505.853 2267.7 502.927 2264.78 500 2260.4 500 2256.01 500L1744.69 587.717C1737.38 589.176 1733 595.029 1733 602.341L1733 1318.66C1733 1325.97 1738.84 1331.81 1744.69 1333.28L2256.01 1421 2258.94 1421C2261.86 1421 2266.25 1419.54 2267.7 1418.07 2270.63 1415.15 2273.54 1410.76 2273.54 1406.38L2273.54 1306.97 2653.39 1306.97C2662.15 1306.97 2668 1301.13 2668 1292.35L2667.99 637.431C2667.99 628.662 2662.15 622.81 2653.39 622.81ZM2244.32 1289.41 2244.32 1292.34 2244.32 1295.26 2244.32 1388.82 1762.22 1305.49 1762.22 614.025 2244.32 530.693ZM2638.78 1277.72 2273.54 1277.72 2273.54 1213.39 2565.73 1213.39C2574.49 1213.39 2580.34 1207.55 2580.34 1198.77 2580.34 1190 2574.5 1184.14 2565.73 1184.14L2273.54 1184.15 2273.54 1096.44 2565.73 1096.44C2574.49 1096.44 2580.34 1090.59 2580.34 1081.81 2580.34 1073.04 2574.5 1067.19 2565.73 1067.19L2273.54 1067.2 2273.54 979.483 2565.73 979.483C2574.49 979.483 2580.34 973.641 2580.34 964.859 2580.34 956.091 2574.5 950.238 2565.73 950.238L2273.54 950.248 2273.54 862.531 2565.73 862.531C2574.49 862.531 2580.34 856.686 2580.34 847.907 2580.34 839.138 2574.5 833.283 2565.73 833.283L2273.54 833.293 2273.54 745.576 2565.73 745.576C2574.49 745.576 2580.34 739.733 2580.34 730.954 2580.34 722.183 2574.5 716.33 2565.73 716.33L2273.54 716.341 2273.54 652.016 2638.78 652.016Z" fill="#252D76" fill-rule="evenodd"/></g></svg>