<svg width="866" height="1046" xmlns="http://www.w3.org/2000/svg" xmlns:xlink="http://www.w3.org/1999/xlink" xml:space="preserve" overflow="hidden"><defs><clipPath id="clip0"><rect x="1767" y="467" width="866" height="1046"/></clipPath></defs><g clip-path="url(#clip0)" transform="translate(-1767 -467)"><path d="M2054.79 1234.31 2143.92 1125.58 2143.92 1100 2019.9 1100 2019.9 1125.71 2104.44 1125.71 2104.44 1126.63 2016 1234.93 2016 1261 2145 1261 2145 1235.26 2054.79 1235.26Z" fill="#274584" fill-rule="evenodd"/><path d="M2164 1100 2195 1100 2195 1261 2164 1261Z" fill="#274584" fill-rule="evenodd"/><path d="M2296.23 1100 2223 1100 2223 1261 2253.73 1261 2253.73 1208.99 2289.88 1208.99 2297.01 1208.86C2319.13 1208.86 2333.83 1205.33 2341.09 1198.26 2348.39 1191.16 2352 1176.87 2352 1155.31 2352 1133.63 2348.18 1118.98 2340.56 1111.38 2332.87 1103.76 2318.12 1100 2296.23 1100ZM2315.13 1178.47C2311.38 1181.68 2302.54 1183.25 2288.64 1183.25L2253.7 1183.25 2253.7 1125.68 2291.72 1125.68C2304.84 1125.68 2312.96 1127.31 2316.08 1130.55 2319.21 1133.8 2320.78 1142.23 2320.78 1155.84 2320.78 1167.78 2318.87 1175.26 2315.13 1178.47Z" fill="#274584" fill-rule="evenodd"/><path d="M1843.01 467 1843.01 1032.92 1767 1032.92 1767 1330.97 1842.98 1406.94 1842.98 1330.97 1842.98 1513 2633 1513 2633 685.662 2414.35 467.013ZM1799.69 1298.26 1799.69 1065.58 2521.97 1065.58 2521.97 1298.26ZM2600.34 1480.29 1875.71 1480.29 1875.71 1330.95 2554.67 1330.95 2554.67 1032.9 1875.71 1032.9 1875.71 499.669 2397.95 499.669 2397.95 701.974 2600.3 701.974 2600.3 1480.28ZM2430.63 545.911 2554.07 669.303 2430.63 669.303Z" fill="#274584" fill-rule="evenodd"/></g></svg>